<svg width="877" height="37" viewBox="0 0 877 37" fill="none" xmlns="http://www.w3.org/2000/svg">
<path d="M8.00001 13.4569L8.00002 12.4569L7.00003 12.457L7.00002 13.4569L8.00001 13.4569ZM7.29292 35.723C7.68345 36.1135 8.31664 36.1135 8.70712 35.723L15.0711 29.359C15.4616 28.9685 15.4616 28.3353 15.0711 27.9448C14.6806 27.5543 14.0474 27.5543 13.6569 27.9448L8.00006 33.6016L2.34315 27.9448C1.95263 27.5543 1.3195 27.5543 0.928957 27.9448C0.538414 28.3353 0.538463 28.9685 0.92899 29.359L7.29292 35.723ZM876 13.443L876 14.443L877 14.443L877 13.443L876 13.443ZM7.00002 13.4569L7.00005 35.0159L9.00003 35.0159L9 13.4569L7.00002 13.4569ZM875 0.616434L875 13.443L877 13.443L877 0.616441L875 0.616434ZM876 12.443L8.00002 12.4569L8 14.4569L876 14.443L876 12.443Z" fill="#5C49DF"/>
</svg>
