<svg xmlns="http://www.w3.org/2000/svg" xmlns:xlink="http://www.w3.org/1999/xlink" viewBox="0 0 112.3 81.97"><defs><style>.cls-1{fill:url(#Безымянный_градиент);}</style><linearGradient id="Безымянный_градиент" x1="45.28" y1="-2.4" x2="63.71" y2="96.17" gradientTransform="matrix(1, 0, 0, -1, 0, 84)" gradientUnits="userSpaceOnUse"><stop offset="0" stop-color="#516bae"/><stop offset="1" stop-color="#4869a7"/></linearGradient></defs><g id="Слой_2" data-name="Слой 2"><g id="Слой_2-2" data-name="Слой 2"><g id="Слой_1-2" data-name="Слой 1"><path class="cls-1" d="M.26,47.44A7.67,7.67,0,0,0,1,53.25l13.22,23A11.47,11.47,0,0,0,30,80.41L52.89,67.15A7.67,7.67,0,0,0,51,53.1l-17-4.56a55.18,55.18,0,0,1,67.51-39l5.92,1.59a3.83,3.83,0,0,0,2-7.4l-5.92-1.58A62.78,62.78,0,0,0,26.65,46.56a7.68,7.68,0,0,0,5.41,9.38l17,4.55h0v0h0L26.13,73.79a3.85,3.85,0,0,1-5.25-1.41L7.66,49.43h0v0h0l4.06,1.09a3.83,3.83,0,0,0,2-7.4L9.65,42a7.64,7.64,0,0,0-8.06,2.73A7.74,7.74,0,0,0,.26,47.44Z"/></g></g></g></svg>