<svg width="121" height="121" viewBox="0 0 121 121" fill="none" xmlns="http://www.w3.org/2000/svg">
<g clip-path="url(#clip0_101:1376)">
<path d="M20.6531 71.6855C20.1379 73.608 20.3838 75.6949 21.4215 77.4956L34.6417 100.45C36.1759 103.113 38.6556 105.019 41.6245 105.814C44.5935 106.61 47.6943 106.2 50.3547 104.66L73.2808 91.3912C75.9758 89.8322 77.4532 86.8292 77.0452 83.7413C76.6376 80.6574 74.4344 78.1451 71.4329 77.3408L54.438 72.7871C62.3052 43.4266 92.5925 25.9401 121.953 33.8073L127.869 35.3923C129.911 35.9396 132.01 34.7278 132.557 32.6854C133.104 30.6431 131.893 28.5442 129.85 27.997L123.935 26.4119C107.736 22.0716 90.817 24.2987 76.2937 32.6837C61.7712 41.0689 51.3823 54.607 47.042 70.8053C45.9492 74.8836 48.378 79.0904 52.4555 80.183L69.4512 84.7369C69.4519 84.7371 69.4526 84.7373 69.4533 84.7375C69.4547 84.744 69.4556 84.752 69.4561 84.7591C69.4526 84.7605 69.4496 84.7628 69.446 84.7649L46.5192 98.0335C45.6314 98.5472 44.597 98.6842 43.6061 98.4187C42.6153 98.1532 41.7879 97.5174 41.276 96.6286L28.0557 73.6745L28.0499 73.6644C28.0538 73.6585 28.0579 73.6518 28.0624 73.6468C28.0631 73.647 28.0638 73.6472 28.0653 73.6476L32.1183 74.7336C34.1607 75.2809 36.2597 74.0684 36.8069 72.026C37.354 69.9843 36.1424 67.8848 34.1001 67.3375L30.047 66.2515C27.0456 65.4473 23.8814 66.5214 21.9865 68.9884C21.3555 69.8093 20.9099 70.7271 20.6531 71.6855Z" fill="url(#paint0_linear_101:1376)"/>
</g>
<defs>
<linearGradient id="paint0_linear_101:1376" x1="109.473" y1="118.838" x2="127.903" y2="20.2678" gradientUnits="userSpaceOnUse">
<stop stop-color="#516BAE"/>
<stop offset="1" stop-color="#4869A7"/>
</linearGradient>
<clipPath id="clip0_101:1376">
<rect width="98" height="98" fill="white" transform="matrix(0.258819 -0.965926 -0.965926 -0.258819 94.6606 120.025)"/>
</clipPath>
</defs>
</svg>
