<svg width="101" height="83" viewBox="0 0 101 83" fill="none" xmlns="http://www.w3.org/2000/svg">
<path d="M0.653068 47.6855C0.137933 49.608 0.38376 51.6949 1.42153 53.4956L14.6417 76.4497C16.1759 79.1133 18.6556 81.0185 21.6245 81.814C24.5935 82.6096 27.6943 82.1996 30.3547 80.66L53.2808 67.3912C55.9758 65.8322 57.4532 62.8292 57.0452 59.7413C56.6376 56.6574 54.4344 54.1451 51.4329 53.3408L34.438 48.7871C42.3052 19.4266 72.5925 1.94015 101.953 9.80727L107.869 11.3923C109.911 11.9396 112.01 10.7278 112.557 8.68545C113.104 6.64305 111.893 4.54423 109.85 3.99697L103.935 2.4119C87.7363 -1.92843 70.817 0.29867 56.2937 8.68369C41.7712 17.0689 31.3823 30.607 27.042 46.8053C25.9492 50.8836 28.378 55.0904 32.4555 56.183L49.4512 60.7369C49.4519 60.7371 49.4526 60.7373 49.4533 60.7375C49.4547 60.744 49.4556 60.752 49.4561 60.7591C49.4526 60.7605 49.4496 60.7628 49.446 60.7649L26.5192 74.0335C25.6314 74.5472 24.597 74.6842 23.6061 74.4187C22.6153 74.1532 21.7879 73.5174 21.276 72.6286L8.05575 49.6745L8.04993 49.6644C8.05384 49.6585 8.05794 49.6518 8.06238 49.6468C8.0631 49.647 8.06382 49.6472 8.06527 49.6476L12.1183 50.7336C14.1607 51.2809 16.2597 50.0684 16.8069 48.026C17.354 45.9843 16.1424 43.8848 14.1001 43.3375L10.047 42.2515C7.04557 41.4473 3.88136 42.5214 1.98649 44.9884C1.3555 45.8093 0.909861 46.7271 0.653068 47.6855Z" fill="url(#paint0_linear_101:1377)"/>
<defs>
<linearGradient id="paint0_linear_101:1377" x1="89.4725" y1="94.8383" x2="107.903" y2="-3.73223" gradientUnits="userSpaceOnUse">
<stop stop-color="#516BAE"/>
<stop offset="1" stop-color="#4869A7"/>
</linearGradient>
</defs>
</svg>
