<svg width="111" height="79" viewBox="0 0 111 79" fill="none" xmlns="http://www.w3.org/2000/svg">
<path d="M20.2238 78.2622C18.3013 77.7471 16.6169 76.4907 15.5764 74.6917L2.30761 51.7656C0.767962 49.1051 0.357814 46.0051 1.15335 43.0361C1.94889 40.0671 3.85432 37.5867 6.5179 36.0526L29.472 22.8323C32.1697 21.2779 35.509 21.5 37.9792 23.3973C40.4462 25.2922 41.5203 28.4564 40.7161 31.4579L36.1623 48.4528C65.5228 56.3199 95.8102 38.8335 103.677 9.47298L105.262 3.55741C105.81 1.51501 107.908 0.303256 109.951 0.850514C111.993 1.39777 113.205 3.4966 112.658 5.53899L111.073 11.4546C106.732 27.6529 96.344 41.1918 81.8207 49.5769C67.2976 57.9612 50.3789 60.1892 34.1805 55.8489C30.1022 54.7561 27.6734 50.5493 28.766 46.4717L33.32 29.4761C33.3202 29.4754 33.3204 29.4746 33.3206 29.4739C33.3156 29.4695 33.3091 29.4647 33.3032 29.4608C33.3003 29.4631 33.2968 29.4645 33.2931 29.4666L10.3388 42.6875C9.45004 43.1994 8.81422 44.0268 8.54872 45.0177C8.28322 46.0085 8.42016 47.043 8.9339 47.9307L22.2026 70.8568L22.2085 70.8669C22.2155 70.8665 22.2233 70.8662 22.2299 70.8649C22.2301 70.8642 22.2303 70.8634 22.2307 70.862L23.3167 66.809C23.8639 64.7666 25.9635 63.555 28.0059 64.1023C30.0475 64.6493 31.26 66.7484 30.7128 68.7908L29.6268 72.8438C28.8225 75.8452 26.3102 78.0485 23.2263 78.456C22.1998 78.592 21.1822 78.519 20.2238 78.2622Z" fill="url(#paint0_linear_101:1375)"/>
<defs>
<linearGradient id="paint0_linear_101:1375" x1="23.798" y1="-22.2341" x2="118.378" y2="11.0898" gradientUnits="userSpaceOnUse">
<stop stop-color="#516BAE"/>
<stop offset="1" stop-color="#4869A7"/>
</linearGradient>
</defs>
</svg>
