<svg width="73" height="65" viewBox="0 0 73 65" fill="none" xmlns="http://www.w3.org/2000/svg">
<circle cx="11.5723" cy="27.4779" r="11.35" fill="#5C49DF"/>
<g clip-path="url(#clip0)">
<path d="M70.7031 10.8354C70.7031 8.41898 70.291 6.0476 69.478 3.78673C69.1945 2.99873 68.321 2.5666 67.5309 2.8246C66.4083 3.19098 64.996 2.52985 63.5013 1.82985C62.0775 1.16298 60.4635 0.407227 58.7643 0.407227C57.065 0.407227 55.4509 1.16298 54.027 1.82973C52.5324 2.5296 51.1206 3.19073 49.9974 2.82448C49.207 2.56698 48.3335 2.99873 48.0504 3.78685C47.2375 6.04735 46.8252 8.41885 46.8252 10.8354C46.8252 11.1885 46.8371 11.5379 46.8549 11.885C43.8276 10.6519 40.5195 9.96973 37.0545 9.96973C22.6836 9.96973 10.992 21.6614 10.992 36.0322C10.992 39.3182 11.606 42.4626 12.721 45.3606L10.8344 47.2472C10.1176 47.9641 10.1176 49.1306 10.8344 49.8476L24.8555 63.8686C25.2028 64.216 25.6646 64.4072 26.1558 64.4072C26.6469 64.4072 27.1086 64.216 27.456 63.8686L30.1581 61.1665C32.3556 61.7705 34.6678 62.0947 37.0544 62.0947C39.441 62.0947 41.7531 61.7705 43.9506 61.1665L46.6527 63.8685C47 64.2159 47.4619 64.4071 47.953 64.4071C48.4441 64.4071 48.9059 64.2159 49.2533 63.8685L54.6227 58.499C54.9889 58.1329 54.9889 57.5392 54.6227 57.1732C54.2565 56.8071 53.663 56.8071 53.2969 57.1732L47.953 62.5171L43.0631 57.6272L57.0331 43.6574L61.9229 48.5472L56.3904 54.0796C56.0243 54.4457 56.0243 55.0393 56.3904 55.4053C56.7566 55.7715 57.3501 55.7715 57.7163 55.4053L63.2743 49.8474C63.6215 49.5 63.8129 49.0382 63.8129 48.5471C63.8129 48.0559 63.6216 47.5941 63.2743 47.2469L61.3877 45.3604C62.5028 42.4624 63.1167 39.318 63.1167 36.032C63.1167 32.869 62.5474 29.8374 61.5105 27.0302C67.4586 23.2397 70.7031 17.5639 70.7031 10.8354ZM26.1559 62.5172L12.1859 48.5474L17.0756 43.6576L31.0456 57.6275L26.1559 62.5172ZM35.8175 26.0031H37.6679L39.4144 27.7496C39.7576 28.093 39.9409 28.5495 39.9301 29.0351C39.9195 29.5202 39.7155 29.9689 39.3559 30.2981C38.6711 30.9247 37.5524 30.8729 36.862 30.1822L30.6648 23.985C29.9776 23.2977 29.9776 22.1797 30.6646 21.4925C30.9233 21.234 31.2429 21.0742 31.5774 21.0107C31.575 21.0549 31.5706 21.0985 31.5706 21.1431V21.7562C31.5706 24.098 33.4758 26.0031 35.8175 26.0031ZM33.4456 21.7562V21.1431C33.4456 20.8455 33.6879 20.6034 33.9854 20.6034H38.8063C39.4356 20.6034 40.0033 20.9375 40.3158 21.4565L37.6439 24.1284H35.8175C34.5096 24.1281 33.4456 23.0641 33.4456 21.7562ZM36.3034 32.2752C36.6399 32.6117 36.8231 33.0592 36.8195 33.5352C36.8158 34.0112 36.6254 34.4559 36.2836 34.7871C35.5966 35.4529 34.4873 35.4442 33.811 34.7677L26.8465 27.8032H26.8464C26.5135 27.4704 26.3301 27.0277 26.3301 26.557C26.3301 26.0862 26.5135 25.6436 26.8465 25.3107C27.1793 24.9779 27.6219 24.7946 28.0928 24.7946C28.5635 24.7946 29.0061 24.9779 29.3389 25.3107L36.3034 32.2752ZM31.2385 34.847C31.5751 35.1836 31.7584 35.6311 31.7546 36.1071C31.751 36.5831 31.5606 37.0276 31.2188 37.359C30.5318 38.0249 29.4225 38.016 28.7461 37.3396L24.1968 32.7902L23.0281 31.6216C22.6953 31.2887 22.512 30.8461 22.512 30.3754C22.512 29.9046 22.6953 29.462 23.0281 29.1291C23.3718 28.7855 23.8231 28.6137 24.2745 28.6137C24.7256 28.6137 25.1769 28.7854 25.5204 29.1287L25.5208 29.1291L31.2385 34.847ZM22.8696 34.1147L25.9165 37.1616C26.2526 37.4981 26.4358 37.9454 26.432 38.4209C26.4283 38.8969 26.2379 39.3415 25.8961 39.6727C25.209 40.3385 24.0999 40.3298 23.4235 39.6534L20.3784 36.6082C19.6913 35.921 19.6913 34.803 20.3783 34.1157C20.7219 33.7721 21.1733 33.6004 21.6246 33.6004C22.0754 33.6006 22.5261 33.772 22.8696 34.1147ZM24.6703 42.0382C25.5846 42.0382 26.4996 41.6991 27.2011 41.0192C27.7045 40.5313 28.0476 39.9241 28.2064 39.2595C28.7579 39.5685 29.3751 39.7242 29.9929 39.7242C30.9073 39.7242 31.8221 39.3851 32.5236 38.7052C33.0559 38.1895 33.4099 37.5405 33.555 36.8311C34.0305 37.0448 34.5439 37.1525 35.0576 37.1525C35.972 37.1525 36.887 36.8134 37.5885 36.1335C38.294 35.4497 38.6868 34.5322 38.6944 33.5499C38.6969 33.2246 38.6563 32.906 38.5766 32.5998C39.3176 32.5221 40.0359 32.2176 40.6219 31.6811C41.3625 31.0031 41.7825 30.0781 41.8046 29.0766C41.8266 28.0746 41.4485 27.1325 40.74 26.424L39.3699 25.0539L42.3625 22.0612C43.05 21.3742 44.168 21.3741 44.855 22.0612C45.5414 22.7476 45.5421 23.864 44.8575 24.5514C44.8567 24.5521 44.856 24.5529 44.8551 24.5537C44.489 24.9199 44.489 25.5135 44.8553 25.8795C45.2213 26.2456 45.8149 26.2455 46.181 25.8795C46.868 25.1924 47.9862 25.1924 48.6732 25.8795C49.3596 26.5659 49.3604 27.6822 48.6756 28.3696C48.6749 28.3704 48.6741 28.3711 48.6734 28.372H48.6732C48.3071 28.7381 48.3071 29.3317 48.6732 29.6977C49.0394 30.0639 49.633 30.0639 49.999 29.6977C50.332 29.3647 50.7745 29.1815 51.2454 29.1815C51.7161 29.1815 52.1588 29.3647 52.4915 29.6976C53.1787 30.3849 53.1787 31.503 52.4915 32.1901C52.1254 32.5562 52.1254 33.1498 52.4915 33.5159C52.8576 33.882 53.4512 33.882 53.8172 33.5159C54.1582 33.175 54.608 32.9912 55.0934 33C55.575 33.008 56.0221 33.2069 56.3522 33.5599C56.9935 34.2452 56.952 35.3661 56.2598 36.0584L49.5332 42.7849C49.1671 43.151 49.1671 43.7446 49.5332 44.1106C49.8995 44.4767 50.493 44.4767 50.8591 44.1106L52.5 42.4704L54.0344 44.0047L44.0853 53.9538L38.7048 48.5734C39.47 48.3054 40.2848 48.1767 41.1071 48.2074L42.8913 48.2732C44.4629 48.3324 46.0137 47.9492 47.3807 47.1681C47.8304 46.9112 47.9866 46.3385 47.7296 45.889C47.4728 45.4394 46.8999 45.2832 46.4506 45.54C45.3876 46.1474 44.1795 46.4449 42.9606 46.3994L41.1765 46.3335C38.8444 46.246 36.5599 47.1442 34.9096 48.7945L29.8871 53.817L20.2468 44.1767L22.8623 41.5612C23.4191 41.8786 24.0444 42.0382 24.6703 42.0382ZM37.0545 60.2197C35.2165 60.2197 33.4273 60.0096 31.7058 59.619L32.3971 58.9276C32.7444 58.5803 32.9358 58.1185 32.9358 57.6273C32.9358 57.1361 32.7445 56.6744 32.3971 56.3271L31.213 55.143L36.2356 50.1203C36.4651 49.8907 36.7111 49.6809 36.9698 49.4897L42.7595 55.2795L41.7119 56.3271C40.9953 57.044 40.9953 58.2105 41.712 58.9275L42.4034 59.6189C40.6817 60.0096 38.8925 60.2197 37.0545 60.2197ZM61.242 36.0322C61.242 38.7855 60.7788 41.4324 59.9274 43.9001L58.3335 42.3062C57.9862 41.9589 57.5244 41.7676 57.0332 41.7676C56.5421 41.7676 56.0803 41.9589 55.733 42.3062L55.3602 42.679L53.8259 41.1446L57.5861 37.3843C58.9852 35.9851 59.0464 33.6949 57.7221 32.2792C57.0418 31.5517 56.1194 31.142 55.1251 31.1254C55.0421 31.1239 54.9593 31.1254 54.8769 31.1295C54.927 30.1372 54.574 29.1281 53.8179 28.3719C53.1309 27.6849 52.2174 27.3065 51.2459 27.3065C51.1831 27.3065 51.1206 27.3081 51.0585 27.3112C51.1086 26.319 50.7557 25.3097 49.9995 24.5536C49.2428 23.7969 48.2337 23.4445 47.2401 23.4947C47.2909 22.5019 46.9379 21.492 46.1811 20.7354C44.9739 19.5281 43.1225 19.3492 41.7234 20.1975C41.0521 19.2955 39.9826 18.7284 38.8065 18.7284H33.9856C33.4683 18.7284 32.9895 18.8934 32.596 19.1715C31.4519 18.9532 30.2231 19.2827 29.339 20.1666C28.5828 20.9229 28.2301 21.932 28.2804 22.9244C28.2181 22.9212 28.1556 22.9195 28.0929 22.9195C27.1213 22.9195 26.2078 23.2979 25.5209 23.9849C24.8338 24.6719 24.4554 25.5854 24.4554 26.557C24.4554 26.6197 24.4571 26.6822 24.4603 26.7445C23.468 26.6942 22.4589 27.047 21.7026 27.8032C21.0155 28.4902 20.6373 29.4037 20.6373 30.3754C20.6373 30.871 20.7363 31.3512 20.9239 31.7942C20.2379 31.928 19.5831 32.2598 19.0528 32.7901C17.6346 34.2084 17.6346 36.516 19.0528 37.9342L21.4455 40.327L18.9213 42.8512L18.3763 42.3062C18.029 41.9589 17.5671 41.7676 17.076 41.7676C16.5849 41.7676 16.1231 41.9589 15.7759 42.3062L14.182 43.9001C13.3308 41.4324 12.8675 38.7855 12.8675 36.0322C12.8675 22.6952 23.718 11.8447 37.055 11.8447C40.6304 11.8447 44.0256 12.6271 47.0824 14.0257C48.0656 20.048 51.8717 25.0081 58.0489 28.1981C58.273 28.3139 58.5189 28.3719 58.7648 28.3719C59.0105 28.3719 59.2564 28.314 59.4803 28.1982C59.6109 28.1307 59.7381 28.0609 59.8665 27.9919C60.7559 30.5086 61.242 33.2145 61.242 36.0322ZM58.7643 26.4567C55.6618 24.8294 53.2208 22.7312 51.5073 20.2185C49.6446 17.4867 48.7001 14.3299 48.7001 10.8354C48.7001 8.73248 49.0428 6.66773 49.7192 4.6931C51.4447 5.10935 53.1602 4.3061 54.822 3.52785C56.1299 2.91548 57.4821 2.28223 58.7643 2.28223C60.0463 2.28223 61.3985 2.91548 62.7062 3.52785C64.3681 4.30623 66.0837 5.10948 67.8091 4.6931C68.4855 6.6676 68.8281 8.7326 68.8281 10.8354C68.8281 14.3299 67.8836 17.4867 66.021 20.2185C64.3076 22.7311 61.8666 24.8294 58.7643 26.4567Z" fill="black"/>
<path d="M65.2337 12.0524C65.7279 11.8978 66.003 11.3718 65.8484 10.8777C64.8744 7.76568 62.0275 5.6748 58.7642 5.6748C54.6716 5.6748 51.3419 9.00443 51.3419 13.0971C51.3419 17.1897 54.6716 20.5193 58.7642 20.5193C61.8009 20.5193 64.501 18.7003 65.643 15.885C65.8376 15.4053 65.6065 14.8586 65.1266 14.6639C64.6466 14.4691 64.1 14.7004 63.9054 15.1802C63.0517 17.2844 61.0336 18.6442 58.7641 18.6442C55.7052 18.6442 53.2167 16.1557 53.2167 13.0969C53.2167 10.0382 55.7052 7.54968 58.7641 7.54968C61.2032 7.54968 63.331 9.11218 64.0589 11.4377C64.2136 11.9319 64.7401 12.2071 65.2337 12.0524Z" fill="black"/>
<path d="M61.2208 10.8176L58.3258 13.7127L56.3075 11.6944C55.9413 11.3283 55.3478 11.3283 54.9816 11.6944C54.6155 12.0606 54.6155 12.6542 54.9816 13.0202L57.6628 15.7013C57.8459 15.8843 58.0859 15.9759 58.3258 15.9759C58.5656 15.9759 58.8056 15.8844 58.9888 15.7013L62.5468 12.1433C62.9129 11.7772 62.9129 11.1836 62.5468 10.8176C62.1805 10.4514 61.587 10.4514 61.2208 10.8176Z" fill="black"/>
</g>
<defs>
<clipPath id="clip0">
<rect width="64" height="64" fill="white" transform="translate(8.5 0.407227)"/>
</clipPath>
</defs>
</svg>
