<svg width="73" height="65" viewBox="0 0 73 65" fill="none" xmlns="http://www.w3.org/2000/svg">
<circle cx="11.5723" cy="46.7455" r="11.35" fill="#5C49DF"/>
<path d="M68.777 4.99121L65.909 3.27021C64.514 2.43321 62.917 1.99121 61.291 1.99121H52.5C51.397 1.99121 50.5 2.88821 50.5 3.99121C50.5 4.72321 50.712 5.40021 51.056 5.99121H46.5C44.846 5.99121 43.5 7.33721 43.5 8.99121C43.5 9.34321 43.572 9.67721 43.684 9.99121H40.5C38.846 9.99121 37.5 11.3372 37.5 12.9912V16.4122C33.398 17.6522 30.5 21.4902 30.5 25.8312C30.5 30.2022 33.435 34.0922 37.636 35.2922L41.715 36.4572C43.355 36.9262 44.5 38.4452 44.5 40.1512C44.5 42.2692 42.777 43.9912 40.66 43.9912H40.34C38.223 43.9912 36.5 42.2682 36.5 40.1512V39.9912C36.5 38.3372 35.154 36.9912 33.5 36.9912C31.846 36.9912 30.5 38.3372 30.5 39.9912V40.1512C30.5 42.3082 31.217 44.3402 32.44 45.9912H29.944C30.288 45.4002 30.5 44.7232 30.5 43.9912C30.5 42.8882 29.603 41.9912 28.5 41.9912H19.709C18.083 41.9912 16.486 42.4332 15.09 43.2702L12.223 44.9912H9.5V60.9912H12.223L15.091 62.7122C16.486 63.5492 18.083 63.9912 19.709 63.9912H32.5C34.154 63.9912 35.5 62.6452 35.5 60.9912C35.5 60.5962 35.419 60.2212 35.28 59.8752C36.555 59.5292 37.5 58.3742 37.5 56.9912C37.5 56.6392 37.428 56.3052 37.316 55.9912H40.5C42.154 55.9912 43.5 54.6452 43.5 52.9912V49.5702C47.602 48.3302 50.5 44.4922 50.5 40.1512C50.5 35.7802 47.565 31.8902 43.364 30.6902L39.285 29.5252C37.645 29.0562 36.5 27.5372 36.5 25.8312C36.5 23.7132 38.223 21.9912 40.34 21.9912H40.659C42.777 21.9912 44.499 23.7142 44.499 25.8312V25.9912C44.499 27.6452 45.845 28.9912 47.499 28.9912C49.153 28.9912 50.499 27.6452 50.499 25.9912V25.8312C50.499 25.2042 50.432 24.5902 50.316 23.9912H61.289C62.915 23.9912 64.512 23.5492 65.908 22.7122L68.777 20.9912H71.5V4.99121H68.777ZM35.5 56.9912C35.5 57.5422 35.051 57.9912 34.5 57.9912H32.5H22.5V59.9912H32.5C33.051 59.9912 33.5 60.4402 33.5 60.9912C33.5 61.5422 33.051 61.9912 32.5 61.9912H19.709C18.445 61.9912 17.204 61.6472 16.12 60.9972L12.777 58.9912H11.5V46.9912H12.777L16.12 44.9852C17.204 44.3352 18.445 43.9912 19.709 43.9912H28.5C28.5 45.0942 27.603 45.9912 26.5 45.9912H22.5H22.086L20.55 47.5272C19.606 48.4712 18.35 48.9912 17.015 48.9912H15.5V50.9912H17.015C18.885 50.9912 20.642 50.2632 21.965 48.9412L22.915 47.9912H26.5H34.424C35.336 48.6832 36.37 49.2282 37.5 49.5702V49.9912H22.5V51.9912H37.5V52.9912C37.5 53.3432 37.572 53.6772 37.684 53.9912H34.5H22.5V55.9912H34.5C35.051 55.9912 35.5 56.4402 35.5 56.9912ZM48.5 25.9912C48.5 26.5422 48.051 26.9912 47.5 26.9912C46.949 26.9912 46.5 26.5422 46.5 25.9912V25.8312C46.5 22.6112 43.88 19.9912 40.66 19.9912H40.34C37.12 19.9912 34.5 22.6112 34.5 25.8312C34.5 28.4252 36.242 30.7352 38.735 31.4472L42.814 32.6122C46.162 33.5692 48.5 36.6682 48.5 40.1512C48.5 43.8282 45.889 47.0522 42.292 47.8182L41.5 47.9862V52.9912C41.5 53.5422 41.051 53.9912 40.5 53.9912C39.949 53.9912 39.5 53.5422 39.5 52.9912V47.9862L38.708 47.8182C35.111 47.0522 32.5 43.8282 32.5 40.1512V39.9912C32.5 39.4402 32.949 38.9912 33.5 38.9912C34.051 38.9912 34.5 39.4402 34.5 39.9912V40.1512C34.5 43.3712 37.12 45.9912 40.34 45.9912H40.659C43.879 45.9912 46.499 43.3712 46.499 40.1512C46.499 37.5572 44.757 35.2472 42.264 34.5352L38.185 33.3702C34.838 32.4132 32.5 29.3142 32.5 25.8312C32.5 22.1542 35.111 18.9302 38.708 18.1642L39.5 17.9962V12.9912C39.5 12.4402 39.949 11.9912 40.5 11.9912C41.051 11.9912 41.5 12.4402 41.5 12.9912V17.9962L42.292 18.1642C45.889 18.9302 48.5 22.1542 48.5 25.8312V25.9912ZM69.5 18.9912H68.223L64.88 20.9972C63.796 21.6472 62.555 21.9912 61.291 21.9912H49.71C49.405 21.2802 49.018 20.6092 48.561 19.9912H58.5V17.9912H46.576C45.664 17.2992 44.63 16.7542 43.5 16.4122V15.9912H58.5V13.9912H43.5V12.9912C43.5 12.6392 43.428 12.3052 43.316 11.9912H46.5H58.5V9.99121H46.5C45.949 9.99121 45.5 9.54221 45.5 8.99121C45.5 8.44021 45.949 7.99121 46.5 7.99121H54.5H58.086L59.036 8.94121C60.358 10.2632 62.116 10.9912 63.986 10.9912H65.5V8.99121H63.985C62.65 8.99121 61.394 8.47121 60.449 7.52721L58.914 5.99121H58.5H54.5C53.397 5.99121 52.5 5.09421 52.5 3.99121H61.291C62.555 3.99121 63.796 4.33521 64.88 4.98521L68.223 6.99121H69.5V18.9912Z" fill="black"/>
<path d="M52.5 38.9912H62.5V40.9912H52.5V38.9912Z" fill="black"/>
<path d="M18.5 24.9912H28.5V26.9912H18.5V24.9912Z" fill="black"/>
<path d="M19.4183 31.5762L28.6583 27.7462L29.4243 29.5942L20.1843 33.4242L19.4183 31.5762Z" fill="black"/>
<path d="M19.4177 20.4121L20.1837 18.5641L29.4237 22.3941L28.6577 24.2421L19.4177 20.4121Z" fill="black"/>
<path d="M51.5986 36.3867L60.8386 32.5567L61.6046 34.4047L52.3646 38.2347L51.5986 36.3867Z" fill="black"/>
<path d="M51.6033 43.5986L52.3693 41.7506L61.6093 45.5806L60.8433 47.4286L51.6033 43.5986Z" fill="black"/>
</svg>
