<svg width="69" height="68" viewBox="0 0 69 68" fill="none" xmlns="http://www.w3.org/2000/svg">
<circle cx="56.85" cy="55.7914" r="11.35" fill="#5C49DF"/>
<path d="M31.5 49.2574V51.4414H33.5V49.4414H35.5V46.4414C35.5 44.7874 34.154 43.4414 32.5 43.4414C31.949 43.4414 31.5 42.9934 31.5 42.4414V41.4414H32.5C33.051 41.4414 33.5 41.8894 33.5 42.4414V43.4414H35.5V42.4414C35.5 41.1394 34.661 40.0394 33.5 39.6254V37.4414H31.5V39.4414H29.5V42.4414C29.5 44.0954 30.846 45.4414 32.5 45.4414C33.051 45.4414 33.5 45.8894 33.5 46.4414V47.4414H32.5C31.949 47.4414 31.5 46.9934 31.5 46.4414V45.4414H29.5V46.4414C29.5 47.7434 30.339 48.8434 31.5 49.2574Z" fill="black"/>
<path d="M49.5 18.0474V14.7584C51.442 12.0854 52.813 8.97341 53.48 5.64041L53.62 4.94841L53.015 4.58541C49.587 2.52841 45.665 1.44141 41.669 1.44141H37.5V2.44141C37.5 2.92241 37.511 3.40241 37.529 3.88241C34.467 4.73841 32.012 6.55741 31.9 6.64141L31.369 7.03941L31.53 7.68341C32.204 10.3784 33.578 12.8434 35.5 14.8404V18.0474L32.004 21.7934C28.813 25.2124 26.298 29.1314 24.506 33.4414H23.5V27.4414C23.5 26.3384 22.603 25.4414 21.5 25.4414H3.5C2.397 25.4414 1.5 26.3384 1.5 27.4414V61.4414C1.5 62.5444 2.397 63.4414 3.5 63.4414H53.5C54.51 63.4414 55.338 62.6874 55.472 61.7144C60.365 59.1364 63.5 53.9974 63.5 48.4414C63.5 38.5144 59.77 29.0504 52.996 21.7934L49.5 18.0474ZM41.669 3.44141C45.065 3.44141 48.404 4.30441 51.37 5.94441C50.748 8.63341 49.571 11.1974 47.969 13.4414H41.236C40.194 10.1984 39.608 6.84341 39.514 3.44141H41.669ZM37.5 17.4414V15.4414H47.5V17.4414H37.5ZM37.666 5.93141C37.9 8.47641 38.391 10.9884 39.134 13.4414H36.938C35.42 11.8624 34.288 9.95541 33.653 7.86341C34.427 7.36141 35.934 6.48141 37.666 5.93141ZM26.195 35.4414C23.361 37.4334 21.5 40.7214 21.5 44.4414C21.5 48.1614 23.361 51.4494 26.195 53.4414H17.42C16.979 50.3824 14.559 47.9624 11.5 47.5214V41.3614C14.559 40.9204 16.979 38.5004 17.42 35.4414H26.195ZM7.5 29.4414V27.4414H9.5V29.4414H7.5ZM13.5 31.4414V33.4414H3.5V31.4414H13.5ZM11.5 49.5424C13.456 49.9414 15 51.4854 15.399 53.4414H11.5V49.5424ZM11.5 35.4414H15.399C15 37.3974 13.456 38.9414 11.5 39.3404V35.4414ZM21.5 31.4414V33.4414H19.5V31.4414H21.5ZM17.5 33.4414H15.5V31.4414H17.5V33.4414ZM9.5 35.4414V37.4414H3.5V35.4414H9.5ZM9.5 39.4414V41.4414H3.5V39.4414H9.5ZM9.5 43.4414V45.4414H3.5V43.4414H9.5ZM9.5 47.4414V49.4414H3.5V47.4414H9.5ZM9.5 51.4414V53.4414H3.5V51.4414H9.5ZM9.5 55.4414V57.4414H3.5V55.4414H9.5ZM11.5 55.4414H53.5V57.4414H11.5V55.4414ZM53.5 53.4414H49.601C50 51.4854 51.544 49.9414 53.5 49.5424V53.4414ZM53.5 39.3404C51.544 38.9414 50 37.3974 49.601 35.4414H53.5V39.3404ZM47.58 35.4414C48.021 38.5004 50.441 40.9204 53.5 41.3614V47.5214C50.441 47.9624 48.021 50.3824 47.58 53.4414H38.805C41.639 51.4494 43.5 48.1614 43.5 44.4414C43.5 40.7214 41.639 37.4334 38.805 35.4414H47.58ZM41.5 44.4414C41.5 49.4044 37.462 53.4414 32.5 53.4414C27.538 53.4414 23.5 49.4044 23.5 44.4414C23.5 39.4784 27.538 35.4414 32.5 35.4414C37.462 35.4414 41.5 39.4784 41.5 44.4414ZM21.5 29.4414H11.5V27.4414H21.5V29.4414ZM5.5 27.4414V29.4414H3.5V27.4414H5.5ZM3.5 59.4414H9.5V61.4414H3.5V59.4414ZM11.5 61.4414V59.4414H53.5V61.4414H11.5ZM55.5 59.3894V35.4414C55.5 34.3384 54.603 33.4414 53.5 33.4414H26.677C28.352 29.6534 30.629 26.1984 33.466 23.1584L36.935 19.4414H39.5V25.4414H41.5V19.4414H43.5V27.4414H45.5V19.4414H48.065L51.534 23.1584C57.961 30.0444 61.5 39.0224 61.5 48.4414C61.5 52.8844 59.188 57.0204 55.5 59.3894Z" fill="black"/>
<path d="M43.5 29.4414H45.5V31.4414H43.5V29.4414Z" fill="black"/>
<path d="M39.5 27.4414H41.5V29.4414H39.5V27.4414Z" fill="black"/>
<path d="M61.5 7.44141V5.44141H59.5V7.44141H57.5V9.44141H59.5V11.4414H61.5V9.44141H63.5V7.44141H61.5Z" fill="black"/>
<path d="M3.5 19.4414H5.5V17.4414H7.5V15.4414H5.5V13.4414H3.5V15.4414H1.5V17.4414H3.5V19.4414Z" fill="black"/>
<path d="M19.5 23.4414V21.4414H21.5V19.4414H19.5V17.4414H17.5V19.4414H15.5V21.4414H17.5V23.4414H19.5Z" fill="black"/>
<path d="M13.5 1.44141H15.5V5.44141H13.5V1.44141Z" fill="black"/>
<path d="M15.5 5.44141H19.5V7.44141H15.5V5.44141Z" fill="black"/>
<path d="M13.5 7.44141H15.5V11.4414H13.5V7.44141Z" fill="black"/>
<path d="M9.5 5.44141H13.5V7.44141H9.5V5.44141Z" fill="black"/>
</svg>
