<svg width="1920" height="947" viewBox="0 0 1920 947" fill="none" xmlns="http://www.w3.org/2000/svg">
<g clip-path="url(#clip0)">
<g opacity="0.8">
<g opacity="0.8">
<g opacity="0.8">
<path opacity="0.8" d="M24.2966 730.281H-9.86212V803.565H24.2966V730.281Z" fill="#064072"/>
<path opacity="0.8" d="M80.5428 671.655H46.3842V846.25H80.5428V671.655Z" fill="#064072"/>
<path opacity="0.8" d="M137.046 710.74H102.887V750.339H137.046V710.74Z" fill="#064072"/>
<path opacity="0.8" d="M193.549 614.828H159.39V688.112H193.549V614.828Z" fill="#064072"/>
<path opacity="0.8" d="M250.052 593.485H215.893V700.454H250.052V593.485Z" fill="#064072"/>
<path opacity="0.8" d="M306.555 556.201H272.397V629.485H306.555V556.201Z" fill="#064072"/>
<path opacity="0.8" d="M362.801 593.485H328.643V734.395H362.801V593.485Z" fill="#064072"/>
<path opacity="0.8" d="M419.305 689.396H385.146V728.995H419.305V689.396Z" fill="#064072"/>
<path opacity="0.8" d="M475.808 726.682H441.649V799.965H475.808V726.682Z" fill="#064072"/>
<path opacity="0.8" d="M532.311 714.339H498.152V821.307H532.311V714.339Z" fill="#064072"/>
<path opacity="0.8" d="M588.814 605.828H554.655V712.796H588.814V605.828Z" fill="#064072"/>
<path opacity="0.8" d="M645.06 589.887H610.902V663.17H645.06V589.887Z" fill="#064072"/>
<path opacity="0.8" d="M701.563 565.2H667.405V604.799H701.563V565.2Z" fill="#064072"/>
<path opacity="0.8" d="M758.066 469.29H723.908V610.2H758.066V469.29Z" fill="#064072"/>
<path opacity="0.8" d="M814.57 398.062H780.411V505.031H814.57V398.062Z" fill="#064072"/>
<path opacity="0.8" d="M871.073 456.689H836.914V563.658H871.073V456.689Z" fill="#064072"/>
<path opacity="0.8" d="M927.576 524.317H893.417V597.601H927.576V524.317Z" fill="#064072"/>
<path opacity="0.8" d="M983.822 465.689H949.663V505.288H983.822V465.689Z" fill="#064072"/>
<path opacity="0.8" d="M1040.33 360.778H1006.17V467.746H1040.33V360.778Z" fill="#064072"/>
<path opacity="0.8" d="M1096.83 419.404H1062.67V526.372H1096.83V419.404Z" fill="#064072"/>
<path opacity="0.8" d="M1153.33 499.631H1119.17V572.914H1153.33V499.631Z" fill="#064072"/>
<path opacity="0.8" d="M1209.83 542.316H1175.68V581.915H1209.83V542.316Z" fill="#064072"/>
<path opacity="0.8" d="M1266.08 391.12H1231.92V498.088H1266.08V391.12Z" fill="#064072"/>
<path opacity="0.8" d="M1322.58 400.12H1288.42V473.404H1322.58V400.12Z" fill="#064072"/>
<path opacity="0.8" d="M1379.09 384.179H1344.93V423.778H1379.09V384.179Z" fill="#064072"/>
<path opacity="0.8" d="M1435.59 288.266H1401.43V361.549H1435.59V288.266Z" fill="#064072"/>
<path opacity="0.8" d="M1492.09 266.924H1457.93V407.834H1492.09V266.924Z" fill="#064072"/>
<path opacity="0.8" d="M1548.34 371.835H1514.18V411.434H1548.34V371.835Z" fill="#064072"/>
<path opacity="0.8" d="M1604.84 286.209H1570.68V393.177H1604.84V286.209Z" fill="#064072"/>
<path opacity="0.8" d="M1661.35 252.525H1627.19V325.809H1661.35V252.525Z" fill="#064072"/>
<path opacity="0.8" d="M1717.85 151.213H1683.69V258.181H1717.85V151.213Z" fill="#064072"/>
<path opacity="0.8" d="M1774.35 83.5869H1740.19V190.555H1774.35V83.5869Z" fill="#064072"/>
<path opacity="0.8" d="M1830.6 151.213H1796.44V224.496H1830.6V151.213Z" fill="#064072"/>
<path opacity="0.8" d="M1887.1 151.213H1852.94V190.812H1887.1V151.213Z" fill="#064072"/>
</g>
<g opacity="0.8">
<path opacity="0.8" d="M8.62982 697.11H5.54782V877.619H8.62982V697.11Z" fill="#064072"/>
<path opacity="0.8" d="M65.1329 554.144H62.0509V937.275H65.1329V554.144Z" fill="#064072"/>
<path opacity="0.8" d="M121.636 694.539H118.554V773.479H121.636V694.539Z" fill="#064072"/>
<path opacity="0.8" d="M178.139 581.914H175.057V728.481H178.139V581.914Z" fill="#064072"/>
<path opacity="0.8" d="M234.385 577.286H231.303V825.164H234.385V577.286Z" fill="#064072"/>
<path opacity="0.8" d="M290.889 455.661H287.807V669.855H290.889V455.661Z" fill="#064072"/>
<path opacity="0.8" d="M347.392 492.945H344.31V774.765H347.392V492.945Z" fill="#064072"/>
<path opacity="0.8" d="M403.895 673.197H400.813V752.138H403.895V673.197Z" fill="#064072"/>
<path opacity="0.8" d="M460.398 693.768H457.316V874.276H460.398V693.768Z" fill="#064072"/>
<path opacity="0.8" d="M516.644 698.14H513.562V946.018H516.644V698.14Z" fill="#064072"/>
<path opacity="0.8" d="M573.147 488.574H570.065V770.394H573.147V488.574Z" fill="#064072"/>
<path opacity="0.8" d="M629.65 556.972H626.568V703.539H629.65V556.972Z" fill="#064072"/>
<path opacity="0.8" d="M686.153 549.001H683.071V627.941H686.153V549.001Z" fill="#064072"/>
<path opacity="0.8" d="M742.656 368.75H739.574V751.881H742.656V368.75Z" fill="#064072"/>
<path opacity="0.8" d="M799.16 280.81H796.077V562.63H799.16V280.81Z" fill="#064072"/>
<path opacity="0.8" d="M855.406 407.062H852.324V688.883H855.406V407.062Z" fill="#064072"/>
<path opacity="0.8" d="M911.909 491.402H908.827V671.911H911.909V491.402Z" fill="#064072"/>
<path opacity="0.8" d="M968.412 449.747H965.33V528.688H968.412V449.747Z" fill="#064072"/>
<path opacity="0.8" d="M1024.92 277.209H1021.83V559.029H1024.92V277.209Z" fill="#064072"/>
<path opacity="0.8" d="M1081.42 369.777H1078.34V651.597H1081.42V369.777Z" fill="#064072"/>
<path opacity="0.8" d="M1137.66 466.461H1134.58V613.028H1137.66V466.461Z" fill="#064072"/>
<path opacity="0.8" d="M1194.17 526.115H1191.09V706.624H1194.17V526.115Z" fill="#064072"/>
<path opacity="0.8" d="M1250.67 341.236H1247.59V555.43H1250.67V341.236Z" fill="#064072"/>
<path opacity="0.8" d="M1307.17 367.206H1304.09V513.773H1307.17V367.206Z" fill="#064072"/>
<path opacity="0.8" d="M1363.68 367.978H1360.59V446.918H1363.68V367.978Z" fill="#064072"/>
<path opacity="0.8" d="M1419.92 255.353H1416.84V401.92H1419.92V255.353Z" fill="#064072"/>
<path opacity="0.8" d="M1476.43 166.384H1473.34V583.2H1476.43V166.384Z" fill="#064072"/>
<path opacity="0.8" d="M1532.93 355.635H1529.85V502.202H1532.93V355.635Z" fill="#064072"/>
<path opacity="0.8" d="M1589.43 236.582H1586.35V484.46H1589.43V236.582Z" fill="#064072"/>
<path opacity="0.8" d="M1645.94 219.611H1642.85V366.178H1645.94V219.611Z" fill="#064072"/>
<path opacity="0.8" d="M1702.18 33.7021H1699.1V349.207H1702.18V33.7021Z" fill="#064072"/>
<path opacity="0.8" d="M1758.68 0.0175781H1755.6V214.211H1758.68V0.0175781Z" fill="#064072"/>
<path opacity="0.8" d="M1815.19 118.3H1812.11V400.12H1815.19V118.3Z" fill="#064072"/>
<path opacity="0.8" d="M1871.69 135.014H1868.61V213.954H1871.69V135.014Z" fill="#064072"/>
</g>
</g>
<g opacity="0.8">
<g opacity="0.8">
<path opacity="0.8" d="M24.2966 730.281H-9.86212V803.565H24.2966V730.281Z" fill="url(#paint0_linear)"/>
<path opacity="0.8" d="M80.5428 671.655H46.3842V846.25H80.5428V671.655Z" fill="url(#paint1_linear)"/>
<path opacity="0.8" d="M137.046 710.74H102.887V750.339H137.046V710.74Z" fill="url(#paint2_linear)"/>
<path opacity="0.8" d="M193.549 614.828H159.39V688.112H193.549V614.828Z" fill="url(#paint3_linear)"/>
<path opacity="0.8" d="M250.052 593.485H215.893V700.454H250.052V593.485Z" fill="url(#paint4_linear)"/>
<path opacity="0.8" d="M306.555 556.201H272.397V629.485H306.555V556.201Z" fill="url(#paint5_linear)"/>
<path opacity="0.8" d="M362.801 593.485H328.643V734.395H362.801V593.485Z" fill="url(#paint6_linear)"/>
<path opacity="0.8" d="M419.305 689.396H385.146V728.995H419.305V689.396Z" fill="url(#paint7_linear)"/>
<path opacity="0.8" d="M475.808 726.682H441.649V799.965H475.808V726.682Z" fill="url(#paint8_linear)"/>
<path opacity="0.8" d="M532.311 714.339H498.152V821.307H532.311V714.339Z" fill="url(#paint9_linear)"/>
<path opacity="0.8" d="M588.814 605.828H554.655V712.796H588.814V605.828Z" fill="url(#paint10_linear)"/>
<path opacity="0.8" d="M645.06 589.887H610.902V663.17H645.06V589.887Z" fill="url(#paint11_linear)"/>
<path opacity="0.8" d="M701.563 565.2H667.405V604.799H701.563V565.2Z" fill="url(#paint12_linear)"/>
<path opacity="0.8" d="M758.066 469.29H723.908V610.2H758.066V469.29Z" fill="url(#paint13_linear)"/>
<path opacity="0.8" d="M814.57 398.062H780.411V505.031H814.57V398.062Z" fill="url(#paint14_linear)"/>
<path opacity="0.8" d="M871.073 456.689H836.914V563.658H871.073V456.689Z" fill="url(#paint15_linear)"/>
<path opacity="0.8" d="M927.576 524.317H893.417V597.601H927.576V524.317Z" fill="url(#paint16_linear)"/>
<path opacity="0.8" d="M983.822 465.689H949.663V505.288H983.822V465.689Z" fill="url(#paint17_linear)"/>
<path opacity="0.8" d="M1040.33 360.778H1006.17V467.746H1040.33V360.778Z" fill="url(#paint18_linear)"/>
<path opacity="0.8" d="M1096.83 419.404H1062.67V526.372H1096.83V419.404Z" fill="url(#paint19_linear)"/>
<path opacity="0.8" d="M1153.33 499.631H1119.17V572.914H1153.33V499.631Z" fill="url(#paint20_linear)"/>
<path opacity="0.8" d="M1209.83 542.316H1175.68V581.915H1209.83V542.316Z" fill="url(#paint21_linear)"/>
<path opacity="0.8" d="M1266.08 391.12H1231.92V498.088H1266.08V391.12Z" fill="url(#paint22_linear)"/>
<path opacity="0.8" d="M1322.58 400.12H1288.42V473.404H1322.58V400.12Z" fill="url(#paint23_linear)"/>
<path opacity="0.8" d="M1379.09 384.179H1344.93V423.778H1379.09V384.179Z" fill="url(#paint24_linear)"/>
<path opacity="0.8" d="M1435.59 288.266H1401.43V361.549H1435.59V288.266Z" fill="url(#paint25_linear)"/>
<path opacity="0.8" d="M1492.09 266.924H1457.93V407.834H1492.09V266.924Z" fill="url(#paint26_linear)"/>
<path opacity="0.8" d="M1548.34 371.835H1514.18V411.434H1548.34V371.835Z" fill="url(#paint27_linear)"/>
<path opacity="0.8" d="M1604.84 286.209H1570.68V393.177H1604.84V286.209Z" fill="url(#paint28_linear)"/>
<path opacity="0.8" d="M1661.35 252.525H1627.19V325.809H1661.35V252.525Z" fill="url(#paint29_linear)"/>
<path opacity="0.8" d="M1717.85 151.213H1683.69V258.181H1717.85V151.213Z" fill="url(#paint30_linear)"/>
<path opacity="0.8" d="M1774.35 83.5869H1740.19V190.555H1774.35V83.5869Z" fill="url(#paint31_linear)"/>
<path opacity="0.8" d="M1830.6 151.213H1796.44V224.496H1830.6V151.213Z" fill="url(#paint32_linear)"/>
<path opacity="0.8" d="M1887.1 151.213H1852.94V190.812H1887.1V151.213Z" fill="url(#paint33_linear)"/>
</g>
<g opacity="0.8">
<path opacity="0.8" d="M8.62982 697.11H5.54782V877.619H8.62982V697.11Z" fill="url(#paint34_linear)"/>
<path opacity="0.8" d="M65.1329 554.144H62.0509V937.275H65.1329V554.144Z" fill="url(#paint35_linear)"/>
<path opacity="0.8" d="M121.636 694.539H118.554V773.479H121.636V694.539Z" fill="url(#paint36_linear)"/>
<path opacity="0.8" d="M178.139 581.914H175.057V728.481H178.139V581.914Z" fill="url(#paint37_linear)"/>
<path opacity="0.8" d="M234.385 577.286H231.303V825.164H234.385V577.286Z" fill="url(#paint38_linear)"/>
<path opacity="0.8" d="M290.889 455.661H287.807V669.855H290.889V455.661Z" fill="url(#paint39_linear)"/>
<path opacity="0.8" d="M347.392 492.945H344.31V774.765H347.392V492.945Z" fill="url(#paint40_linear)"/>
<path opacity="0.8" d="M403.895 673.197H400.813V752.138H403.895V673.197Z" fill="url(#paint41_linear)"/>
<path opacity="0.8" d="M460.398 693.768H457.316V874.276H460.398V693.768Z" fill="url(#paint42_linear)"/>
<path opacity="0.8" d="M516.644 698.14H513.562V946.018H516.644V698.14Z" fill="url(#paint43_linear)"/>
<path opacity="0.8" d="M573.147 488.574H570.065V770.394H573.147V488.574Z" fill="url(#paint44_linear)"/>
<path opacity="0.8" d="M629.65 556.972H626.568V703.539H629.65V556.972Z" fill="url(#paint45_linear)"/>
<path opacity="0.8" d="M686.153 549.001H683.071V627.941H686.153V549.001Z" fill="url(#paint46_linear)"/>
<path opacity="0.8" d="M742.656 368.75H739.574V751.881H742.656V368.75Z" fill="url(#paint47_linear)"/>
<path opacity="0.8" d="M799.16 280.81H796.077V562.63H799.16V280.81Z" fill="url(#paint48_linear)"/>
<path opacity="0.8" d="M855.406 407.062H852.324V688.883H855.406V407.062Z" fill="url(#paint49_linear)"/>
<path opacity="0.8" d="M911.909 491.402H908.827V671.911H911.909V491.402Z" fill="url(#paint50_linear)"/>
<path opacity="0.8" d="M968.412 449.747H965.33V528.688H968.412V449.747Z" fill="url(#paint51_linear)"/>
<path opacity="0.8" d="M1024.92 277.209H1021.83V559.029H1024.92V277.209Z" fill="url(#paint52_linear)"/>
<path opacity="0.8" d="M1081.42 369.777H1078.34V651.597H1081.42V369.777Z" fill="url(#paint53_linear)"/>
<path opacity="0.8" d="M1137.66 466.461H1134.58V613.028H1137.66V466.461Z" fill="url(#paint54_linear)"/>
<path opacity="0.8" d="M1194.17 526.115H1191.09V706.624H1194.17V526.115Z" fill="url(#paint55_linear)"/>
<path opacity="0.8" d="M1250.67 341.236H1247.59V555.43H1250.67V341.236Z" fill="url(#paint56_linear)"/>
<path opacity="0.8" d="M1307.17 367.206H1304.09V513.773H1307.17V367.206Z" fill="url(#paint57_linear)"/>
<path opacity="0.8" d="M1363.68 367.978H1360.59V446.918H1363.68V367.978Z" fill="url(#paint58_linear)"/>
<path opacity="0.8" d="M1419.92 255.353H1416.84V401.92H1419.92V255.353Z" fill="url(#paint59_linear)"/>
<path opacity="0.8" d="M1476.43 166.384H1473.34V583.2H1476.43V166.384Z" fill="url(#paint60_linear)"/>
<path opacity="0.8" d="M1532.93 355.635H1529.85V502.202H1532.93V355.635Z" fill="url(#paint61_linear)"/>
<path opacity="0.8" d="M1589.43 236.582H1586.35V484.46H1589.43V236.582Z" fill="url(#paint62_linear)"/>
<path opacity="0.8" d="M1645.94 219.611H1642.85V366.178H1645.94V219.611Z" fill="url(#paint63_linear)"/>
<path opacity="0.8" d="M1702.18 33.7021H1699.1V349.207H1702.18V33.7021Z" fill="url(#paint64_linear)"/>
<path opacity="0.8" d="M1758.68 0.0175781H1755.6V214.211H1758.68V0.0175781Z" fill="url(#paint65_linear)"/>
<path opacity="0.8" d="M1815.19 118.3H1812.11V400.12H1815.19V118.3Z" fill="url(#paint66_linear)"/>
<path opacity="0.8" d="M1871.69 135.014H1868.61V213.954H1871.69V135.014Z" fill="url(#paint67_linear)"/>
</g>
</g>
</g>
<path d="M-203 517.373C-125.693 516.088 -68.4199 850.106 16.0779 848.564C100.576 847.021 197.402 491.66 292.943 490.117C388.485 488.317 422.13 763.966 507.141 762.68C592.153 761.138 626.568 263.324 726.476 261.524C826.384 259.724 815.597 886.105 906.515 884.562C997.434 883.02 1068.83 520.716 1135.35 519.688C1201.87 518.402 1218.31 643.627 1295.87 642.341C1373.44 641.055 1438.67 124.728 1510.84 123.442C1583.01 122.157 1608.95 729.253 1745.84 726.681C1882.99 724.367 1896.35 282.095 1962.61 280.809C2028.87 279.523 2072.53 654.427 2142.39 653.141C2212.25 651.855 2258.74 373.121 2325 371.835" stroke="url(#paint68_linear)" stroke-width="0.75" stroke-miterlimit="10"/>
<path d="M734.438 261.524C734.438 265.895 730.842 269.238 726.733 269.238C722.367 269.238 719.028 265.638 719.028 261.524C719.028 257.153 722.624 253.81 726.733 253.81C730.842 253.553 734.438 257.153 734.438 261.524Z" fill="#007AFF"/>
<path d="M909.34 883.791C909.34 888.162 905.745 891.505 901.635 891.505C897.269 891.505 893.931 887.905 893.931 883.791C893.931 879.419 897.526 876.076 901.635 876.076C905.745 875.819 909.34 879.419 909.34 883.791Z" fill="#007AFF"/>
<path d="M1150.25 521.487C1150.25 525.859 1146.65 529.202 1142.54 529.202C1138.18 529.202 1134.84 525.602 1134.84 521.487C1134.84 517.116 1138.44 513.773 1142.54 513.773C1146.65 513.773 1150.25 517.116 1150.25 521.487Z" fill="#007AFF"/>
<path d="M1296.39 644.398C1296.39 648.769 1292.79 652.112 1288.68 652.112C1284.32 652.112 1280.98 648.512 1280.98 644.398C1280.98 640.026 1284.57 636.684 1288.68 636.684C1292.79 636.684 1296.39 640.026 1296.39 644.398Z" fill="#007AFF"/>
<path d="M1517.26 123.185C1517.26 127.556 1513.67 130.899 1509.56 130.899C1505.19 130.899 1501.85 127.299 1501.85 123.185C1501.85 118.814 1505.45 115.471 1509.56 115.471C1513.92 115.214 1517.26 118.814 1517.26 123.185Z" fill="#007AFF"/>
<path d="M1740.96 734.652C1745.22 734.652 1748.67 731.198 1748.67 726.938C1748.67 722.677 1745.22 719.224 1740.96 719.224C1736.71 719.224 1733.26 722.677 1733.26 726.938C1733.26 731.198 1736.71 734.652 1740.96 734.652Z" fill="#007AFF"/>
<path d="M511.507 762.423C511.507 766.794 507.912 770.137 503.802 770.137C499.436 770.137 496.097 766.537 496.097 762.423C496.097 758.052 499.693 754.709 503.802 754.709C508.169 754.709 511.507 758.309 511.507 762.423Z" fill="#007AFF"/>
<path d="M300.648 488.574C300.648 492.945 297.052 496.288 292.943 496.288C288.577 496.288 285.238 492.688 285.238 488.574C285.238 484.202 288.834 480.86 292.943 480.86C297.052 480.603 300.648 484.202 300.648 488.574Z" fill="#007AFF"/>
<path d="M23.7829 848.821C23.7829 853.192 20.1872 856.535 16.0779 856.535C11.7118 856.535 8.37296 852.935 8.37296 848.821C8.37296 844.449 11.9686 841.107 16.0779 841.107C20.1872 840.85 23.7829 844.449 23.7829 848.821Z" fill="#007AFF"/>
<path d="M734.438 261.524C734.438 265.895 730.842 269.238 726.733 269.238C722.367 269.238 719.028 265.638 719.028 261.524C719.028 257.153 722.624 253.81 726.733 253.81C730.842 253.553 734.438 257.153 734.438 261.524Z" fill="url(#paint69_linear)"/>
<path d="M909.34 883.791C909.34 888.162 905.745 891.505 901.635 891.505C897.269 891.505 893.931 887.905 893.931 883.791C893.931 879.419 897.526 876.076 901.635 876.076C905.745 875.819 909.34 879.419 909.34 883.791Z" fill="url(#paint70_linear)"/>
<path d="M1150.25 521.487C1150.25 525.859 1146.65 529.202 1142.54 529.202C1138.18 529.202 1134.84 525.602 1134.84 521.487C1134.84 517.116 1138.44 513.773 1142.54 513.773C1146.65 513.773 1150.25 517.116 1150.25 521.487Z" fill="url(#paint71_linear)"/>
<path d="M1296.39 644.398C1296.39 648.769 1292.79 652.112 1288.68 652.112C1284.32 652.112 1280.98 648.512 1280.98 644.398C1280.98 640.026 1284.57 636.684 1288.68 636.684C1292.79 636.684 1296.39 640.026 1296.39 644.398Z" fill="url(#paint72_linear)"/>
<path d="M1517.26 123.185C1517.26 127.556 1513.67 130.899 1509.56 130.899C1505.19 130.899 1501.85 127.299 1501.85 123.185C1501.85 118.814 1505.45 115.471 1509.56 115.471C1513.92 115.214 1517.26 118.814 1517.26 123.185Z" fill="url(#paint73_linear)"/>
<path d="M1740.96 734.652C1745.22 734.652 1748.67 731.198 1748.67 726.938C1748.67 722.677 1745.22 719.224 1740.96 719.224C1736.71 719.224 1733.26 722.677 1733.26 726.938C1733.26 731.198 1736.71 734.652 1740.96 734.652Z" fill="url(#paint74_linear)"/>
<path d="M511.507 762.423C511.507 766.794 507.912 770.137 503.802 770.137C499.436 770.137 496.097 766.537 496.097 762.423C496.097 758.052 499.693 754.709 503.802 754.709C508.169 754.709 511.507 758.309 511.507 762.423Z" fill="url(#paint75_linear)"/>
<path d="M300.648 488.574C300.648 492.945 297.052 496.288 292.943 496.288C288.577 496.288 285.238 492.688 285.238 488.574C285.238 484.202 288.834 480.86 292.943 480.86C297.052 480.603 300.648 484.202 300.648 488.574Z" fill="url(#paint76_linear)"/>
<path d="M23.7829 848.821C23.7829 853.192 20.1872 856.535 16.0779 856.535C11.7118 856.535 8.37296 852.935 8.37296 848.821C8.37296 844.449 11.9686 841.107 16.0779 841.107C20.1872 840.85 23.7829 844.449 23.7829 848.821Z" fill="url(#paint77_linear)"/>
</g>
<defs>
<linearGradient id="paint0_linear" x1="-9.96691" y1="473.066" x2="1887.27" y2="473.066" gradientUnits="userSpaceOnUse">
<stop offset="0.00909392" stop-color="#3F008B"/>
<stop offset="0.2484" stop-color="#C902FB"/>
<stop offset="0.5553" stop-color="#00B1FF"/>
<stop offset="0.7493" stop-color="#155FE7"/>
<stop offset="1" stop-color="#191752"/>
</linearGradient>
<linearGradient id="paint1_linear" x1="-9.96685" y1="473.067" x2="1887.26" y2="473.067" gradientUnits="userSpaceOnUse">
<stop offset="0.00909392" stop-color="#3F008B"/>
<stop offset="0.2484" stop-color="#C902FB"/>
<stop offset="0.5553" stop-color="#00B1FF"/>
<stop offset="0.7493" stop-color="#155FE7"/>
<stop offset="1" stop-color="#191752"/>
</linearGradient>
<linearGradient id="paint2_linear" x1="-9.96691" y1="473.067" x2="1887.27" y2="473.067" gradientUnits="userSpaceOnUse">
<stop offset="0.00909392" stop-color="#3F008B"/>
<stop offset="0.2484" stop-color="#C902FB"/>
<stop offset="0.5553" stop-color="#00B1FF"/>
<stop offset="0.7493" stop-color="#155FE7"/>
<stop offset="1" stop-color="#191752"/>
</linearGradient>
<linearGradient id="paint3_linear" x1="-9.96671" y1="473.067" x2="1887.26" y2="473.067" gradientUnits="userSpaceOnUse">
<stop offset="0.00909392" stop-color="#3F008B"/>
<stop offset="0.2484" stop-color="#C902FB"/>
<stop offset="0.5553" stop-color="#00B1FF"/>
<stop offset="0.7493" stop-color="#155FE7"/>
<stop offset="1" stop-color="#191752"/>
</linearGradient>
<linearGradient id="paint4_linear" x1="-9.96665" y1="473.066" x2="1887.26" y2="473.066" gradientUnits="userSpaceOnUse">
<stop offset="0.00909392" stop-color="#3F008B"/>
<stop offset="0.2484" stop-color="#C902FB"/>
<stop offset="0.5553" stop-color="#00B1FF"/>
<stop offset="0.7493" stop-color="#155FE7"/>
<stop offset="1" stop-color="#191752"/>
</linearGradient>
<linearGradient id="paint5_linear" x1="-9.96688" y1="473.066" x2="1887.27" y2="473.066" gradientUnits="userSpaceOnUse">
<stop offset="0.00909392" stop-color="#3F008B"/>
<stop offset="0.2484" stop-color="#C902FB"/>
<stop offset="0.5553" stop-color="#00B1FF"/>
<stop offset="0.7493" stop-color="#155FE7"/>
<stop offset="1" stop-color="#191752"/>
</linearGradient>
<linearGradient id="paint6_linear" x1="-9.96626" y1="473.066" x2="1887.26" y2="473.066" gradientUnits="userSpaceOnUse">
<stop offset="0.00909392" stop-color="#3F008B"/>
<stop offset="0.2484" stop-color="#C902FB"/>
<stop offset="0.5553" stop-color="#00B1FF"/>
<stop offset="0.7493" stop-color="#155FE7"/>
<stop offset="1" stop-color="#191752"/>
</linearGradient>
<linearGradient id="paint7_linear" x1="-9.96687" y1="473.066" x2="1887.27" y2="473.066" gradientUnits="userSpaceOnUse">
<stop offset="0.00909392" stop-color="#3F008B"/>
<stop offset="0.2484" stop-color="#C902FB"/>
<stop offset="0.5553" stop-color="#00B1FF"/>
<stop offset="0.7493" stop-color="#155FE7"/>
<stop offset="1" stop-color="#191752"/>
</linearGradient>
<linearGradient id="paint8_linear" x1="-9.96522" y1="473.066" x2="1887.26" y2="473.066" gradientUnits="userSpaceOnUse">
<stop offset="0.00909392" stop-color="#3F008B"/>
<stop offset="0.2484" stop-color="#C902FB"/>
<stop offset="0.5553" stop-color="#00B1FF"/>
<stop offset="0.7493" stop-color="#155FE7"/>
<stop offset="1" stop-color="#191752"/>
</linearGradient>
<linearGradient id="paint9_linear" x1="-9.96599" y1="473.066" x2="1887.26" y2="473.066" gradientUnits="userSpaceOnUse">
<stop offset="0.00909392" stop-color="#3F008B"/>
<stop offset="0.2484" stop-color="#C902FB"/>
<stop offset="0.5553" stop-color="#00B1FF"/>
<stop offset="0.7493" stop-color="#155FE7"/>
<stop offset="1" stop-color="#191752"/>
</linearGradient>
<linearGradient id="paint10_linear" x1="-9.96686" y1="473.066" x2="1887.27" y2="473.066" gradientUnits="userSpaceOnUse">
<stop offset="0.00909392" stop-color="#3F008B"/>
<stop offset="0.2484" stop-color="#C902FB"/>
<stop offset="0.5553" stop-color="#00B1FF"/>
<stop offset="0.7493" stop-color="#155FE7"/>
<stop offset="1" stop-color="#191752"/>
</linearGradient>
<linearGradient id="paint11_linear" x1="-9.9679" y1="473.067" x2="1887.27" y2="473.067" gradientUnits="userSpaceOnUse">
<stop offset="0.00909392" stop-color="#3F008B"/>
<stop offset="0.2484" stop-color="#C902FB"/>
<stop offset="0.5553" stop-color="#00B1FF"/>
<stop offset="0.7493" stop-color="#155FE7"/>
<stop offset="1" stop-color="#191752"/>
</linearGradient>
<linearGradient id="paint12_linear" x1="-9.96797" y1="473.065" x2="1887.27" y2="473.065" gradientUnits="userSpaceOnUse">
<stop offset="0.00909392" stop-color="#3F008B"/>
<stop offset="0.2484" stop-color="#C902FB"/>
<stop offset="0.5553" stop-color="#00B1FF"/>
<stop offset="0.7493" stop-color="#155FE7"/>
<stop offset="1" stop-color="#191752"/>
</linearGradient>
<linearGradient id="paint13_linear" x1="-9.96816" y1="473.067" x2="1887.27" y2="473.067" gradientUnits="userSpaceOnUse">
<stop offset="0.00909392" stop-color="#3F008B"/>
<stop offset="0.2484" stop-color="#C902FB"/>
<stop offset="0.5553" stop-color="#00B1FF"/>
<stop offset="0.7493" stop-color="#155FE7"/>
<stop offset="1" stop-color="#191752"/>
</linearGradient>
<linearGradient id="paint14_linear" x1="-9.96823" y1="473.066" x2="1887.27" y2="473.066" gradientUnits="userSpaceOnUse">
<stop offset="0.00909392" stop-color="#3F008B"/>
<stop offset="0.2484" stop-color="#C902FB"/>
<stop offset="0.5553" stop-color="#00B1FF"/>
<stop offset="0.7493" stop-color="#155FE7"/>
<stop offset="1" stop-color="#191752"/>
</linearGradient>
<linearGradient id="paint15_linear" x1="-9.96679" y1="473.066" x2="1887.27" y2="473.066" gradientUnits="userSpaceOnUse">
<stop offset="0.00909392" stop-color="#3F008B"/>
<stop offset="0.2484" stop-color="#C902FB"/>
<stop offset="0.5553" stop-color="#00B1FF"/>
<stop offset="0.7493" stop-color="#155FE7"/>
<stop offset="1" stop-color="#191752"/>
</linearGradient>
<linearGradient id="paint16_linear" x1="-9.97004" y1="473.067" x2="1887.27" y2="473.067" gradientUnits="userSpaceOnUse">
<stop offset="0.00909392" stop-color="#3F008B"/>
<stop offset="0.2484" stop-color="#C902FB"/>
<stop offset="0.5553" stop-color="#00B1FF"/>
<stop offset="0.7493" stop-color="#155FE7"/>
<stop offset="1" stop-color="#191752"/>
</linearGradient>
<linearGradient id="paint17_linear" x1="-9.96692" y1="473.066" x2="1887.27" y2="473.066" gradientUnits="userSpaceOnUse">
<stop offset="0.00909392" stop-color="#3F008B"/>
<stop offset="0.2484" stop-color="#C902FB"/>
<stop offset="0.5553" stop-color="#00B1FF"/>
<stop offset="0.7493" stop-color="#155FE7"/>
<stop offset="1" stop-color="#191752"/>
</linearGradient>
<linearGradient id="paint18_linear" x1="-9.97053" y1="473.066" x2="1887.27" y2="473.066" gradientUnits="userSpaceOnUse">
<stop offset="0.00909392" stop-color="#3F008B"/>
<stop offset="0.2484" stop-color="#C902FB"/>
<stop offset="0.5553" stop-color="#00B1FF"/>
<stop offset="0.7493" stop-color="#155FE7"/>
<stop offset="1" stop-color="#191752"/>
</linearGradient>
<linearGradient id="paint19_linear" x1="-9.96692" y1="473.065" x2="1887.27" y2="473.065" gradientUnits="userSpaceOnUse">
<stop offset="0.00909392" stop-color="#3F008B"/>
<stop offset="0.2484" stop-color="#C902FB"/>
<stop offset="0.5553" stop-color="#00B1FF"/>
<stop offset="0.7493" stop-color="#155FE7"/>
<stop offset="1" stop-color="#191752"/>
</linearGradient>
<linearGradient id="paint20_linear" x1="-9.96689" y1="473.066" x2="1887.27" y2="473.066" gradientUnits="userSpaceOnUse">
<stop offset="0.00909392" stop-color="#3F008B"/>
<stop offset="0.2484" stop-color="#C902FB"/>
<stop offset="0.5553" stop-color="#00B1FF"/>
<stop offset="0.7493" stop-color="#155FE7"/>
<stop offset="1" stop-color="#191752"/>
</linearGradient>
<linearGradient id="paint21_linear" x1="-9.96698" y1="473.067" x2="1887.27" y2="473.067" gradientUnits="userSpaceOnUse">
<stop offset="0.00909392" stop-color="#3F008B"/>
<stop offset="0.2484" stop-color="#C902FB"/>
<stop offset="0.5553" stop-color="#00B1FF"/>
<stop offset="0.7493" stop-color="#155FE7"/>
<stop offset="1" stop-color="#191752"/>
</linearGradient>
<linearGradient id="paint22_linear" x1="-9.96697" y1="473.066" x2="1887.27" y2="473.066" gradientUnits="userSpaceOnUse">
<stop offset="0.00909392" stop-color="#3F008B"/>
<stop offset="0.2484" stop-color="#C902FB"/>
<stop offset="0.5553" stop-color="#00B1FF"/>
<stop offset="0.7493" stop-color="#155FE7"/>
<stop offset="1" stop-color="#191752"/>
</linearGradient>
<linearGradient id="paint23_linear" x1="-9.96682" y1="473.066" x2="1887.27" y2="473.066" gradientUnits="userSpaceOnUse">
<stop offset="0.00909392" stop-color="#3F008B"/>
<stop offset="0.2484" stop-color="#C902FB"/>
<stop offset="0.5553" stop-color="#00B1FF"/>
<stop offset="0.7493" stop-color="#155FE7"/>
<stop offset="1" stop-color="#191752"/>
</linearGradient>
<linearGradient id="paint24_linear" x1="-9.96679" y1="473.067" x2="1887.27" y2="473.067" gradientUnits="userSpaceOnUse">
<stop offset="0.00909392" stop-color="#3F008B"/>
<stop offset="0.2484" stop-color="#C902FB"/>
<stop offset="0.5553" stop-color="#00B1FF"/>
<stop offset="0.7493" stop-color="#155FE7"/>
<stop offset="1" stop-color="#191752"/>
</linearGradient>
<linearGradient id="paint25_linear" x1="-9.96693" y1="473.066" x2="1887.27" y2="473.066" gradientUnits="userSpaceOnUse">
<stop offset="0.00909392" stop-color="#3F008B"/>
<stop offset="0.2484" stop-color="#C902FB"/>
<stop offset="0.5553" stop-color="#00B1FF"/>
<stop offset="0.7493" stop-color="#155FE7"/>
<stop offset="1" stop-color="#191752"/>
</linearGradient>
<linearGradient id="paint26_linear" x1="-9.96678" y1="473.066" x2="1887.27" y2="473.066" gradientUnits="userSpaceOnUse">
<stop offset="0.00909392" stop-color="#3F008B"/>
<stop offset="0.2484" stop-color="#C902FB"/>
<stop offset="0.5553" stop-color="#00B1FF"/>
<stop offset="0.7493" stop-color="#155FE7"/>
<stop offset="1" stop-color="#191752"/>
</linearGradient>
<linearGradient id="paint27_linear" x1="-9.97791" y1="473.066" x2="1887.27" y2="473.066" gradientUnits="userSpaceOnUse">
<stop offset="0.00909392" stop-color="#3F008B"/>
<stop offset="0.2484" stop-color="#C902FB"/>
<stop offset="0.5553" stop-color="#00B1FF"/>
<stop offset="0.7493" stop-color="#155FE7"/>
<stop offset="1" stop-color="#191752"/>
</linearGradient>
<linearGradient id="paint28_linear" x1="-9.97252" y1="473.066" x2="1887.27" y2="473.066" gradientUnits="userSpaceOnUse">
<stop offset="0.00909392" stop-color="#3F008B"/>
<stop offset="0.2484" stop-color="#C902FB"/>
<stop offset="0.5553" stop-color="#00B1FF"/>
<stop offset="0.7493" stop-color="#155FE7"/>
<stop offset="1" stop-color="#191752"/>
</linearGradient>
<linearGradient id="paint29_linear" x1="-9.97268" y1="473.067" x2="1887.27" y2="473.067" gradientUnits="userSpaceOnUse">
<stop offset="0.00909392" stop-color="#3F008B"/>
<stop offset="0.2484" stop-color="#C902FB"/>
<stop offset="0.5553" stop-color="#00B1FF"/>
<stop offset="0.7493" stop-color="#155FE7"/>
<stop offset="1" stop-color="#191752"/>
</linearGradient>
<linearGradient id="paint30_linear" x1="-9.97915" y1="473.066" x2="1887.27" y2="473.066" gradientUnits="userSpaceOnUse">
<stop offset="0.00909392" stop-color="#3F008B"/>
<stop offset="0.2484" stop-color="#C902FB"/>
<stop offset="0.5553" stop-color="#00B1FF"/>
<stop offset="0.7493" stop-color="#155FE7"/>
<stop offset="1" stop-color="#191752"/>
</linearGradient>
<linearGradient id="paint31_linear" x1="-9.97315" y1="473.066" x2="1887.27" y2="473.066" gradientUnits="userSpaceOnUse">
<stop offset="0.00909392" stop-color="#3F008B"/>
<stop offset="0.2484" stop-color="#C902FB"/>
<stop offset="0.5553" stop-color="#00B1FF"/>
<stop offset="0.7493" stop-color="#155FE7"/>
<stop offset="1" stop-color="#191752"/>
</linearGradient>
<linearGradient id="paint32_linear" x1="-9.96688" y1="473.066" x2="1887.27" y2="473.066" gradientUnits="userSpaceOnUse">
<stop offset="0.00909392" stop-color="#3F008B"/>
<stop offset="0.2484" stop-color="#C902FB"/>
<stop offset="0.5553" stop-color="#00B1FF"/>
<stop offset="0.7493" stop-color="#155FE7"/>
<stop offset="1" stop-color="#191752"/>
</linearGradient>
<linearGradient id="paint33_linear" x1="-9.95342" y1="473.066" x2="1887.27" y2="473.066" gradientUnits="userSpaceOnUse">
<stop offset="0.00909392" stop-color="#3F008B"/>
<stop offset="0.2484" stop-color="#C902FB"/>
<stop offset="0.5553" stop-color="#00B1FF"/>
<stop offset="0.7493" stop-color="#155FE7"/>
<stop offset="1" stop-color="#191752"/>
</linearGradient>
<linearGradient id="paint34_linear" x1="-9.96697" y1="473.066" x2="1887.27" y2="473.066" gradientUnits="userSpaceOnUse">
<stop offset="0.00909392" stop-color="#3F008B"/>
<stop offset="0.2484" stop-color="#C902FB"/>
<stop offset="0.5553" stop-color="#00B1FF"/>
<stop offset="0.7493" stop-color="#155FE7"/>
<stop offset="1" stop-color="#191752"/>
</linearGradient>
<linearGradient id="paint35_linear" x1="-9.96795" y1="473.066" x2="1887.29" y2="473.066" gradientUnits="userSpaceOnUse">
<stop offset="0.00909392" stop-color="#3F008B"/>
<stop offset="0.2484" stop-color="#C902FB"/>
<stop offset="0.5553" stop-color="#00B1FF"/>
<stop offset="0.7493" stop-color="#155FE7"/>
<stop offset="1" stop-color="#191752"/>
</linearGradient>
<linearGradient id="paint36_linear" x1="-9.96747" y1="473.066" x2="1887.27" y2="473.066" gradientUnits="userSpaceOnUse">
<stop offset="0.00909392" stop-color="#3F008B"/>
<stop offset="0.2484" stop-color="#C902FB"/>
<stop offset="0.5553" stop-color="#00B1FF"/>
<stop offset="0.7493" stop-color="#155FE7"/>
<stop offset="1" stop-color="#191752"/>
</linearGradient>
<linearGradient id="paint37_linear" x1="-9.9677" y1="473.066" x2="1887.27" y2="473.066" gradientUnits="userSpaceOnUse">
<stop offset="0.00909392" stop-color="#3F008B"/>
<stop offset="0.2484" stop-color="#C902FB"/>
<stop offset="0.5553" stop-color="#00B1FF"/>
<stop offset="0.7493" stop-color="#155FE7"/>
<stop offset="1" stop-color="#191752"/>
</linearGradient>
<linearGradient id="paint38_linear" x1="-9.96552" y1="473.066" x2="1887.26" y2="473.066" gradientUnits="userSpaceOnUse">
<stop offset="0.00909392" stop-color="#3F008B"/>
<stop offset="0.2484" stop-color="#C902FB"/>
<stop offset="0.5553" stop-color="#00B1FF"/>
<stop offset="0.7493" stop-color="#155FE7"/>
<stop offset="1" stop-color="#191752"/>
</linearGradient>
<linearGradient id="paint39_linear" x1="-9.96816" y1="473.066" x2="1887.27" y2="473.066" gradientUnits="userSpaceOnUse">
<stop offset="0.00909392" stop-color="#3F008B"/>
<stop offset="0.2484" stop-color="#C902FB"/>
<stop offset="0.5553" stop-color="#00B1FF"/>
<stop offset="0.7493" stop-color="#155FE7"/>
<stop offset="1" stop-color="#191752"/>
</linearGradient>
<linearGradient id="paint40_linear" x1="-9.95782" y1="473.066" x2="1887.23" y2="473.066" gradientUnits="userSpaceOnUse">
<stop offset="0.00909392" stop-color="#3F008B"/>
<stop offset="0.2484" stop-color="#C902FB"/>
<stop offset="0.5553" stop-color="#00B1FF"/>
<stop offset="0.7493" stop-color="#155FE7"/>
<stop offset="1" stop-color="#191752"/>
</linearGradient>
<linearGradient id="paint41_linear" x1="-9.96459" y1="473.066" x2="1887.26" y2="473.066" gradientUnits="userSpaceOnUse">
<stop offset="0.00909392" stop-color="#3F008B"/>
<stop offset="0.2484" stop-color="#C902FB"/>
<stop offset="0.5553" stop-color="#00B1FF"/>
<stop offset="0.7493" stop-color="#155FE7"/>
<stop offset="1" stop-color="#191752"/>
</linearGradient>
<linearGradient id="paint42_linear" x1="-9.97356" y1="473.065" x2="1887.29" y2="473.065" gradientUnits="userSpaceOnUse">
<stop offset="0.00909392" stop-color="#3F008B"/>
<stop offset="0.2484" stop-color="#C902FB"/>
<stop offset="0.5553" stop-color="#00B1FF"/>
<stop offset="0.7493" stop-color="#155FE7"/>
<stop offset="1" stop-color="#191752"/>
</linearGradient>
<linearGradient id="paint43_linear" x1="-9.97442" y1="473.066" x2="1887.28" y2="473.066" gradientUnits="userSpaceOnUse">
<stop offset="0.00909392" stop-color="#3F008B"/>
<stop offset="0.2484" stop-color="#C902FB"/>
<stop offset="0.5553" stop-color="#00B1FF"/>
<stop offset="0.7493" stop-color="#155FE7"/>
<stop offset="1" stop-color="#191752"/>
</linearGradient>
<linearGradient id="paint44_linear" x1="-9.96368" y1="473.066" x2="1887.26" y2="473.066" gradientUnits="userSpaceOnUse">
<stop offset="0.00909392" stop-color="#3F008B"/>
<stop offset="0.2484" stop-color="#C902FB"/>
<stop offset="0.5553" stop-color="#00B1FF"/>
<stop offset="0.7493" stop-color="#155FE7"/>
<stop offset="1" stop-color="#191752"/>
</linearGradient>
<linearGradient id="paint45_linear" x1="-9.97601" y1="473.065" x2="1887.28" y2="473.065" gradientUnits="userSpaceOnUse">
<stop offset="0.00909392" stop-color="#3F008B"/>
<stop offset="0.2484" stop-color="#C902FB"/>
<stop offset="0.5553" stop-color="#00B1FF"/>
<stop offset="0.7493" stop-color="#155FE7"/>
<stop offset="1" stop-color="#191752"/>
</linearGradient>
<linearGradient id="paint46_linear" x1="-9.97678" y1="473.066" x2="1887.28" y2="473.066" gradientUnits="userSpaceOnUse">
<stop offset="0.00909392" stop-color="#3F008B"/>
<stop offset="0.2484" stop-color="#C902FB"/>
<stop offset="0.5553" stop-color="#00B1FF"/>
<stop offset="0.7493" stop-color="#155FE7"/>
<stop offset="1" stop-color="#191752"/>
</linearGradient>
<linearGradient id="paint47_linear" x1="-9.97762" y1="473.067" x2="1887.28" y2="473.067" gradientUnits="userSpaceOnUse">
<stop offset="0.00909392" stop-color="#3F008B"/>
<stop offset="0.2484" stop-color="#C902FB"/>
<stop offset="0.5553" stop-color="#00B1FF"/>
<stop offset="0.7493" stop-color="#155FE7"/>
<stop offset="1" stop-color="#191752"/>
</linearGradient>
<linearGradient id="paint48_linear" x1="-9.97846" y1="473.066" x2="1887.28" y2="473.066" gradientUnits="userSpaceOnUse">
<stop offset="0.00909392" stop-color="#3F008B"/>
<stop offset="0.2484" stop-color="#C902FB"/>
<stop offset="0.5553" stop-color="#00B1FF"/>
<stop offset="0.7493" stop-color="#155FE7"/>
<stop offset="1" stop-color="#191752"/>
</linearGradient>
<linearGradient id="paint49_linear" x1="-9.9792" y1="473.066" x2="1887.28" y2="473.066" gradientUnits="userSpaceOnUse">
<stop offset="0.00909392" stop-color="#3F008B"/>
<stop offset="0.2484" stop-color="#C902FB"/>
<stop offset="0.5553" stop-color="#00B1FF"/>
<stop offset="0.7493" stop-color="#155FE7"/>
<stop offset="1" stop-color="#191752"/>
</linearGradient>
<linearGradient id="paint50_linear" x1="-9.94349" y1="473.066" x2="1887.24" y2="473.066" gradientUnits="userSpaceOnUse">
<stop offset="0.00909392" stop-color="#3F008B"/>
<stop offset="0.2484" stop-color="#C902FB"/>
<stop offset="0.5553" stop-color="#00B1FF"/>
<stop offset="0.7493" stop-color="#155FE7"/>
<stop offset="1" stop-color="#191752"/>
</linearGradient>
<linearGradient id="paint51_linear" x1="-9.98078" y1="473.066" x2="1887.28" y2="473.066" gradientUnits="userSpaceOnUse">
<stop offset="0.00909392" stop-color="#3F008B"/>
<stop offset="0.2484" stop-color="#C902FB"/>
<stop offset="0.5553" stop-color="#00B1FF"/>
<stop offset="0.7493" stop-color="#155FE7"/>
<stop offset="1" stop-color="#191752"/>
</linearGradient>
<linearGradient id="paint52_linear" x1="-9.98157" y1="473.066" x2="1887.28" y2="473.066" gradientUnits="userSpaceOnUse">
<stop offset="0.00909392" stop-color="#3F008B"/>
<stop offset="0.2484" stop-color="#C902FB"/>
<stop offset="0.5553" stop-color="#00B1FF"/>
<stop offset="0.7493" stop-color="#155FE7"/>
<stop offset="1" stop-color="#191752"/>
</linearGradient>
<linearGradient id="paint53_linear" x1="-9.93923" y1="473.065" x2="1887.25" y2="473.065" gradientUnits="userSpaceOnUse">
<stop offset="0.00909392" stop-color="#3F008B"/>
<stop offset="0.2484" stop-color="#C902FB"/>
<stop offset="0.5553" stop-color="#00B1FF"/>
<stop offset="0.7493" stop-color="#155FE7"/>
<stop offset="1" stop-color="#191752"/>
</linearGradient>
<linearGradient id="paint54_linear" x1="-9.98338" y1="473.066" x2="1887.28" y2="473.066" gradientUnits="userSpaceOnUse">
<stop offset="0.00909392" stop-color="#3F008B"/>
<stop offset="0.2484" stop-color="#C902FB"/>
<stop offset="0.5553" stop-color="#00B1FF"/>
<stop offset="0.7493" stop-color="#155FE7"/>
<stop offset="1" stop-color="#191752"/>
</linearGradient>
<linearGradient id="paint55_linear" x1="-9.98404" y1="473.065" x2="1887.28" y2="473.065" gradientUnits="userSpaceOnUse">
<stop offset="0.00909392" stop-color="#3F008B"/>
<stop offset="0.2484" stop-color="#C902FB"/>
<stop offset="0.5553" stop-color="#00B1FF"/>
<stop offset="0.7493" stop-color="#155FE7"/>
<stop offset="1" stop-color="#191752"/>
</linearGradient>
<linearGradient id="paint56_linear" x1="-9.98493" y1="473.066" x2="1887.27" y2="473.066" gradientUnits="userSpaceOnUse">
<stop offset="0.00909392" stop-color="#3F008B"/>
<stop offset="0.2484" stop-color="#C902FB"/>
<stop offset="0.5553" stop-color="#00B1FF"/>
<stop offset="0.7493" stop-color="#155FE7"/>
<stop offset="1" stop-color="#191752"/>
</linearGradient>
<linearGradient id="paint57_linear" x1="-9.98584" y1="473.065" x2="1887.27" y2="473.065" gradientUnits="userSpaceOnUse">
<stop offset="0.00909392" stop-color="#3F008B"/>
<stop offset="0.2484" stop-color="#C902FB"/>
<stop offset="0.5553" stop-color="#00B1FF"/>
<stop offset="0.7493" stop-color="#155FE7"/>
<stop offset="1" stop-color="#191752"/>
</linearGradient>
<linearGradient id="paint58_linear" x1="-9.98661" y1="473.066" x2="1887.27" y2="473.066" gradientUnits="userSpaceOnUse">
<stop offset="0.00909392" stop-color="#3F008B"/>
<stop offset="0.2484" stop-color="#C902FB"/>
<stop offset="0.5553" stop-color="#00B1FF"/>
<stop offset="0.7493" stop-color="#155FE7"/>
<stop offset="1" stop-color="#191752"/>
</linearGradient>
<linearGradient id="paint59_linear" x1="-9.98741" y1="473.066" x2="1887.27" y2="473.066" gradientUnits="userSpaceOnUse">
<stop offset="0.00909392" stop-color="#3F008B"/>
<stop offset="0.2484" stop-color="#C902FB"/>
<stop offset="0.5553" stop-color="#00B1FF"/>
<stop offset="0.7493" stop-color="#155FE7"/>
<stop offset="1" stop-color="#191752"/>
</linearGradient>
<linearGradient id="paint60_linear" x1="-9.98807" y1="473.066" x2="1887.27" y2="473.066" gradientUnits="userSpaceOnUse">
<stop offset="0.00909392" stop-color="#3F008B"/>
<stop offset="0.2484" stop-color="#C902FB"/>
<stop offset="0.5553" stop-color="#00B1FF"/>
<stop offset="0.7493" stop-color="#155FE7"/>
<stop offset="1" stop-color="#191752"/>
</linearGradient>
<linearGradient id="paint61_linear" x1="-9.98909" y1="473.065" x2="1887.27" y2="473.065" gradientUnits="userSpaceOnUse">
<stop offset="0.00909392" stop-color="#3F008B"/>
<stop offset="0.2484" stop-color="#C902FB"/>
<stop offset="0.5553" stop-color="#00B1FF"/>
<stop offset="0.7493" stop-color="#155FE7"/>
<stop offset="1" stop-color="#191752"/>
</linearGradient>
<linearGradient id="paint62_linear" x1="-9.98975" y1="473.066" x2="1887.27" y2="473.066" gradientUnits="userSpaceOnUse">
<stop offset="0.00909392" stop-color="#3F008B"/>
<stop offset="0.2484" stop-color="#C902FB"/>
<stop offset="0.5553" stop-color="#00B1FF"/>
<stop offset="0.7493" stop-color="#155FE7"/>
<stop offset="1" stop-color="#191752"/>
</linearGradient>
<linearGradient id="paint63_linear" x1="-9.99052" y1="473.066" x2="1887.27" y2="473.066" gradientUnits="userSpaceOnUse">
<stop offset="0.00909392" stop-color="#3F008B"/>
<stop offset="0.2484" stop-color="#C902FB"/>
<stop offset="0.5553" stop-color="#00B1FF"/>
<stop offset="0.7493" stop-color="#155FE7"/>
<stop offset="1" stop-color="#191752"/>
</linearGradient>
<linearGradient id="paint64_linear" x1="-9.99131" y1="473.066" x2="1887.27" y2="473.066" gradientUnits="userSpaceOnUse">
<stop offset="0.00909392" stop-color="#3F008B"/>
<stop offset="0.2484" stop-color="#C902FB"/>
<stop offset="0.5553" stop-color="#00B1FF"/>
<stop offset="0.7493" stop-color="#155FE7"/>
<stop offset="1" stop-color="#191752"/>
</linearGradient>
<linearGradient id="paint65_linear" x1="-9.99222" y1="473.066" x2="1887.27" y2="473.066" gradientUnits="userSpaceOnUse">
<stop offset="0.00909392" stop-color="#3F008B"/>
<stop offset="0.2484" stop-color="#C902FB"/>
<stop offset="0.5553" stop-color="#00B1FF"/>
<stop offset="0.7493" stop-color="#155FE7"/>
<stop offset="1" stop-color="#191752"/>
</linearGradient>
<linearGradient id="paint66_linear" x1="-9.99299" y1="473.066" x2="1887.27" y2="473.066" gradientUnits="userSpaceOnUse">
<stop offset="0.00909392" stop-color="#3F008B"/>
<stop offset="0.2484" stop-color="#C902FB"/>
<stop offset="0.5553" stop-color="#00B1FF"/>
<stop offset="0.7493" stop-color="#155FE7"/>
<stop offset="1" stop-color="#191752"/>
</linearGradient>
<linearGradient id="paint67_linear" x1="-9.99365" y1="473.066" x2="1887.27" y2="473.066" gradientUnits="userSpaceOnUse">
<stop offset="0.00909392" stop-color="#3F008B"/>
<stop offset="0.2484" stop-color="#C902FB"/>
<stop offset="0.5553" stop-color="#00B1FF"/>
<stop offset="0.7493" stop-color="#155FE7"/>
<stop offset="1" stop-color="#191752"/>
</linearGradient>
<linearGradient id="paint68_linear" x1="-202.78" y1="528.768" x2="2326.95" y2="484.036" gradientUnits="userSpaceOnUse">
<stop offset="0.1087" stop-color="#FF00FF"/>
<stop offset="0.3891" stop-color="#007AFF"/>
<stop offset="0.6126" stop-color="#67EDFF"/>
<stop offset="1" stop-color="#007AFF"/>
</linearGradient>
<linearGradient id="paint69_linear" x1="8.11954" y1="503.396" x2="2151.27" y2="503.396" gradientUnits="userSpaceOnUse">
<stop offset="0.1087" stop-color="#FF00FF"/>
<stop offset="0.3891" stop-color="#007AFF"/>
<stop offset="0.6126" stop-color="#67EDFF"/>
<stop offset="1" stop-color="#007AFF"/>
</linearGradient>
<linearGradient id="paint70_linear" x1="8.11972" y1="503.395" x2="2151.27" y2="503.395" gradientUnits="userSpaceOnUse">
<stop offset="0.1087" stop-color="#FF00FF"/>
<stop offset="0.3891" stop-color="#007AFF"/>
<stop offset="0.6126" stop-color="#67EDFF"/>
<stop offset="1" stop-color="#007AFF"/>
</linearGradient>
<linearGradient id="paint71_linear" x1="8.12026" y1="503.396" x2="2151.27" y2="503.396" gradientUnits="userSpaceOnUse">
<stop offset="0.1087" stop-color="#FF00FF"/>
<stop offset="0.3891" stop-color="#007AFF"/>
<stop offset="0.6126" stop-color="#67EDFF"/>
<stop offset="1" stop-color="#007AFF"/>
</linearGradient>
<linearGradient id="paint72_linear" x1="8.11028" y1="503.395" x2="2151.28" y2="503.395" gradientUnits="userSpaceOnUse">
<stop offset="0.1087" stop-color="#FF00FF"/>
<stop offset="0.3891" stop-color="#007AFF"/>
<stop offset="0.6126" stop-color="#67EDFF"/>
<stop offset="1" stop-color="#007AFF"/>
</linearGradient>
<linearGradient id="paint73_linear" x1="8.12061" y1="503.396" x2="2151.27" y2="503.396" gradientUnits="userSpaceOnUse">
<stop offset="0.1087" stop-color="#FF00FF"/>
<stop offset="0.3891" stop-color="#007AFF"/>
<stop offset="0.6126" stop-color="#67EDFF"/>
<stop offset="1" stop-color="#007AFF"/>
</linearGradient>
<linearGradient id="paint74_linear" x1="8.12111" y1="503.395" x2="2151.27" y2="503.395" gradientUnits="userSpaceOnUse">
<stop offset="0.1087" stop-color="#FF00FF"/>
<stop offset="0.3891" stop-color="#007AFF"/>
<stop offset="0.6126" stop-color="#67EDFF"/>
<stop offset="1" stop-color="#007AFF"/>
</linearGradient>
<linearGradient id="paint75_linear" x1="8.11722" y1="503.397" x2="2151.28" y2="503.397" gradientUnits="userSpaceOnUse">
<stop offset="0.1087" stop-color="#FF00FF"/>
<stop offset="0.3891" stop-color="#007AFF"/>
<stop offset="0.6126" stop-color="#67EDFF"/>
<stop offset="1" stop-color="#007AFF"/>
</linearGradient>
<linearGradient id="paint76_linear" x1="8.11825" y1="503.396" x2="2151.27" y2="503.396" gradientUnits="userSpaceOnUse">
<stop offset="0.1087" stop-color="#FF00FF"/>
<stop offset="0.3891" stop-color="#007AFF"/>
<stop offset="0.6126" stop-color="#67EDFF"/>
<stop offset="1" stop-color="#007AFF"/>
</linearGradient>
<linearGradient id="paint77_linear" x1="8.11843" y1="503.396" x2="2151.27" y2="503.396" gradientUnits="userSpaceOnUse">
<stop offset="0.1087" stop-color="#FF00FF"/>
<stop offset="0.3891" stop-color="#007AFF"/>
<stop offset="0.6126" stop-color="#67EDFF"/>
<stop offset="1" stop-color="#007AFF"/>
</linearGradient>
<clipPath id="clip0">
<rect width="2528" height="946" fill="white" transform="translate(-203 0.0175781)"/>
</clipPath>
</defs>
</svg>
