<svg width="80" height="80" viewBox="0 0 80 80" fill="none" xmlns="http://www.w3.org/2000/svg">
<circle cx="61.25" cy="65.0002" r="13.2424" fill="#5C49DF"/>
<path d="M77.5 19.9997H71.7675L53.3838 1.61598C53.1493 1.38164 52.8315 1.25 52.5 1.25C52.1685 1.25 51.8507 1.38164 51.6162 1.61598L33.2325 19.9997H2.5C2.16848 19.9997 1.85054 20.1314 1.61612 20.3658C1.3817 20.6003 1.25 20.9182 1.25 21.2497V58.7497C1.25 59.0812 1.3817 59.3992 1.61612 59.6336C1.85054 59.868 2.16848 59.9997 2.5 59.9997H8.2325L26.6162 78.3835C26.8507 78.6178 27.1685 78.7495 27.5 78.7495C27.8315 78.7495 28.1493 78.6178 28.3838 78.3835L46.7675 59.9997H48.455C47.6346 62.0846 47.3361 64.3384 47.5854 66.565C47.8348 68.7915 48.6245 70.9235 49.8857 72.7752C51.147 74.627 52.8417 76.1424 54.8223 77.1898C56.803 78.2372 59.0095 78.7847 61.25 78.7847C63.4905 78.7847 65.6971 78.2372 67.6777 77.1898C69.6583 76.1424 71.353 74.627 72.6143 72.7752C73.8755 70.9235 74.6652 68.7915 74.9146 66.565C75.1639 64.3384 74.8654 62.0846 74.045 59.9997H77.5C77.8315 59.9997 78.1495 59.868 78.3839 59.6336C78.6183 59.3992 78.75 59.0812 78.75 58.7497V21.2497C78.75 20.9182 78.6183 20.6003 78.3839 20.3658C78.1495 20.1314 77.8315 19.9997 77.5 19.9997ZM52.5 4.26723L68.2325 19.9997H64.2675L53.3838 9.11598C53.1493 8.88164 52.8315 8.75 52.5 8.75C52.1685 8.75 51.8507 8.88164 51.6162 9.11598L40.7325 19.9997H36.7675L52.5 4.26723ZM60.7325 19.9997H44.2675L52.5 11.7672L60.7325 19.9997ZM27.5 75.7322L11.7675 59.9997H15.7325L26.6162 70.8835C26.8507 71.1178 27.1685 71.2495 27.5 71.2495C27.8315 71.2495 28.1493 71.1178 28.3838 70.8835L39.2675 59.9997H43.2325L27.5 75.7322ZM19.2675 59.9997H35.7325L27.5 68.2322L19.2675 59.9997ZM61.25 76.2497C59.025 76.2497 56.8499 75.5899 54.9998 74.3538C53.1498 73.1176 51.7078 71.3606 50.8564 69.3049C50.0049 67.2492 49.7821 64.9872 50.2162 62.805C50.6502 60.6227 51.7217 58.6181 53.2951 57.0448C54.8684 55.4714 56.8729 54.4 59.0552 53.9659C61.2375 53.5318 63.4995 53.7546 65.5552 54.6061C67.6109 55.4576 69.3679 56.8995 70.604 58.7496C71.8402 60.5996 72.5 62.7747 72.5 64.9997C72.4967 67.9824 71.3104 70.842 69.2013 72.951C67.0922 75.0601 64.2327 76.2464 61.25 76.2497ZM76.25 57.4997H72.76C72.1603 56.5863 71.4546 55.7472 70.6575 54.9997H72.5C72.8315 54.9997 73.1495 54.868 73.3839 54.6336C73.6183 54.3992 73.75 54.0812 73.75 53.7497V26.2497C73.75 25.9182 73.6183 25.6003 73.3839 25.3658C73.1495 25.1314 72.8315 24.9997 72.5 24.9997H55V27.4997H71.25V52.4997H66.945C63.9551 51.126 60.5704 50.8753 57.4107 51.7935C54.2511 52.7118 51.5279 54.7375 49.74 57.4997H3.75V22.4997H76.25V57.4997Z" fill="black"/>
<path d="M37.5 48.75H38.75V50H41.25V48.75H42.5C43.4946 48.75 44.4484 48.3549 45.1516 47.6516C45.8549 46.9484 46.25 45.9946 46.25 45V42.5C46.25 41.5054 45.8549 40.5516 45.1516 39.8483C44.4484 39.1451 43.4946 38.75 42.5 38.75H41.25V33.75H42.5C42.8315 33.75 43.1495 33.8817 43.3839 34.1161C43.6183 34.3505 43.75 34.6685 43.75 35V36.25H46.25V35C46.25 34.0054 45.8549 33.0516 45.1516 32.3483C44.4484 31.6451 43.4946 31.25 42.5 31.25H41.25V30H38.75V31.25H37.5C36.5054 31.25 35.5516 31.6451 34.8483 32.3483C34.1451 33.0516 33.75 34.0054 33.75 35V37.5C33.75 38.4946 34.1451 39.4484 34.8483 40.1516C35.5516 40.8549 36.5054 41.25 37.5 41.25H38.75V46.25H37.5C37.1685 46.25 36.8505 46.1183 36.6161 45.8839C36.3817 45.6495 36.25 45.3315 36.25 45V43.75H33.75V45C33.75 45.9946 34.1451 46.9484 34.8483 47.6516C35.5516 48.3549 36.5054 48.75 37.5 48.75ZM37.5 38.75C37.1685 38.75 36.8505 38.6183 36.6161 38.3839C36.3817 38.1495 36.25 37.8315 36.25 37.5V35C36.25 34.6685 36.3817 34.3505 36.6161 34.1161C36.8505 33.8817 37.1685 33.75 37.5 33.75H38.75V38.75H37.5ZM41.25 41.25H42.5C42.8315 41.25 43.1495 41.3817 43.3839 41.6161C43.6183 41.8505 43.75 42.1685 43.75 42.5V45C43.75 45.3315 43.6183 45.6495 43.3839 45.8839C43.1495 46.1183 42.8315 46.25 42.5 46.25H41.25V41.25Z" fill="black"/>
<path d="M40 53.75C42.7195 53.75 45.3779 52.9436 47.6391 51.4327C49.9003 49.9218 51.6626 47.7744 52.7033 45.2619C53.744 42.7494 54.0163 39.9848 53.4858 37.3175C52.9552 34.6503 51.6457 32.2003 49.7227 30.2773C47.7997 28.3543 45.3497 27.0448 42.6825 26.5142C40.0152 25.9837 37.2506 26.256 34.7381 27.2967C32.2256 28.3374 30.0782 30.0997 28.5673 32.3609C27.0564 34.6221 26.25 37.2805 26.25 40C26.2543 43.6454 27.7043 47.1403 30.282 49.718C32.8597 52.2957 36.3546 53.7457 40 53.75ZM40 28.75C42.225 28.75 44.4001 29.4098 46.2502 30.646C48.1002 31.8821 49.5421 33.6391 50.3936 35.6948C51.2451 37.7505 51.4679 40.0125 51.0338 42.1948C50.5997 44.3771 49.5283 46.3816 47.9549 47.955C46.3816 49.5283 44.377 50.5998 42.1948 51.0338C40.0125 51.4679 37.7505 51.2451 35.6948 50.3936C33.6391 49.5422 31.8821 48.1002 30.646 46.2502C29.4098 44.4001 28.75 42.225 28.75 40C28.7533 37.0173 29.9396 34.1578 32.0487 32.0487C34.1578 29.9396 37.0173 28.7533 40 28.75Z" fill="black"/>
<path d="M63.75 56.25H62.5V55H60V56.25H58.75C57.7554 56.25 56.8016 56.6451 56.0984 57.3484C55.3951 58.0516 55 59.0054 55 60V62.5C55 63.4946 55.3951 64.4484 56.0984 65.1516C56.8016 65.8549 57.7554 66.25 58.75 66.25H60V71.25H58.75C58.4185 71.25 58.1005 71.1183 57.8661 70.8839C57.6317 70.6495 57.5 70.3315 57.5 70V68.75H55V70C55 70.9946 55.3951 71.9484 56.0984 72.6516C56.8016 73.3549 57.7554 73.75 58.75 73.75H60V75H62.5V73.75H63.75C64.7446 73.75 65.6984 73.3549 66.4016 72.6516C67.1049 71.9484 67.5 70.9946 67.5 70V67.5C67.5 66.5054 67.1049 65.5516 66.4016 64.8484C65.6984 64.1451 64.7446 63.75 63.75 63.75H62.5V58.75H63.75C64.0815 58.75 64.3995 58.8817 64.6339 59.1161C64.8683 59.3505 65 59.6685 65 60V61.25H67.5V60C67.5 59.0054 67.1049 58.0516 66.4016 57.3484C65.6984 56.6451 64.7446 56.25 63.75 56.25ZM63.75 66.25C64.0815 66.25 64.3995 66.3817 64.6339 66.6161C64.8683 66.8505 65 67.1685 65 67.5V70C65 70.3315 64.8683 70.6495 64.6339 70.8839C64.3995 71.1183 64.0815 71.25 63.75 71.25H62.5V66.25H63.75ZM60 63.75H58.75C58.4185 63.75 58.1005 63.6183 57.8661 63.3839C57.6317 63.1495 57.5 62.8315 57.5 62.5V60C57.5 59.6685 57.6317 59.3505 57.8661 59.1161C58.1005 58.8817 58.4185 58.75 58.75 58.75H60V63.75Z" fill="black"/>
<path d="M7.5 55H25V52.5H8.75V27.5H25V25H7.5C7.16848 25 6.85054 25.1317 6.61612 25.3661C6.3817 25.6005 6.25 25.9185 6.25 26.25V53.75C6.25 54.0815 6.3817 54.3995 6.61612 54.6339C6.85054 54.8683 7.16848 55 7.5 55Z" fill="black"/>
<path d="M12.5 36.25C12.1685 36.25 11.8505 36.3817 11.6161 36.6161C11.3817 36.8505 11.25 37.1685 11.25 37.5V42.5C11.25 42.8315 11.3817 43.1495 11.6161 43.3839C11.8505 43.6183 12.1685 43.75 12.5 43.75H22.5C22.8315 43.75 23.1495 43.6183 23.3839 43.3839C23.6183 43.1495 23.75 42.8315 23.75 42.5V37.5C23.75 37.1685 23.6183 36.8505 23.3839 36.6161C23.1495 36.3817 22.8315 36.25 22.5 36.25H12.5ZM21.25 41.25H13.75V38.75H21.25V41.25Z" fill="black"/>
<path d="M57.5 43.75H67.5C67.8315 43.75 68.1495 43.6183 68.3839 43.3839C68.6183 43.1495 68.75 42.8315 68.75 42.5V37.5C68.75 37.1685 68.6183 36.8505 68.3839 36.6161C68.1495 36.3817 67.8315 36.25 67.5 36.25H57.5C57.1685 36.25 56.8505 36.3817 56.6161 36.6161C56.3817 36.8505 56.25 37.1685 56.25 37.5V42.5C56.25 42.8315 56.3817 43.1495 56.6161 43.3839C56.8505 43.6183 57.1685 43.75 57.5 43.75ZM58.75 38.75H66.25V41.25H58.75V38.75Z" fill="black"/>
</svg>
