<svg width="80" height="80" viewBox="0 0 80 80" fill="none" xmlns="http://www.w3.org/2000/svg">
<g clip-path="url(#clip0)">
<circle cx="63.5365" cy="29.4075" r="13.2424" fill="#5C49DF"/>
<path d="M72.4102 11.1718H58.0891V6.47104C58.0891 5.82421 57.5649 5.2998 56.9179 5.2998C56.2709 5.2998 55.7466 5.82421 55.7466 6.47104V11.1718H50.8951C50.2481 11.1718 49.7238 11.6962 49.7238 12.343C49.7238 12.9898 50.2481 13.5142 50.8951 13.5142H55.7466V18.4737H54.8676C53.6401 18.4737 52.6415 19.4724 52.6415 20.6997V34.4881C52.6415 35.7156 53.6401 36.7141 54.8676 36.7141H55.7466V46.006C55.7466 46.6529 56.2709 47.1773 56.9179 47.1773C57.5649 47.1773 58.0891 46.6529 58.0891 46.006V36.7141H58.9682C60.1955 36.7141 61.1941 35.7154 61.1941 34.4881V20.6997C61.1941 19.4722 60.1955 18.4737 58.9682 18.4737H58.0891V13.5142H72.4102C75.2245 13.5142 77.5143 15.8039 77.5143 18.6183V58.7051H2.48566V18.6185C2.48566 15.8041 4.77535 13.5144 7.58976 13.5144H28.1211V15.8002H27.242C26.0146 15.8002 25.016 16.7988 25.016 18.0261V31.8146C25.016 33.042 26.0147 34.0405 27.242 34.0405H28.1211V44.3901C28.1211 45.0369 28.6455 45.5613 29.2923 45.5613C29.9391 45.5613 30.4635 45.0369 30.4635 44.3901V34.0405H31.3426C32.57 34.0405 33.5686 33.0419 33.5686 31.8146V18.0261C33.5686 16.7987 32.5699 15.8002 31.3426 15.8002H30.4635V13.5142H35.3151C35.962 13.5142 36.4864 12.9898 36.4864 12.343C36.4864 11.6962 35.962 11.1718 35.3151 11.1718H30.4635V10.5933C30.4635 9.94649 29.9391 9.42209 29.2923 9.42209C28.6455 9.42209 28.1211 9.94649 28.1211 10.5933V11.1718H7.58976C3.48371 11.1718 0.143188 14.5123 0.143188 18.6183V59.8763C0.143188 63.9823 3.48371 67.3229 7.58976 67.3229H25.4189V73.2781L21.644 77.6569H20.1456C19.4987 77.6569 18.9743 78.1813 18.9743 78.8281C18.9743 79.475 19.4987 79.9994 20.1456 79.9994H59.7463C60.3933 79.9994 60.9176 79.475 60.9176 78.8281C60.9176 78.1813 60.3933 77.6569 59.7463 77.6569H58.3558L54.5809 73.2781V67.3229H72.4102C76.5163 67.3229 79.8568 63.9823 79.8568 59.8763V18.6185C79.8568 14.5124 76.5163 11.1718 72.4102 11.1718ZM58.8517 34.3719H54.9841V20.8163H58.8518V34.3719H58.8517ZM31.2261 31.6981H27.3584V18.1426H31.2261V31.6981ZM72.4102 64.9804H48.7058C48.0588 64.9804 47.5346 65.5048 47.5346 66.1516C47.5346 66.7985 48.0588 67.3229 48.7058 67.3229H52.2384V72.542H49.3209C48.6739 72.542 48.1497 73.0665 48.1497 73.7133C48.1497 74.3601 48.6739 74.8845 49.3209 74.8845H52.8729L55.263 77.6569H24.7368L27.1269 74.8845H30.6789C31.3257 74.8845 31.8501 74.3601 31.8501 73.7133C31.8501 73.0665 31.3257 72.542 30.6789 72.542H27.7614V67.3229H43.7143C44.3613 67.3229 44.8855 66.7985 44.8855 66.1516C44.8855 65.5048 44.3613 64.9804 43.7143 64.9804H7.58976C5.17841 64.9804 3.15374 63.2991 2.62278 61.0475H77.377C76.8462 63.2991 74.8216 64.9804 72.4102 64.9804Z" fill="black"/>
<path d="M12.3743 34.1942C11.7275 34.1942 11.2031 34.7186 11.2031 35.3654V38.1929C11.2031 39.4204 12.2016 40.4189 13.429 40.4189H14.3081V46.6563C14.3081 47.3031 14.8325 47.8275 15.4793 47.8275C16.1262 47.8275 16.6506 47.3031 16.6506 46.6563V40.4189H17.5296C18.7571 40.4189 19.7556 39.4204 19.7556 38.1929V24.4045C19.7556 23.1771 18.7569 22.1784 17.5296 22.1784H16.6506V20.305C16.6506 19.6582 16.1262 19.1338 15.4793 19.1338C14.8325 19.1338 14.3081 19.6582 14.3081 20.305V22.1784H13.429C12.2016 22.1784 11.2031 23.1771 11.2031 24.4045V30.3741C11.2031 31.0209 11.7275 31.5453 12.3743 31.5453C13.0211 31.5453 13.5455 31.0209 13.5455 30.3741V24.521H15.4779H15.4795C15.4795 24.521 15.4804 24.521 15.481 24.521H17.4134V38.0766H13.5455V35.3656C13.5455 34.7186 13.0211 34.1942 12.3743 34.1942Z" fill="black"/>
<path d="M41.0546 31.7235H41.9338V37.9607C41.9338 38.6076 42.458 39.132 43.105 39.132C43.752 39.132 44.2763 38.6076 44.2763 37.9607V31.7235H45.1553C46.3826 31.7235 47.3813 30.7248 47.3813 29.4974V20.3107C47.3813 19.6638 46.857 19.1394 46.2101 19.1394C45.5631 19.1394 45.0388 19.6638 45.0388 20.3107V29.381H41.1711V8.17336H45.0388V15.3193C45.0388 15.9661 45.5631 16.4905 46.2101 16.4905C46.857 16.4905 47.3813 15.9661 47.3813 15.3193V8.05686C47.3813 6.82956 46.3826 5.83089 45.1553 5.83089H44.2763V1.17124C44.2763 0.524402 43.752 0 43.105 0C42.458 0 41.9338 0.524402 41.9338 1.17124V5.83089H41.0546C39.8271 5.83089 38.8286 6.82956 38.8286 8.05686V29.4974C38.8286 30.725 39.8271 31.7235 41.0546 31.7235Z" fill="black"/>
<path d="M63.6771 32.1093C63.8887 32.5019 64.2922 32.7249 64.709 32.7249C64.8965 32.7249 65.0871 32.6796 65.2638 32.5844L70.6589 29.6755L70.2708 30.694C70.0405 31.2985 70.3439 31.9752 70.9484 32.2055C71.0857 32.2577 71.2265 32.2825 71.3652 32.2825C71.837 32.2825 72.2819 31.9952 72.4599 31.5279L73.7786 28.0664C74.0089 27.4618 73.7055 26.7852 73.101 26.5548L69.4269 25.1551C68.8225 24.9249 68.1457 25.2282 67.9154 25.8327C67.685 26.4372 67.9885 27.1139 68.593 27.3443L69.4449 27.6688L64.1521 30.5225C63.5827 30.8295 63.37 31.5399 63.6771 32.1093Z" fill="black"/>
<path d="M7.06845 54.9945C7.25866 55.439 7.69108 55.7052 8.14568 55.7052C8.29935 55.7052 8.45567 55.6748 8.60605 55.6104L23.7194 49.1422L25.0929 52.7408C25.2131 53.0557 25.4631 53.3036 25.779 53.421C26.0948 53.5383 26.4462 53.5141 26.7429 53.354L51.7112 39.8918C52.2805 39.5848 52.4932 38.8744 52.1862 38.305C51.8793 37.7358 51.1691 37.523 50.5994 37.83L26.8055 50.6589L25.4733 47.1682C25.3596 46.8704 25.1295 46.6317 24.8361 46.5074C24.5427 46.383 24.2113 46.3838 23.9182 46.509L7.68437 53.4568C7.08985 53.7115 6.81406 54.3999 7.06845 54.9945Z" fill="black"/>
</g>
<defs>
<clipPath id="clip0">
<rect width="80" height="80" fill="white"/>
</clipPath>
</defs>
</svg>
