<svg width="80" height="85" viewBox="0 0 80 85" fill="none" xmlns="http://www.w3.org/2000/svg">
<circle cx="24.4078" cy="14.0364" r="13.2424" fill="#5C49DF"/>
<g clip-path="url(#clip0)">
<path d="M72.18 67.2044C73.7603 65.0315 74.6167 62.4164 74.628 59.7297C74.6451 59.3764 74.521 59.0308 74.2832 58.769C74.0454 58.5072 73.7133 58.3506 73.36 58.3337C72.6288 58.3106 72.0111 58.8717 71.964 59.6017C71.9741 61.731 71.3181 63.8102 70.088 65.5484C67.4867 68.8337 62.5507 69.0004 61.5867 69.0004C60.8503 69.0004 60.2534 69.5973 60.2534 70.3337C60.2534 71.0701 60.8503 71.667 61.5867 71.667C62.7654 71.667 68.8147 71.4524 72.18 67.2044Z" fill="black"/>
<path d="M47.9999 56.9994H50.6666C54.3466 56.995 57.3288 54.0128 57.3332 50.3327C57.3332 49.5963 56.7363 48.9994 55.9999 48.9994C55.2635 48.9994 54.6666 49.5963 54.6666 50.3327C54.6666 52.5418 52.8757 54.3327 50.6666 54.3327H47.9999C45.7908 54.3327 43.9999 52.5418 43.9999 50.3327H47.9999C48.7363 50.3327 49.3332 49.7357 49.3332 48.9994C49.3332 48.263 48.7363 47.666 47.9999 47.666H43.9999V44.9994H47.9999C48.7363 44.9994 49.3332 44.4024 49.3332 43.666C49.3332 42.9296 48.7363 42.3327 47.9999 42.3327H43.9999C43.9999 40.1235 45.7908 38.3327 47.9999 38.3327H50.6666C52.8757 38.3327 54.6666 40.1235 54.6666 42.3327C54.6666 43.0691 55.2635 43.666 55.9999 43.666C56.7363 43.666 57.3332 43.0691 57.3332 42.3327C57.3288 38.6526 54.3466 35.6704 50.6666 35.666H47.9999C44.3198 35.6704 41.3376 38.6526 41.3332 42.3327H39.9999C39.2635 42.3327 38.6666 42.9296 38.6666 43.666C38.6666 44.4024 39.2635 44.9994 39.9999 44.9994H41.3332V47.666H39.9999C39.2635 47.666 38.6666 48.263 38.6666 48.9994C38.6666 49.7357 39.2635 50.3327 39.9999 50.3327H41.3332C41.3376 54.0128 44.3198 56.995 47.9999 56.9994Z" fill="black"/>
<path d="M78.8853 50.028C75.6 36.0667 68.296 27.9774 63.0213 23.752C69.636 24.2507 71.7653 27.0027 71.828 27.0854C72.2457 27.6817 73.0646 27.8326 73.6675 27.4245C74.2704 27.0164 74.4344 26.2001 74.036 25.5907C73.94 25.4467 72.088 22.8014 66.7027 21.5907C68.0797 20.4587 68.8943 18.7822 68.9333 17C68.7551 14.0453 66.6981 11.5397 63.8347 10.7894C63.9521 9.82623 64.0117 8.85694 64.0133 7.88668C64.0119 6.99282 63.5627 6.15912 62.817 5.66627C62.0713 5.17341 61.1282 5.08696 60.3053 5.43602C59.6322 5.74079 59.007 6.14188 58.4493 6.62668C57.795 7.29911 56.8942 7.67484 55.956 7.66668C55.0193 7.67328 54.1203 7.29771 53.4667 6.62668C51.1169 4.45647 47.4938 4.45647 45.144 6.62668C44.4896 7.30058 43.5873 7.67651 42.648 7.66668C41.7114 7.67447 40.8124 7.29869 40.16 6.62668C39.6038 6.14292 38.9804 5.74231 38.3093 5.43735C37.487 5.09063 36.5457 5.17827 35.8015 5.67083C35.0573 6.16339 34.6089 6.99558 34.6067 7.88802C34.6067 11.2054 35.2627 17.1227 39.416 21.096C37.2332 22.4233 35.1947 23.9743 33.3333 25.724V15.6667C33.3333 12.6267 29.0333 10.3334 23.3333 10.3334C17.6333 10.3334 13.3333 12.6267 13.3333 15.6667V29.1C8.65733 29.5667 5.33333 31.6667 5.33333 34.3334V68.2467C2.112 69.112 0 70.8667 0 73V79.6667C0 82.7067 4.3 85 10 85C15.0973 85 19.0667 83.164 19.8493 80.6C22.1509 81.8186 24.7304 82.4161 27.3333 82.3334C33.0333 82.3334 37.3333 80.04 37.3333 77V59.6667C37.3333 56.6267 33.0333 54.3334 27.3333 54.3334C26.6654 54.3329 25.9979 54.3663 25.3333 54.4334V34.3334C25.3333 31.4134 21.364 29.1894 16 29.0174V19.3587C18.2683 20.5116 20.79 21.076 23.3333 21C25.8767 21.076 28.3984 20.5116 30.6667 19.3587V28.452C29.788 29.4347 28.9053 30.5054 28.0347 31.692C27.636 32.2857 27.7767 33.0883 28.3536 33.5109C28.9305 33.9336 29.7381 33.8258 30.184 33.2667C31.0404 32.1073 31.9581 30.9946 32.9333 29.9334C32.944 29.9214 32.9533 29.9094 32.964 29.8987C35.5093 27.07 38.4981 24.6747 41.8133 22.8067C42.4669 23.122 43.1584 23.3519 43.8707 23.4907L40.4333 26.6987C39.895 27.2016 39.8664 28.0457 40.3693 28.584C40.8723 29.1223 41.7164 29.151 42.2547 28.648L47.588 23.6734H48.0133V27.6734C48.0133 28.4097 48.6103 29.0067 49.3467 29.0067C50.083 29.0067 50.68 28.4097 50.68 27.6734V23.6667H51.1053L56.4387 28.6414C56.7869 28.9667 57.2822 29.0816 57.7381 28.9427C58.194 28.8038 58.5411 28.4323 58.6488 27.968C58.7564 27.5038 58.6082 27.0174 58.26 26.692L54.8 23.4707C55.508 23.3306 56.195 23.0998 56.844 22.784C60.368 24.6907 71.952 32.224 76.2907 50.6387C78.1773 58.6547 77.4973 64.7867 74.2707 68.86C70.1427 74.0667 62.98 74.3334 61.5867 74.3334H42.6667C41.9303 74.3334 41.3333 74.9303 41.3333 75.6667C41.3333 76.4031 41.9303 77 42.6667 77H61.5867C63.8533 77 71.5933 76.532 76.36 70.516C80.1173 65.7707 80.968 58.8774 78.8853 50.028ZM10 70.3334C14.4093 70.3334 17.3333 71.9334 17.3333 73C17.3333 74.0667 14.4093 75.6667 10 75.6667C5.59067 75.6667 2.66667 74.0667 2.66667 73C2.66667 71.9334 5.59067 70.3334 10 70.3334ZM10 82.3334C5.59067 82.3334 2.66667 80.7334 2.66667 79.6667V76.692C4.93497 77.8449 7.45664 78.4093 10 78.3334C12.5434 78.4093 15.065 77.8449 17.3333 76.692V79.6667C17.3333 80.7334 14.4093 82.3334 10 82.3334ZM27.3333 79.6667C22.924 79.6667 20 78.0667 20 77V63.3587C22.2683 64.5116 24.79 65.076 27.3333 65C29.8767 65.076 32.3984 64.5116 34.6667 63.3587V77C34.6667 78.0667 31.7427 79.6667 27.3333 79.6667ZM34.6667 59.6667C34.6667 60.7334 31.7427 62.3334 27.3333 62.3334C22.924 62.3334 20 60.7334 20 59.6667C20 58.6 22.924 57 27.3333 57C31.7427 57 34.6667 58.6 34.6667 59.6667ZM17.3333 59.6667V69.308C15.065 68.1551 12.5434 67.5907 10 67.6667C9.33207 67.6662 8.66455 67.6996 8 67.7667V38.0254C10.2683 39.1783 12.79 39.7427 15.3333 39.6667C17.8767 39.7427 20.3984 39.1783 22.6667 38.0254V54.9134C19.4453 55.7787 17.3333 57.5334 17.3333 59.6667ZM22.6667 34.3334C22.6667 35.4 19.7427 37 15.3333 37C10.924 37 8 35.4 8 34.3334C8 33.2667 10.924 31.6667 15.3333 31.6667C19.7427 31.6667 22.6667 33.2667 22.6667 34.3334ZM23.3333 18.3334C18.924 18.3334 16 16.7334 16 15.6667C16 14.6 18.924 13 23.3333 13C27.7427 13 30.6667 14.6 30.6667 15.6667C30.6667 16.7334 27.7427 18.3334 23.3333 18.3334ZM66.2667 17C66.2667 19.1854 63.9 20.9787 60.9333 21C60.4371 20.9969 59.9427 20.9401 59.4587 20.8307C61.3939 18.7661 62.7389 16.2196 63.3533 13.4574C64.9583 13.9302 66.1126 15.334 66.2667 17ZM38.4907 8.70668C39.6167 9.7618 41.1049 10.3441 42.648 10.3334C44.192 10.3449 45.6814 9.76255 46.808 8.70668C47.4671 8.04127 48.3648 7.66691 49.3013 7.66691C50.2379 7.66691 51.1356 8.04127 51.7947 8.70668C52.9213 9.76335 54.4114 10.3458 55.956 10.3334C57.5005 10.3453 58.9904 9.76287 60.1173 8.70668C60.4868 8.38012 60.898 8.10394 61.34 7.88535C61.34 10.3614 60.88 16.4827 56.584 19.8387C55.6175 20.5645 54.4459 20.9655 53.2373 20.984C54.3916 19.0015 55.3052 16.8883 55.9587 14.6894C56.0863 14.2301 55.9593 13.7377 55.6255 13.3976C55.2916 13.0574 54.8017 12.9212 54.3401 13.0402C53.8786 13.1593 53.5157 13.5155 53.388 13.9747C52.6495 16.481 51.5143 18.8529 50.0253 21H48.6547C47.1687 18.851 46.0332 16.4797 45.2907 13.9747C45.093 13.2652 44.3575 12.8503 43.648 13.048C42.9385 13.2457 42.5236 13.9812 42.7213 14.6907C43.3755 16.8916 44.29 19.0065 45.4453 20.9907C44.2126 20.9844 43.0147 20.5809 42.0293 19.84C37.7333 16.4854 37.2733 10.364 37.2733 7.89602C37.7152 8.10771 38.125 8.38062 38.4907 8.70668Z" fill="black"/>
<path d="M72.18 67.2045C73.7603 65.0316 74.6167 62.4166 74.628 59.7299C74.6451 59.3766 74.521 59.031 74.2832 58.7692C74.0454 58.5074 73.7133 58.3508 73.36 58.3339C72.6278 58.3079 72.0084 58.8705 71.964 59.6019C71.9741 61.7312 71.3181 63.8104 70.088 65.5485C67.4867 68.8339 62.5507 69.0005 61.5867 69.0005C60.8503 69.0005 60.2534 69.5975 60.2534 70.3339C60.2534 71.0702 60.8503 71.6672 61.5867 71.6672C62.7654 71.6672 68.8147 71.4525 72.18 67.2045Z" fill="black"/>
</g>
<defs>
<clipPath id="clip0">
<rect width="80" height="80" fill="white" transform="translate(0 5)"/>
</clipPath>
</defs>
</svg>
