<svg width="80" height="80" viewBox="0 0 80 80" fill="none" xmlns="http://www.w3.org/2000/svg">
<g clip-path="url(#clip0)">
<circle cx="60.2367" cy="26.758" r="13.2424" fill="#5C49DF"/>
<path d="M64.7767 64.8605L46.5714 61.2836C46.3588 60.7602 46.2124 60.2131 46.1353 59.6509C45.9841 58.5498 46.1074 57.4167 46.4919 56.3737L46.6922 55.8302C46.8971 55.685 47.0974 55.533 47.2928 55.3741C54.2178 49.7723 57.7292 44.738 57.7292 40.4103C57.7292 39.9584 57.7105 39.5037 57.6738 39.0591C57.6732 39.053 57.6727 39.0469 57.6721 39.0409C57.6478 38.7964 57.6271 38.4578 57.6096 38.0348C59.9552 37.407 61.7307 34.9445 61.7602 32.0111C61.7653 31.4867 61.7171 30.9736 61.6158 30.4756C63.1457 29.8144 64.2189 28.2906 64.2189 26.5211V24.4428C64.2189 23.7956 63.6944 23.2709 63.0471 23.2709H59.5416V18.3391C59.5416 9.65969 52.4786 2.59844 43.7971 2.59844H43.7557V1.17188C43.7557 0.524687 43.2311 0 42.5838 0H37.4399C36.7927 0 36.268 0.524687 36.268 1.17188V2.59844H35.9832C27.3016 2.59844 20.2388 9.65969 20.2388 18.3391V23.2709H16.8035C16.1563 23.2709 15.6316 23.7956 15.6316 24.4428V26.5211C15.6316 28.3361 16.7605 29.8923 18.3532 30.5248C18.258 31.0108 18.2116 31.5108 18.2166 32.0112C18.2458 34.9284 20.0019 37.38 22.3285 38.0244C22.3086 38.4523 22.2858 38.8027 22.2602 39.0631C22.2228 39.4814 22.2039 39.9347 22.2039 40.4106C22.2039 44.7369 25.7136 49.7698 32.6332 55.3675C32.7949 55.4991 32.9599 55.6259 33.128 55.7481L33.3588 56.3739C33.7435 57.4173 33.8667 58.5513 33.715 59.653C33.6377 60.215 33.4914 60.7617 33.2788 61.2847L15.2267 64.8598C10.1824 65.8361 6.52112 70.2728 6.52112 75.4097V78.8281C6.52112 79.4753 7.04581 80 7.69299 80H44.9274C45.5747 80 46.0992 79.4753 46.0992 78.8281C46.0992 78.1809 45.5747 77.6562 44.9274 77.6562H25.6735V74.2397H54.2603V77.6562H50.4264C49.7791 77.6562 49.2546 78.1809 49.2546 78.8281C49.2546 79.4753 49.7791 80 50.4264 80H72.3072C72.9546 80 73.4791 79.4753 73.4791 78.8281V75.4097C73.4791 70.2728 69.8178 65.8359 64.7767 64.8605ZM60.688 71.8959H56.6039V65.6433L60.688 66.4456V71.8959ZM59.4166 31.9878C59.4003 33.5978 58.6303 34.9805 57.5533 35.5581C57.5391 34.2383 57.5389 32.6359 57.5539 30.827H59.2925C59.3782 31.202 59.4205 31.5941 59.4166 31.9878ZM43.7974 4.94219C50.7917 4.94219 56.5516 10.3269 57.1472 17.1672H52.1405C51.4932 17.1672 50.9686 17.6919 50.9686 18.3391C50.9686 18.9862 51.4932 19.5109 52.1405 19.5109H57.198V23.2709H43.756V4.94219H43.7974ZM38.6121 19.5109H41.4122V23.2709H38.6121V19.5109ZM41.4122 2.34375V17.1672H38.6121V2.34375H41.4122ZM22.5828 19.5109H27.6403C28.2875 19.5109 28.8122 18.9862 28.8122 18.3391C28.8122 17.6919 28.2875 17.1672 27.6403 17.1672H22.6336C23.2292 10.3269 28.9892 4.94219 35.9835 4.94219H36.2683V23.2709H22.5828V19.5109ZM20.5605 31.9878C20.5566 31.5938 20.5988 31.202 20.6844 30.827H22.4178C22.4272 32.5841 22.4202 34.1955 22.3985 35.5444C21.3347 34.9587 20.5766 33.585 20.5605 31.9878ZM24.548 40.4106C24.548 40.0039 24.5638 39.6206 24.5939 39.2819C24.7425 37.7716 24.7785 34.1209 24.7614 30.8269H27.416C28.0632 30.8269 28.5878 30.3022 28.5878 29.655C28.5878 29.0078 28.0632 28.4831 27.416 28.4831H19.9383C18.8561 28.4831 17.9755 27.603 17.9755 26.5211V25.6147H61.8752V26.5211C61.8752 27.603 60.9947 28.4831 59.9124 28.4831H32.8957C32.2485 28.4831 31.7238 29.0078 31.7238 29.655C31.7238 30.3022 32.2485 30.8269 32.8957 30.8269H55.2103C55.1893 33.4436 55.1832 37.668 55.3388 39.2616C55.3699 39.6394 55.3857 40.0259 55.3857 40.4106C55.3857 43.9453 52.0775 48.4897 45.8171 53.5537C44.1749 54.8881 42.1083 55.622 39.9902 55.622C39.9763 55.622 39.9625 55.622 39.9485 55.622C37.8278 55.622 35.756 54.8864 34.1102 53.5475C27.8546 48.4867 24.548 43.9442 24.548 40.4106ZM39.9432 57.9656H39.9952C41.3106 57.9656 42.6117 57.7387 43.8402 57.3058C43.7021 58.1858 43.6917 59.0855 43.8132 59.9698C43.9372 60.8727 44.1936 61.7466 44.5764 62.5717C44.4439 65.0216 42.4085 66.9739 39.9255 66.9739C38.7049 66.9739 37.5513 66.5053 36.6769 65.6547C35.8292 64.8298 35.3367 63.7431 35.2742 62.572C35.6566 61.7478 35.913 60.8748 36.0372 59.9725C36.1605 59.0764 36.1486 58.1645 36.0055 57.2734C37.2616 57.7277 38.5952 57.9658 39.9432 57.9656ZM19.2457 66.4531L23.3297 65.6444V71.8959H19.2457V66.4531ZM8.86471 77.6562V75.4097C8.86471 71.3933 11.7275 67.9242 15.6769 67.16L16.9017 66.9175V77.6562H8.86471ZM23.3297 77.6361H19.2457V74.2398H23.3297V77.6361ZM25.6735 71.8959V65.1802L33.0625 63.7169C33.338 65.0848 34.0175 66.337 35.0425 67.3345C36.3569 68.6134 38.0911 69.3178 39.9255 69.3178C43.3078 69.3178 46.1377 66.9075 46.7869 63.7147L54.2602 65.183V71.8961H25.6735V71.8959ZM60.688 74.2397V77.6359H56.6039V74.2397H60.688ZM71.1353 77.6562H63.0319V66.9061L64.3283 67.1608C68.2725 67.9241 71.1353 71.3931 71.1353 75.4095V77.6562Z" fill="black"/>
<path d="M39.9252 48.6509C42.4151 48.6509 44.603 46.9737 45.2463 44.5722C45.4137 43.947 45.0426 43.3045 44.4174 43.137C43.7919 42.9692 43.1496 43.3406 42.9821 43.9659C42.613 45.3443 41.356 46.3072 39.9252 46.3072C38.4954 46.3072 37.2388 45.3443 36.8696 43.9659C36.7021 43.3406 36.0588 42.9693 35.4344 43.137C34.8093 43.3043 34.4382 43.947 34.6055 44.5722C35.2487 46.9737 37.4362 48.6509 39.9252 48.6509Z" fill="black"/>
</g>
<defs>
<clipPath id="clip0">
<rect width="80" height="80" fill="white"/>
</clipPath>
</defs>
</svg>
