<svg width="80" height="80" viewBox="0 0 80 80" fill="none" xmlns="http://www.w3.org/2000/svg">
<circle cx="57.35" cy="36.2504" r="11.35" fill="#5C49DF"/>
<path d="M77.5 67.5H76.25V63.75C76.25 62.7554 75.8549 61.8016 75.1516 61.0984C74.4484 60.3951 73.4946 60 72.5 60V56.25C72.5 55.2554 72.1049 54.3016 71.4016 53.5984C70.6984 52.8951 69.7446 52.5 68.75 52.5H66.25V40C66.25 39.0054 65.8549 38.0516 65.1516 37.3484C64.4484 36.6451 63.4946 36.25 62.5 36.25H61.25C61.25 35.2554 60.8549 34.3016 60.1516 33.5984C59.4484 32.8951 58.4946 32.5 57.5 32.5H52.5C51.5054 32.5 50.5516 32.8951 49.8484 33.5984C49.1451 34.3016 48.75 35.2554 48.75 36.25V38.75C48.75 39.7446 49.1451 40.6984 49.8484 41.4016C50.5516 42.1049 51.5054 42.5 52.5 42.5H57.5C58.4946 42.5 59.4484 42.1049 60.1516 41.4016C60.8549 40.6984 61.25 39.7446 61.25 38.75H62.5C62.8315 38.75 63.1495 38.8817 63.3839 39.1161C63.6183 39.3505 63.75 39.6685 63.75 40V52.5H63.075C62.3928 50.5469 61.182 48.8214 59.5774 47.5156C57.9728 46.2097 56.0372 45.3748 53.9862 45.1038L43.9862 43.77L40 42.7738V39.5588C41.5294 38.6751 42.8546 37.478 43.8886 36.0461C44.9227 34.6141 45.6422 32.9797 46 31.25H47.5C48.6936 31.2505 49.8477 30.8229 50.7528 30.0448C51.6578 29.2667 52.2537 28.1897 52.4323 27.0096C52.6108 25.8295 52.3601 24.6244 51.7257 23.6135C51.0913 22.6025 50.1153 21.8526 48.975 21.5L49.7988 17.375C50.0989 15.8738 50.0622 14.3247 49.6913 12.8394C49.3204 11.3542 48.6245 9.9697 47.6538 8.7859C46.6831 7.60211 45.4617 6.64848 44.0779 5.9938C42.694 5.33911 41.1822 4.99969 39.6513 5H36.875C36.7092 5 36.5503 4.93415 36.4331 4.81694C36.3158 4.69973 36.25 4.54076 36.25 4.375C36.25 3.5462 35.9208 2.75134 35.3347 2.16529C34.7487 1.57924 33.9538 1.25 33.125 1.25H29.25C27.5667 1.2509 25.9032 1.61346 24.3722 2.31315C22.8412 3.01283 21.4784 4.03331 20.3761 5.30548C19.2738 6.57765 18.4577 8.07182 17.983 9.68682C17.5084 11.3018 17.3863 13 17.625 14.6663L18.5975 21.4775C17.4452 21.8141 16.453 22.5551 15.8031 23.5645C15.1532 24.5738 14.8893 25.7838 15.0598 26.9721C15.2304 28.1604 15.8239 29.2473 16.7314 30.0332C17.6389 30.819 18.7995 31.2511 20 31.25H21.5C21.8578 32.9797 22.5773 34.6141 23.6114 36.0461C24.6454 37.478 25.9706 38.6751 27.5 39.5588V42.7738L23.5138 43.7738L13.5138 45.1075C10.816 45.4748 8.34202 46.8048 6.54772 48.8525C4.75342 50.9002 3.75979 53.5274 3.75 56.25V67.5H2.5C2.16848 67.5 1.85054 67.6317 1.61612 67.8661C1.3817 68.1005 1.25 68.4185 1.25 68.75V77.5C1.25 77.8315 1.3817 78.1495 1.61612 78.3839C1.85054 78.6183 2.16848 78.75 2.5 78.75H77.5C77.8315 78.75 78.1495 78.6183 78.3839 78.3839C78.6183 78.1495 78.75 77.8315 78.75 77.5V68.75C78.75 68.4185 78.6183 68.1005 78.3839 67.8661C78.1495 67.6317 77.8315 67.5 77.5 67.5ZM58.75 38.75C58.75 39.0815 58.6183 39.3995 58.3839 39.6339C58.1495 39.8683 57.8315 40 57.5 40H52.5C52.1685 40 51.8505 39.8683 51.6161 39.6339C51.3817 39.3995 51.25 39.0815 51.25 38.75V36.25C51.25 35.9185 51.3817 35.6005 51.6161 35.3661C51.8505 35.1317 52.1685 35 52.5 35H57.5C57.8315 35 58.1495 35.1317 58.3839 35.3661C58.6183 35.6005 58.75 35.9185 58.75 36.25V38.75ZM73.75 63.75V67.5H56.25V63.75C56.25 63.4185 56.3817 63.1005 56.6161 62.8661C56.8505 62.6317 57.1685 62.5 57.5 62.5H72.5C72.8315 62.5 73.1495 62.6317 73.3839 62.8661C73.6183 63.1005 73.75 63.4185 73.75 63.75ZM70 56.25V60H60V56.25C60 55.9185 60.1317 55.6005 60.3661 55.3661C60.6005 55.1317 60.9185 55 61.25 55H68.75C69.0815 55 69.3995 55.1317 69.6339 55.3661C69.8683 55.6005 70 55.9185 70 56.25ZM60.4362 52.595C59.6043 52.7799 58.8603 53.2427 58.3265 53.9071C57.7928 54.5714 57.5013 55.3978 57.5 56.25V60C56.5054 60 55.5516 60.3951 54.8484 61.0984C54.1451 61.8016 53.75 62.7554 53.75 63.75V67.5H38.5L36.3138 57.6625L37.8487 54.5925C37.9633 54.7182 38.1024 54.8191 38.2574 54.8892C38.4123 54.9593 38.58 54.997 38.75 55C38.7825 55 38.815 55 38.8475 55C39.0506 54.9842 39.2467 54.9189 39.4188 54.81C39.5909 54.7011 39.7338 54.5517 39.835 54.375L44.4175 46.355L53.6562 47.5863C55.1181 47.7784 56.5072 48.3388 57.6932 49.2149C58.8791 50.091 59.823 51.2541 60.4362 52.595ZM34.2275 56.25H33.2725L31.375 52.4638L33.75 49.5L36.125 52.4638L34.2275 56.25ZM33.5025 58.75H34.0025L35.9475 67.5H31.5575L33.5025 58.75ZM38.5775 51.5338L35.5312 47.7262L39.0238 45.1075L41.8463 45.8125L38.5775 51.5338ZM50 26.25C50 26.913 49.7366 27.5489 49.2678 28.0178C48.7989 28.4866 48.163 28.75 47.5 28.75H46.25V23.75H47.5C48.163 23.75 48.7989 24.0134 49.2678 24.4822C49.7366 24.9511 50 25.587 50 26.25ZM20 28.75C19.337 28.75 18.7011 28.4866 18.2322 28.0178C17.7634 27.5489 17.5 26.913 17.5 26.25C17.5 25.587 17.7634 24.9511 18.2322 24.4822C18.7011 24.0134 19.337 23.75 20 23.75H21.25V28.75H20ZM21.25 21.25H21.08L20.0887 14.3125C20.0285 13.8776 19.9988 13.439 20 13C20.0036 10.5479 20.9794 8.1972 22.7133 6.46328C24.4472 4.72936 26.7979 3.75364 29.25 3.75H33.125C33.2908 3.75 33.4497 3.81585 33.5669 3.93306C33.6842 4.05027 33.75 4.20924 33.75 4.375C33.75 5.2038 34.0792 5.99866 34.6653 6.58471C35.2513 7.17076 36.0462 7.5 36.875 7.5H39.6513C40.8125 7.4998 41.9593 7.75733 43.009 8.254C44.0587 8.75067 44.985 9.47411 45.7213 10.3721C46.4575 11.2702 46.9853 12.3204 47.2665 13.4471C47.5477 14.5738 47.5754 15.7488 47.3475 16.8875L46.475 21.25H46.25C46.2486 20.6681 46.1125 20.0944 45.8523 19.5739C45.592 19.0534 45.2147 18.6002 44.75 18.25L42.0638 16.235C41.4569 15.7849 40.7089 15.5669 39.9552 15.6206C39.2015 15.6742 38.492 15.996 37.955 16.5275C37.834 16.6475 37.6704 16.7148 37.5 16.7148C37.3296 16.7148 37.166 16.6475 37.045 16.5275L33.0175 12.5C32.204 11.7251 31.1235 11.2929 30 11.2929C28.8765 11.2929 27.796 11.7251 26.9825 12.5L23.4463 16.0363C22.0571 17.4178 21.2681 19.2909 21.25 21.25ZM23.75 28.75V21.3387C23.7482 20.682 23.8766 20.0314 24.1279 19.4247C24.3791 18.8179 24.7482 18.267 25.2137 17.8037L28.75 14.2675C29.0816 13.9362 29.5312 13.7501 30 13.7501C30.4688 13.7501 30.9184 13.9362 31.25 14.2675L35.2775 18.295C35.8763 18.8666 36.6722 19.1855 37.5 19.1855C38.3278 19.1855 39.1237 18.8666 39.7225 18.295C39.8324 18.1861 39.9777 18.1203 40.132 18.1093C40.2863 18.0982 40.4395 18.1429 40.5638 18.235L43.25 20.25C43.4052 20.3664 43.5312 20.5174 43.618 20.691C43.7048 20.8646 43.75 21.0559 43.75 21.25V28.75C43.75 31.4022 42.6964 33.9457 40.8211 35.8211C38.9457 37.6964 36.4022 38.75 33.75 38.75C31.0978 38.75 28.5543 37.6964 26.6789 35.8211C24.8036 33.9457 23.75 31.4022 23.75 28.75ZM33.75 41.25C35.0221 41.2507 36.2868 41.0564 37.5 40.6738V43.125L33.75 45.9375L30 43.125V40.6738C31.2132 41.0564 32.4779 41.2507 33.75 41.25ZM28.4762 45.1075L31.9688 47.7262L28.9225 51.5338L25.6538 45.8125L28.4762 45.1075ZM6.25 56.25C6.25595 54.1312 7.02797 52.0861 8.42362 50.492C9.81928 48.8978 11.7444 47.8622 13.8438 47.5763L23.0825 46.345L27.665 54.375C27.7662 54.5517 27.9091 54.7011 28.0812 54.81C28.2533 54.9189 28.4494 54.9842 28.6525 55C28.685 55 28.7175 55 28.75 55C28.9196 54.9966 29.0868 54.9587 29.2413 54.8887C29.3958 54.8186 29.5344 54.7179 29.6488 54.5925L31.1838 57.6625L29 67.5H6.25V56.25ZM76.25 76.25H3.75V70H76.25V76.25Z" fill="black"/>
</svg>
