<svg width="80" height="80" viewBox="0 0 80 80" fill="none" xmlns="http://www.w3.org/2000/svg">
<g clip-path="url(#clip0)">
<circle cx="12.3827" cy="26.758" r="13.2424" fill="#5C49DF"/>
<path d="M39.8426 79.0361C40.7055 79.0361 41.4051 78.3366 41.4051 77.4736C41.4051 76.6107 40.7055 75.9111 39.8426 75.9111C38.9796 75.9111 38.2801 76.6107 38.2801 77.4736C38.2801 78.3366 38.9796 79.0361 39.8426 79.0361Z" fill="black"/>
<path d="M78.4344 68.4931H62.1633V48.0085C62.1633 39.4509 56.1452 31.9936 48.1787 29.6864C49.0673 29.125 49.9058 28.4731 50.6775 27.7298C51.9847 26.4706 53.0713 24.9457 53.907 23.1971L54.8708 21.1807C55.5883 20.7578 56.1978 20.15 56.6361 19.3909C57.528 17.8461 57.528 16.0014 56.6378 14.4592C56.6378 14.4592 53.5189 9.02262 53.4848 8.96152C50.7359 4.0284 45.5242 0.963867 39.8833 0.963867C35.6845 0.963867 31.7489 2.61074 28.8016 5.60105C25.8545 8.5909 24.2652 12.5512 24.3258 16.7526C24.4041 22.1617 27.2683 26.9079 31.5308 29.6359C23.5116 31.8193 17.6138 38.9796 17.6138 47.4528V68.4932H1.56563C0.701094 68.4932 0 69.1942 0 70.0589V77.459C0 78.3235 0.700938 79.0246 1.56563 79.0246H32.7125C33.577 79.0246 34.2781 78.3237 34.2781 77.459C34.2781 76.5943 33.5772 75.8934 32.7125 75.8934H3.13109V71.6243H76.8689V75.8934H46.9719C46.1073 75.8934 45.4062 76.5943 45.4062 77.459C45.4062 78.3237 46.1072 79.0246 46.9719 79.0246H78.4344C79.2989 79.0246 80 78.3237 80 77.459V70.0589C80 69.194 79.2991 68.4931 78.4344 68.4931ZM59.0322 49.574V68.4057H20.745V49.574H59.0322ZM42.8494 32.2915C42.8494 33.95 41.5003 35.299 39.8419 35.299C38.1844 35.299 36.8359 33.95 36.8359 32.2915C36.8359 32.2212 36.8412 32.152 36.8459 32.0825H42.8392C42.8441 32.1518 42.8494 32.2212 42.8494 32.2915ZM53.9244 17.8254C53.7678 18.0965 53.3023 18.727 52.3627 18.727C51.423 18.727 50.9575 18.0965 50.8009 17.8254C50.6445 17.5542 50.3311 16.8359 50.8009 16.0221C50.8047 16.0154 50.8086 16.0087 50.8123 16.002L52.3395 13.264L53.9244 16.0223C54.3942 16.8359 54.0808 17.5542 53.9244 17.8254ZM31.0317 7.79887C33.3861 5.41027 36.5295 4.09496 39.8834 4.09496C44.0134 4.09496 47.8544 6.15293 50.1581 9.53121C46.1005 10.0453 43.773 8.40543 43.6809 8.33918C43.0975 7.90027 42.2883 7.92277 41.7306 8.3934C41.688 8.42934 37.5631 11.8021 28.5772 11.3468C29.173 10.0475 29.9975 8.84824 31.0317 7.79887ZM27.4567 16.7073C27.4455 15.9345 27.5073 15.1728 27.6331 14.4275C28.5278 14.4915 29.3848 14.522 30.2023 14.522C36.9497 14.522 41.0802 12.5184 42.8105 11.4437C43.9787 12.0346 46.1184 12.8328 49.0391 12.7532L48.0831 14.4671C47.1975 16.01 47.1995 17.8493 48.0894 19.3907C48.7725 20.574 49.8703 21.3901 51.1481 21.7082L51.0819 21.8467C50.4083 23.2559 49.5414 24.4764 48.5052 25.4745C46.2047 27.6904 43.1783 28.9248 39.9839 28.9501C39.9508 28.9504 39.9178 28.9506 39.8847 28.9506C33.1205 28.9507 27.5545 23.4789 27.4567 16.7073ZM33.7064 32.3507C33.7384 35.7082 36.4778 38.4301 39.8419 38.4301C43.2003 38.4301 45.9359 35.7187 45.9784 32.3703C52.7967 33.6993 58.2322 39.4943 58.9509 46.4431H53.0203V42.9532C53.0203 42.0887 52.3194 41.3876 51.4547 41.3876C50.59 41.3876 49.8891 42.0886 49.8891 42.9532V46.4431H30.1108V42.9532C30.1108 42.0887 29.4098 41.3876 28.5452 41.3876C27.6806 41.3876 26.9795 42.0886 26.9795 42.9532V46.4431H20.78C21.2559 39.3989 26.6702 33.6345 33.7064 32.3507Z" fill="black"/>
<path d="M39.8425 64.429C42.56 64.429 44.771 62.218 44.771 59.5005C44.771 56.7832 42.56 54.5723 39.8425 54.5723C37.125 54.5723 34.9141 56.7832 34.9141 59.5005C34.9141 62.218 37.125 64.429 39.8425 64.429ZM39.8425 57.7034C40.8335 57.7034 41.6399 58.5095 41.6399 59.5005C41.6399 60.4916 40.8336 61.2979 39.8425 61.2979C38.8516 61.2979 38.0452 60.4916 38.0452 59.5005C38.0452 58.5095 38.8516 57.7034 39.8425 57.7034Z" fill="black"/>
<path d="M11.0372 10.5086C11.8925 10.3878 12.4879 9.59638 12.3672 8.74107C12.2464 7.88576 11.455 7.29029 10.5997 7.41107C9.74435 7.53185 9.14888 8.32326 9.26966 9.17857C9.39044 10.0339 10.1817 10.6293 11.0372 10.5086Z" fill="black"/>
<path d="M10.6841 30.5468C10.7289 30.5477 10.773 30.5482 10.8177 30.5482C14.0781 30.5482 16.8561 28.1447 17.308 24.9068C17.3498 24.6058 17.3711 24.2994 17.3711 23.9953C17.3711 23.1308 16.6702 22.4297 15.8055 22.4297C14.9409 22.4297 14.2398 23.1307 14.2398 23.9953C14.2398 24.1552 14.2288 24.3168 14.2067 24.4746C13.9709 26.1633 12.5202 27.4171 10.8167 27.4171C10.7936 27.4171 10.7703 27.4168 10.7469 27.4163C8.96328 27.3803 7.49375 25.9585 7.40141 24.1797C7.35219 23.2297 7.68453 22.328 8.33719 21.6407C8.99031 20.9528 9.87141 20.5739 10.8183 20.5739C11.6828 20.5739 12.3839 19.873 12.3839 19.0083V13.7932C12.3839 12.9286 11.683 12.2275 10.8183 12.2275C9.9536 12.2275 9.25266 12.9285 9.25266 13.7932V17.6343C8.04641 17.9332 6.93297 18.5719 6.06656 19.4844C4.81672 20.8007 4.18047 22.5257 4.27453 24.3416C4.45172 27.7522 7.26703 30.4777 10.6841 30.5468Z" fill="black"/>
<path d="M68.9628 25.8691C68.1074 25.9899 67.512 26.7813 67.6328 27.6366C67.7535 28.4919 68.5449 29.0874 69.4003 28.9666C70.2556 28.8458 70.851 28.0544 70.7303 27.1991C70.6095 26.3436 69.8182 25.7482 68.9628 25.8691Z" fill="black"/>
<path d="M64.1944 13.9484C65.059 13.9484 65.7601 13.2474 65.7601 12.3827C65.7601 12.2227 65.7711 12.0612 65.7932 11.9035C66.029 10.2146 67.4796 8.96102 69.1829 8.96102C69.2063 8.96102 69.2296 8.96133 69.253 8.9618C71.0366 8.99774 72.5061 10.4196 72.5985 12.1984C72.6477 13.1484 72.3154 14.0501 71.6627 14.7374C71.0096 15.4252 70.1285 15.8041 69.1816 15.8041C68.3171 15.8041 67.616 16.5051 67.616 17.3698V22.5846C67.616 23.4491 68.3169 24.1502 69.1816 24.1502C70.0463 24.1502 70.7472 23.4493 70.7472 22.5846V18.7437C71.9535 18.4448 73.0669 17.806 73.9333 16.8935C75.1832 15.5773 75.8194 13.8523 75.7254 12.0363C75.5483 8.62586 72.733 5.90039 69.316 5.83148C69.2713 5.83055 69.2268 5.83008 69.1821 5.83008C65.9215 5.83008 63.144 8.23336 62.6921 11.4713C62.6502 11.7723 62.629 12.0788 62.629 12.3829C62.629 13.2473 63.3299 13.9484 64.1944 13.9484Z" fill="black"/>
<path d="M37.2603 16.4275C37.2579 15.5628 36.5551 14.8639 35.6904 14.8662C34.8258 14.8686 34.1269 15.5714 34.1292 16.4361C34.1315 17.3007 34.8343 17.9997 35.699 17.9973C36.5636 17.9948 37.2626 17.292 37.2603 16.4275Z" fill="black"/>
<path d="M44.3096 17.9739C45.1743 17.9715 45.8732 17.2687 45.8708 16.404C45.8685 15.5393 45.1657 14.8404 44.301 14.8428C43.4363 14.8451 42.7374 15.5479 42.7397 16.4126C42.7421 17.2772 43.4449 17.9762 44.3096 17.9739Z" fill="black"/>
<path d="M44.7853 23.8439C44.7853 22.9794 44.0843 22.2783 43.2197 22.2783H36.7801C35.9156 22.2783 35.2145 22.9793 35.2145 23.8439C35.2145 24.7085 35.9154 25.4096 36.7801 25.4096H43.2197C44.0843 25.4096 44.7853 24.7086 44.7853 23.8439Z" fill="black"/>
</g>
<defs>
<clipPath id="clip0">
<rect width="80" height="80" fill="white"/>
</clipPath>
</defs>
</svg>
