<svg width="64" height="64" viewBox="0 0 64 64" fill="none" xmlns="http://www.w3.org/2000/svg">
<g clip-path="url(#clip0)">
<path d="M39.1109 17.9233C39.355 18.1674 39.6749 18.2894 39.9947 18.2894C40.3146 18.2894 40.6346 18.1674 40.8786 17.9233C41.3667 17.4352 41.3667 16.6437 40.8786 16.1554L40.8617 16.1386C40.3736 15.6504 39.5821 15.6504 39.0939 16.1386C38.6058 16.6267 38.6058 17.4182 39.0939 17.9064L39.1109 17.9233Z" fill="black"/>
<path d="M59.277 29.75L63.6339 25.3931C63.9914 25.0356 64.0983 24.4979 63.9048 24.0309C63.7113 23.5637 63.2555 23.2593 62.7499 23.2593H53.7185C52.538 18.4268 50.0604 14.0234 46.5185 10.4814C41.3719 5.3345 34.5288 2.5 27.25 2.5C19.9713 2.5 13.1281 5.3345 7.98138 10.4814C2.8345 15.6283 0 22.4713 0 29.75C0 37.0288 2.8345 43.8719 7.98138 49.0186C9.51188 50.5491 11.1933 51.8734 12.9906 52.9811L9.22475 59.6343C9.00575 60.0213 9.00875 60.4955 9.23275 60.8795C9.45662 61.2638 9.86775 61.5 10.3125 61.5H16.75C17.2004 61.5 17.616 61.2577 17.8379 60.8657L20.5006 56.1614C22.68 56.7142 24.943 57 27.25 57C29.557 57 31.82 56.7142 33.9994 56.1614L36.6621 60.8657C36.884 61.2577 37.2996 61.5 37.75 61.5H44.1875C44.6323 61.5 45.0434 61.2637 45.2674 60.8796C45.4914 60.4955 45.4944 60.0213 45.2754 59.6344L41.5095 52.9813C43.3069 51.8734 44.9883 50.5492 46.5187 49.0187C50.0592 45.4782 52.5381 41.073 53.7185 36.2409H62.75C63.2555 36.2409 63.7114 35.9362 63.9049 35.4692C64.0984 35.0023 63.9914 34.4645 63.634 34.107L59.277 29.75ZM56.9914 28.5H48.2677L51.0085 25.7593H59.7323L56.9914 28.5ZM16.0211 59H12.4564L15.1771 54.1934C16.1109 54.6556 17.0695 55.0645 18.0502 55.4152L16.0211 59ZM42.0436 59H38.4789L36.4497 55.4152C37.4305 55.0645 38.3891 54.6556 39.3229 54.1934L42.0436 59ZM44.7509 47.2509C43.0996 48.9021 41.2554 50.2899 39.2701 51.3961C39.2456 51.408 39.2209 51.4193 39.1968 51.4329C39.1816 51.4415 39.1679 51.4514 39.1533 51.4605C37.6304 52.2982 36.0256 52.9709 34.3605 53.4676C34.295 53.4806 34.2302 53.4999 34.1664 53.5239C31.9471 54.1661 29.6244 54.5 27.25 54.5C24.8756 54.5 22.5529 54.1661 20.3336 53.524C20.2696 53.5 20.2049 53.4808 20.1392 53.4678C18.4743 52.971 16.8695 52.2984 15.3468 51.4606C15.3321 51.4515 15.3184 51.4416 15.3033 51.433C15.2791 51.4194 15.2545 51.4081 15.23 51.3963C13.2447 50.29 11.4005 48.9022 9.74925 47.2509C5.0745 42.5762 2.5 36.361 2.5 29.75C2.5 23.139 5.0745 16.9237 9.74912 12.2491C14.4237 7.5745 20.639 5 27.25 5C33.861 5 40.0762 7.5745 44.7509 12.2491C47.8225 15.3207 50.0133 19.1046 51.1381 23.2593H50.4909C50.1594 23.2593 49.8414 23.391 49.607 23.6254L46.2894 26.943C45.9546 24.6704 45.2199 22.4606 44.1104 20.451C43.7767 19.8466 43.0163 19.6274 42.4119 19.9609C41.8075 20.2945 41.5881 21.055 41.9217 21.6594C43.1084 23.8086 43.7713 26.1454 43.9409 28.5001H38.4294C38.1511 25.9681 37.0323 23.6225 35.205 21.7952C33.0801 19.6702 30.255 18.5 27.25 18.5C24.245 18.5 21.4199 19.6702 19.2951 21.795C17.1702 23.92 16 26.745 16 29.75C16 32.755 17.1702 35.5801 19.295 37.7049C21.4199 39.8298 24.245 41 27.25 41C30.255 41 33.0801 39.8298 35.2049 37.705C37.0321 35.8778 38.151 33.5321 38.4292 31H43.9354C43.6372 34.9075 41.9884 38.6995 39.094 41.594C35.9304 44.7578 31.724 46.5 27.25 46.5C22.776 46.5 18.5696 44.7578 15.406 41.594C12.2423 38.4304 10.5 34.2241 10.5 29.75C10.5 25.2759 12.2423 21.0696 15.406 17.906C20.6537 12.6583 28.8513 11.4955 35.3408 15.0784C35.945 15.4119 36.7055 15.1926 37.0392 14.5883C37.3729 13.9839 37.1535 13.2235 36.5491 12.8897C32.9685 10.9129 28.7524 10.125 24.6777 10.6718C20.4671 11.2365 16.6496 13.1268 13.6383 16.1383C10.0024 19.7741 8 24.6081 8 29.75C8 34.8919 10.0024 39.726 13.6381 43.3618C17.274 46.9976 22.1081 49 27.25 49C32.3919 49 37.226 46.9976 40.8618 43.3619C43.8161 40.4076 45.6904 36.6775 46.2938 32.5616L49.6069 35.8747C49.8413 36.1091 50.1592 36.2409 50.4907 36.2409H51.1377C50.0129 40.3952 47.8212 44.1805 44.7509 47.2509ZM31.3325 27.393C30.9874 26.795 30.2229 26.5903 29.625 26.9355L26.625 28.6675C26.2383 28.8907 26 29.3034 26 29.75C26 30.1966 26.2383 30.6093 26.625 30.8325L29.625 32.5645C29.8219 32.6781 30.0367 32.7321 30.2489 32.7321C30.6809 32.7321 31.101 32.508 31.3325 32.107C31.5354 31.7557 31.547 31.3474 31.4019 31H35.9109C35.646 32.8629 34.7914 34.583 33.4371 35.9371C31.7845 37.5899 29.5872 38.5 27.25 38.5C24.9128 38.5 22.7155 37.5899 21.0627 35.9371C19.4101 34.2845 18.5 32.0872 18.5 29.75C18.5 27.4128 19.4101 25.2155 21.0629 23.5627C22.7155 21.9101 24.9128 21 27.25 21C29.5872 21 31.7845 21.9101 33.4372 23.5629C34.7914 24.917 35.6461 26.6371 35.911 28.5H31.402C31.547 28.1525 31.5354 27.7442 31.3325 27.393ZM51.0085 33.7407L48.2677 31H56.9914L59.7323 33.7407H51.0085Z" fill="black"/>
</g>
<defs>
<clipPath id="clip0">
<rect width="64" height="64" fill="white"/>
</clipPath>
</defs>
</svg>
