<svg width="1754" height="178" viewBox="0 0 1754 178" fill="none" xmlns="http://www.w3.org/2000/svg">
<path d="M59.9324 121.633V76.855" stroke="url(#paint0_linear_101:106)" stroke-width="8" stroke-miterlimit="10"/>
<path d="M79.6179 129.58V68.9084" stroke="url(#paint1_linear_101:106)" stroke-width="8" stroke-miterlimit="10"/>
<path d="M99.3037 126.194V60.9614" stroke="url(#paint2_linear_101:106)" stroke-width="8" stroke-miterlimit="10"/>
<path d="M119.208 145.474V68.9084" stroke="url(#paint3_linear_101:106)" stroke-width="8" stroke-miterlimit="10"/>
<path d="M138.894 153.49V44.9988" stroke="url(#paint4_linear_101:106)" stroke-width="8" stroke-miterlimit="10"/>
<path d="M158.58 137.527V37.052" stroke="url(#paint5_linear_101:106)" stroke-width="8" stroke-miterlimit="10"/>
<path d="M178.484 169.383V49.6287" stroke="url(#paint6_linear_101:106)" stroke-width="8" stroke-miterlimit="10"/>
<path d="M198.17 158.534V21.0894" stroke="url(#paint7_linear_101:106)" stroke-width="8" stroke-miterlimit="10"/>
<path d="M218.074 163.175V50.5627" stroke="url(#paint8_linear_101:106)" stroke-width="8" stroke-miterlimit="10"/>
<path d="M375.998 121.634V76.8555" stroke="url(#paint9_linear_101:106)" stroke-width="8" stroke-miterlimit="10"/>
<path d="M356.312 129.58V68.9084" stroke="url(#paint10_linear_101:106)" stroke-width="8" stroke-miterlimit="10"/>
<path d="M336.626 126.195V60.9619" stroke="url(#paint11_linear_101:106)" stroke-width="8" stroke-miterlimit="10"/>
<path d="M316.722 145.474V68.9084" stroke="url(#paint12_linear_101:106)" stroke-width="8" stroke-miterlimit="10"/>
<path d="M297.036 153.49V44.9993" stroke="url(#paint13_linear_101:106)" stroke-width="8" stroke-miterlimit="10"/>
<path d="M277.351 137.527V68.9084" stroke="url(#paint14_linear_101:106)" stroke-width="8" stroke-miterlimit="10"/>
<path d="M257.446 169.383V49.6289" stroke="url(#paint15_linear_101:106)" stroke-width="8" stroke-miterlimit="10"/>
<path d="M237.76 129.58V37.0522" stroke="url(#paint16_linear_101:106)" stroke-width="8" stroke-miterlimit="10"/>
<path d="M692.282 121.633V76.855" stroke="url(#paint17_linear_101:106)" stroke-width="8" stroke-miterlimit="10"/>
<path d="M672.597 129.58V60.9614" stroke="url(#paint18_linear_101:106)" stroke-width="8" stroke-miterlimit="10"/>
<path d="M652.692 126.194V81.554" stroke="url(#paint19_linear_101:106)" stroke-width="8" stroke-miterlimit="10"/>
<path d="M633.006 145.474V68.9082" stroke="url(#paint20_linear_101:106)" stroke-width="8" stroke-miterlimit="10"/>
<path d="M613.321 129.58V70.7739" stroke="url(#paint21_linear_101:106)" stroke-width="8" stroke-miterlimit="10"/>
<path d="M593.416 137.527V60.9614" stroke="url(#paint22_linear_101:106)" stroke-width="8" stroke-miterlimit="10"/>
<path d="M573.73 160.42V58.21" stroke="url(#paint23_linear_101:106)" stroke-width="8" stroke-miterlimit="10"/>
<path d="M554.045 157.049V41.6819" stroke="url(#paint24_linear_101:106)" stroke-width="8" stroke-miterlimit="10"/>
<path d="M534.14 169.383V53.0706" stroke="url(#paint25_linear_101:106)" stroke-width="8" stroke-miterlimit="10"/>
<path d="M395.902 129.58V68.908" stroke="url(#paint26_linear_101:106)" stroke-width="8" stroke-miterlimit="10"/>
<path d="M415.588 126.194V60.9612" stroke="url(#paint27_linear_101:106)" stroke-width="8" stroke-miterlimit="10"/>
<path d="M435.274 145.473V68.908" stroke="url(#paint28_linear_101:106)" stroke-width="8" stroke-miterlimit="10"/>
<path d="M455.178 126.194V76.8547" stroke="url(#paint29_linear_101:106)" stroke-width="8" stroke-miterlimit="10"/>
<path d="M474.864 137.527V63.4487" stroke="url(#paint30_linear_101:106)" stroke-width="8" stroke-miterlimit="10"/>
<path d="M494.769 142.226V49.6284" stroke="url(#paint31_linear_101:106)" stroke-width="8" stroke-miterlimit="10"/>
<path d="M514.454 158.534V21.0891" stroke="url(#paint32_linear_101:106)" stroke-width="8" stroke-miterlimit="10"/>
<path d="M1324.85 121.634V76.8555" stroke="url(#paint33_linear_101:106)" stroke-width="8" stroke-miterlimit="10"/>
<path d="M1304.95 129.58V68.9084" stroke="url(#paint34_linear_101:106)" stroke-width="8" stroke-miterlimit="10"/>
<path d="M1285.26 126.195V60.9619" stroke="url(#paint35_linear_101:106)" stroke-width="8" stroke-miterlimit="10"/>
<path d="M1265.57 145.474V68.9084" stroke="url(#paint36_linear_101:106)" stroke-width="8" stroke-miterlimit="10"/>
<path d="M1245.67 158.694V69.5166" stroke="url(#paint37_linear_101:106)" stroke-width="8" stroke-miterlimit="10"/>
<path d="M1225.98 137.527V37.0522" stroke="url(#paint38_linear_101:106)" stroke-width="8" stroke-miterlimit="10"/>
<path d="M1206.3 145.474V49.6289" stroke="url(#paint39_linear_101:106)" stroke-width="8" stroke-miterlimit="10"/>
<path d="M1186.39 158.534V70.7742" stroke="url(#paint40_linear_101:106)" stroke-width="8" stroke-miterlimit="10"/>
<path d="M1166.71 154.952V50.5627" stroke="url(#paint41_linear_101:106)" stroke-width="8" stroke-miterlimit="10"/>
<path d="M1008.57 121.634V76.8555" stroke="url(#paint42_linear_101:106)" stroke-width="8" stroke-miterlimit="10"/>
<path d="M1028.25 129.58V68.9084" stroke="url(#paint43_linear_101:106)" stroke-width="8" stroke-miterlimit="10"/>
<path d="M1048.16 126.195V60.9619" stroke="url(#paint44_linear_101:106)" stroke-width="8" stroke-miterlimit="10"/>
<path d="M1067.84 145.474V68.9084" stroke="url(#paint45_linear_101:106)" stroke-width="8" stroke-miterlimit="10"/>
<path d="M1087.53 153.49V44.9993" stroke="url(#paint46_linear_101:106)" stroke-width="8" stroke-miterlimit="10"/>
<path d="M1107.43 137.527V68.9084" stroke="url(#paint47_linear_101:106)" stroke-width="8" stroke-miterlimit="10"/>
<path d="M1127.12 169.383V49.6289" stroke="url(#paint48_linear_101:106)" stroke-width="8" stroke-miterlimit="10"/>
<path d="M1147.02 150.933V37.0522" stroke="url(#paint49_linear_101:106)" stroke-width="8" stroke-miterlimit="10"/>
<path d="M1344.54 114.654V68.9084" stroke="url(#paint50_linear_101:106)" stroke-width="8" stroke-miterlimit="10"/>
<path d="M1364.22 126.195V76.8555" stroke="url(#paint51_linear_101:106)" stroke-width="8" stroke-miterlimit="10"/>
<path d="M1384.13 158.534V68.9084" stroke="url(#paint52_linear_101:106)" stroke-width="8" stroke-miterlimit="10"/>
<path d="M1403.81 154.952V60.5537" stroke="url(#paint53_linear_101:106)" stroke-width="8" stroke-miterlimit="10"/>
<path d="M1423.72 137.527V37.0522" stroke="url(#paint54_linear_101:106)" stroke-width="8" stroke-miterlimit="10"/>
<path d="M1443.4 145.474V49.6289" stroke="url(#paint55_linear_101:106)" stroke-width="8" stroke-miterlimit="10"/>
<path d="M1463.09 141.328V70.7742" stroke="url(#paint56_linear_101:106)" stroke-width="8" stroke-miterlimit="10"/>
<path d="M1482.99 163.833V50.5627" stroke="url(#paint57_linear_101:106)" stroke-width="8" stroke-miterlimit="10"/>
<path d="M1641.14 121.633V76.8547" stroke="url(#paint58_linear_101:106)" stroke-width="8" stroke-miterlimit="10"/>
<path d="M1621.23 129.58V68.908" stroke="url(#paint59_linear_101:106)" stroke-width="8" stroke-miterlimit="10"/>
<path d="M1601.54 126.194V60.9612" stroke="url(#paint60_linear_101:106)" stroke-width="8" stroke-miterlimit="10"/>
<path d="M1581.64 145.473V68.908" stroke="url(#paint61_linear_101:106)" stroke-width="8" stroke-miterlimit="10"/>
<path d="M1561.95 126.194V85.6309" stroke="url(#paint62_linear_101:106)" stroke-width="8" stroke-miterlimit="10"/>
<path d="M1542.27 137.527V68.908" stroke="url(#paint63_linear_101:106)" stroke-width="8" stroke-miterlimit="10"/>
<path d="M1522.36 169.383V49.6284" stroke="url(#paint64_linear_101:106)" stroke-width="8" stroke-miterlimit="10"/>
<path d="M1502.68 150.933V56.8152" stroke="url(#paint65_linear_101:106)" stroke-width="8" stroke-miterlimit="10"/>
<path d="M1660.82 127.645L1660.82 87.2896" stroke="url(#paint66_linear_101:106)" stroke-width="8" stroke-miterlimit="10"/>
<path d="M1680.51 126.194V60.9614" stroke="url(#paint67_linear_101:106)" stroke-width="8" stroke-miterlimit="10"/>
<path d="M1700.41 145.474V68.9082" stroke="url(#paint68_linear_101:106)" stroke-width="8" stroke-miterlimit="10"/>
<path d="M712.187 129.58V60.9614" stroke="url(#paint69_linear_101:106)" stroke-width="8" stroke-miterlimit="10"/>
<path d="M731.873 126.194V81.554" stroke="url(#paint70_linear_101:106)" stroke-width="8" stroke-miterlimit="10"/>
<path d="M751.558 145.474V68.9082" stroke="url(#paint71_linear_101:106)" stroke-width="8" stroke-miterlimit="10"/>
<path d="M771.462 129.58V70.7742" stroke="url(#paint72_linear_101:106)" stroke-width="8" stroke-miterlimit="10"/>
<path d="M791.148 137.527V60.9614" stroke="url(#paint73_linear_101:106)" stroke-width="8" stroke-miterlimit="10"/>
<path d="M810.834 174.359V25.9956" stroke="url(#paint74_linear_101:106)" stroke-width="8" stroke-miterlimit="10"/>
<path d="M830.738 157.049V64.7881" stroke="url(#paint75_linear_101:106)" stroke-width="8" stroke-miterlimit="10"/>
<path d="M850.424 177.745V19.5" stroke="url(#paint76_linear_101:106)" stroke-width="8" stroke-miterlimit="10"/>
<path d="M988.881 129.58V68.9082" stroke="url(#paint77_linear_101:106)" stroke-width="8" stroke-miterlimit="10"/>
<path d="M968.976 126.194V60.9614" stroke="url(#paint78_linear_101:106)" stroke-width="8" stroke-miterlimit="10"/>
<path d="M949.291 145.474V68.9082" stroke="url(#paint79_linear_101:106)" stroke-width="8" stroke-miterlimit="10"/>
<path d="M929.605 126.194V76.855" stroke="url(#paint80_linear_101:106)" stroke-width="8" stroke-miterlimit="10"/>
<path d="M909.7 137.527V63.449" stroke="url(#paint81_linear_101:106)" stroke-width="8" stroke-miterlimit="10"/>
<path d="M890.015 142.226V76.855" stroke="url(#paint82_linear_101:106)" stroke-width="8" stroke-miterlimit="10"/>
<path d="M870.11 142.226V63.449" stroke="url(#paint83_linear_101:106)" stroke-width="8" stroke-miterlimit="10"/>
<path d="M1753.34 125.503C1696.91 142.571 1603.51 146.303 1536.8 133.173C1471.62 120.32 1438.15 94.9598 1371.22 83.1433C1309.76 72.2942 1231.45 75.3347 1168.68 85.3545C1073.97 100.488 1016 129.442 929.167 147.754C883.671 157.29 826.364 163.026 774.087 157.981C719.405 152.729 681.564 137.181 651.598 121.772C607.196 98.8295 571.324 74.229 520.797 52.6C470.271 30.9709 401.152 12.0368 317.597 6.92324C198.826 -0.332522 82.0238 21.9876 1.09346 51.1488" stroke="url(#paint84_linear_101:106)" stroke-width="6" stroke-miterlimit="10"/>
<path d="M1442.37 108.366C1442.37 108.72 1442.6 109.151 1443.24 109.625C1443.87 110.09 1444.81 110.532 1446.01 110.912C1448.41 111.67 1451.75 112.15 1455.43 112.15C1459.11 112.15 1462.45 111.67 1464.85 110.912C1466.05 110.532 1466.99 110.09 1467.62 109.625C1468.26 109.151 1468.49 108.72 1468.49 108.366C1468.49 108.012 1468.26 107.58 1467.62 107.107C1466.99 106.641 1466.05 106.199 1464.85 105.819C1462.45 105.061 1459.11 104.581 1455.43 104.581C1451.75 104.581 1448.41 105.061 1446.01 105.819C1444.81 106.199 1443.87 106.641 1443.24 107.107C1442.6 107.58 1442.37 108.012 1442.37 108.366Z" fill="#662D91" stroke="url(#paint85_linear_101:106)"/>
<path d="M1186.39 81.3466C1186.39 83.6961 1192.52 85.631 1199.96 85.631C1207.39 85.631 1213.52 83.6961 1213.52 81.3466C1213.52 78.9971 1207.39 77.0623 1199.96 77.0623C1192.52 77.0623 1186.39 78.9971 1186.39 81.3466Z" fill="#662D91"/>
<path d="M918.449 146.718C918.449 149.067 924.574 151.002 932.011 151.002C939.447 151.002 945.572 149.067 945.572 146.718C945.572 144.368 939.447 142.433 932.011 142.433C924.574 142.433 918.449 144.368 918.449 146.718Z" fill="#662D91"/>
<path d="M724.654 152.73C724.654 155.079 730.779 157.014 738.216 157.014C745.652 157.014 751.777 155.079 751.777 152.73C751.777 150.38 745.652 148.445 738.216 148.445C730.779 148.445 724.654 150.311 724.654 152.73Z" fill="#662D91"/>
<path d="M571.762 85.0783C571.762 87.4278 577.886 89.3627 585.323 89.3627C592.76 89.3627 598.884 87.4278 598.884 85.0783C598.884 82.7288 592.76 80.7939 585.323 80.7939C577.886 80.7939 571.762 82.7288 571.762 85.0783Z" fill="#662D91"/>
<path d="M279.975 9.20372C272.485 9.20372 266.414 7.28555 266.414 4.91936C266.414 2.55318 272.485 0.63501 279.975 0.63501C287.465 0.63501 293.536 2.55318 293.536 4.91936C293.536 7.28555 287.465 9.20372 279.975 9.20372Z" fill="#662D91"/>
<defs>
<linearGradient id="paint0_linear_101:106" x1="59.8816" y1="76.855" x2="58.8553" y2="76.8567" gradientUnits="userSpaceOnUse">
<stop stop-color="#516BAE"/>
<stop offset="1" stop-color="#4869A7"/>
</linearGradient>
<linearGradient id="paint1_linear_101:106" x1="79.5671" y1="68.9084" x2="78.5408" y2="68.9097" gradientUnits="userSpaceOnUse">
<stop stop-color="#516BAE"/>
<stop offset="1" stop-color="#4869A7"/>
</linearGradient>
<linearGradient id="paint2_linear_101:106" x1="99.2529" y1="60.9614" x2="98.2266" y2="60.9626" gradientUnits="userSpaceOnUse">
<stop stop-color="#516BAE"/>
<stop offset="1" stop-color="#4869A7"/>
</linearGradient>
<linearGradient id="paint3_linear_101:106" x1="119.157" y1="68.9084" x2="118.131" y2="68.9095" gradientUnits="userSpaceOnUse">
<stop stop-color="#516BAE"/>
<stop offset="1" stop-color="#4869A7"/>
</linearGradient>
<linearGradient id="paint4_linear_101:106" x1="138.843" y1="44.9988" x2="137.817" y2="44.9995" gradientUnits="userSpaceOnUse">
<stop stop-color="#516BAE"/>
<stop offset="1" stop-color="#4869A7"/>
</linearGradient>
<linearGradient id="paint5_linear_101:106" x1="158.529" y1="37.052" x2="157.503" y2="37.0528" gradientUnits="userSpaceOnUse">
<stop stop-color="#516BAE"/>
<stop offset="1" stop-color="#4869A7"/>
</linearGradient>
<linearGradient id="paint6_linear_101:106" x1="178.433" y1="49.6286" x2="177.407" y2="49.6293" gradientUnits="userSpaceOnUse">
<stop stop-color="#516BAE"/>
<stop offset="1" stop-color="#4869A7"/>
</linearGradient>
<linearGradient id="paint7_linear_101:106" x1="198.119" y1="21.0893" x2="197.093" y2="21.0899" gradientUnits="userSpaceOnUse">
<stop stop-color="#516BAE"/>
<stop offset="1" stop-color="#4869A7"/>
</linearGradient>
<linearGradient id="paint8_linear_101:106" x1="218.024" y1="50.5627" x2="216.997" y2="50.5634" gradientUnits="userSpaceOnUse">
<stop stop-color="#516BAE"/>
<stop offset="1" stop-color="#4869A7"/>
</linearGradient>
<linearGradient id="paint9_linear_101:106" x1="375.947" y1="76.8555" x2="374.921" y2="76.8572" gradientUnits="userSpaceOnUse">
<stop stop-color="#516BAE"/>
<stop offset="1" stop-color="#4869A7"/>
</linearGradient>
<linearGradient id="paint10_linear_101:106" x1="356.261" y1="68.9084" x2="355.235" y2="68.9097" gradientUnits="userSpaceOnUse">
<stop stop-color="#516BAE"/>
<stop offset="1" stop-color="#4869A7"/>
</linearGradient>
<linearGradient id="paint11_linear_101:106" x1="336.576" y1="60.9619" x2="335.549" y2="60.9631" gradientUnits="userSpaceOnUse">
<stop stop-color="#516BAE"/>
<stop offset="1" stop-color="#4869A7"/>
</linearGradient>
<linearGradient id="paint12_linear_101:106" x1="316.671" y1="68.9084" x2="315.645" y2="68.9095" gradientUnits="userSpaceOnUse">
<stop stop-color="#516BAE"/>
<stop offset="1" stop-color="#4869A7"/>
</linearGradient>
<linearGradient id="paint13_linear_101:106" x1="296.986" y1="44.9992" x2="295.959" y2="45" gradientUnits="userSpaceOnUse">
<stop stop-color="#516BAE"/>
<stop offset="1" stop-color="#4869A7"/>
</linearGradient>
<linearGradient id="paint14_linear_101:106" x1="277.3" y1="68.9084" x2="276.273" y2="68.9096" gradientUnits="userSpaceOnUse">
<stop stop-color="#516BAE"/>
<stop offset="1" stop-color="#4869A7"/>
</linearGradient>
<linearGradient id="paint15_linear_101:106" x1="257.395" y1="49.6289" x2="256.369" y2="49.6295" gradientUnits="userSpaceOnUse">
<stop stop-color="#516BAE"/>
<stop offset="1" stop-color="#4869A7"/>
</linearGradient>
<linearGradient id="paint16_linear_101:106" x1="237.709" y1="37.0522" x2="236.683" y2="37.0531" gradientUnits="userSpaceOnUse">
<stop stop-color="#516BAE"/>
<stop offset="1" stop-color="#4869A7"/>
</linearGradient>
<linearGradient id="paint17_linear_101:106" x1="692.231" y1="76.855" x2="691.205" y2="76.8567" gradientUnits="userSpaceOnUse">
<stop stop-color="#516BAE"/>
<stop offset="1" stop-color="#4869A7"/>
</linearGradient>
<linearGradient id="paint18_linear_101:106" x1="672.546" y1="60.9614" x2="671.52" y2="60.9626" gradientUnits="userSpaceOnUse">
<stop stop-color="#516BAE"/>
<stop offset="1" stop-color="#4869A7"/>
</linearGradient>
<linearGradient id="paint19_linear_101:106" x1="652.641" y1="81.5539" x2="651.615" y2="81.5557" gradientUnits="userSpaceOnUse">
<stop stop-color="#516BAE"/>
<stop offset="1" stop-color="#4869A7"/>
</linearGradient>
<linearGradient id="paint20_linear_101:106" x1="632.956" y1="68.9082" x2="631.929" y2="68.9092" gradientUnits="userSpaceOnUse">
<stop stop-color="#516BAE"/>
<stop offset="1" stop-color="#4869A7"/>
</linearGradient>
<linearGradient id="paint21_linear_101:106" x1="613.27" y1="70.7739" x2="612.243" y2="70.7753" gradientUnits="userSpaceOnUse">
<stop stop-color="#516BAE"/>
<stop offset="1" stop-color="#4869A7"/>
</linearGradient>
<linearGradient id="paint22_linear_101:106" x1="593.365" y1="60.9614" x2="592.339" y2="60.9624" gradientUnits="userSpaceOnUse">
<stop stop-color="#516BAE"/>
<stop offset="1" stop-color="#4869A7"/>
</linearGradient>
<linearGradient id="paint23_linear_101:106" x1="573.68" y1="58.2099" x2="572.653" y2="58.2107" gradientUnits="userSpaceOnUse">
<stop stop-color="#516BAE"/>
<stop offset="1" stop-color="#4869A7"/>
</linearGradient>
<linearGradient id="paint24_linear_101:106" x1="553.994" y1="41.6819" x2="552.968" y2="41.6825" gradientUnits="userSpaceOnUse">
<stop stop-color="#516BAE"/>
<stop offset="1" stop-color="#4869A7"/>
</linearGradient>
<linearGradient id="paint25_linear_101:106" x1="534.089" y1="53.0705" x2="533.063" y2="53.0712" gradientUnits="userSpaceOnUse">
<stop stop-color="#516BAE"/>
<stop offset="1" stop-color="#4869A7"/>
</linearGradient>
<linearGradient id="paint26_linear_101:106" x1="395.852" y1="68.9079" x2="394.825" y2="68.9092" gradientUnits="userSpaceOnUse">
<stop stop-color="#516BAE"/>
<stop offset="1" stop-color="#4869A7"/>
</linearGradient>
<linearGradient id="paint27_linear_101:106" x1="415.537" y1="60.9612" x2="414.511" y2="60.9624" gradientUnits="userSpaceOnUse">
<stop stop-color="#516BAE"/>
<stop offset="1" stop-color="#4869A7"/>
</linearGradient>
<linearGradient id="paint28_linear_101:106" x1="435.223" y1="68.9079" x2="434.197" y2="68.909" gradientUnits="userSpaceOnUse">
<stop stop-color="#516BAE"/>
<stop offset="1" stop-color="#4869A7"/>
</linearGradient>
<linearGradient id="paint29_linear_101:106" x1="455.128" y1="76.8547" x2="454.101" y2="76.8563" gradientUnits="userSpaceOnUse">
<stop stop-color="#516BAE"/>
<stop offset="1" stop-color="#4869A7"/>
</linearGradient>
<linearGradient id="paint30_linear_101:106" x1="474.813" y1="63.4487" x2="473.787" y2="63.4498" gradientUnits="userSpaceOnUse">
<stop stop-color="#516BAE"/>
<stop offset="1" stop-color="#4869A7"/>
</linearGradient>
<linearGradient id="paint31_linear_101:106" x1="494.718" y1="49.6284" x2="493.691" y2="49.6293" gradientUnits="userSpaceOnUse">
<stop stop-color="#516BAE"/>
<stop offset="1" stop-color="#4869A7"/>
</linearGradient>
<linearGradient id="paint32_linear_101:106" x1="514.404" y1="21.0891" x2="513.377" y2="21.0897" gradientUnits="userSpaceOnUse">
<stop stop-color="#516BAE"/>
<stop offset="1" stop-color="#4869A7"/>
</linearGradient>
<linearGradient id="paint33_linear_101:106" x1="1324.8" y1="76.8555" x2="1323.77" y2="76.8572" gradientUnits="userSpaceOnUse">
<stop stop-color="#516BAE"/>
<stop offset="1" stop-color="#4869A7"/>
</linearGradient>
<linearGradient id="paint34_linear_101:106" x1="1304.9" y1="68.9084" x2="1303.87" y2="68.9097" gradientUnits="userSpaceOnUse">
<stop stop-color="#516BAE"/>
<stop offset="1" stop-color="#4869A7"/>
</linearGradient>
<linearGradient id="paint35_linear_101:106" x1="1285.21" y1="60.9619" x2="1284.18" y2="60.9631" gradientUnits="userSpaceOnUse">
<stop stop-color="#516BAE"/>
<stop offset="1" stop-color="#4869A7"/>
</linearGradient>
<linearGradient id="paint36_linear_101:106" x1="1265.52" y1="68.9084" x2="1264.5" y2="68.9095" gradientUnits="userSpaceOnUse">
<stop stop-color="#516BAE"/>
<stop offset="1" stop-color="#4869A7"/>
</linearGradient>
<linearGradient id="paint37_linear_101:106" x1="1245.62" y1="69.5166" x2="1244.59" y2="69.5175" gradientUnits="userSpaceOnUse">
<stop stop-color="#516BAE"/>
<stop offset="1" stop-color="#4869A7"/>
</linearGradient>
<linearGradient id="paint38_linear_101:106" x1="1225.93" y1="37.0522" x2="1224.91" y2="37.053" gradientUnits="userSpaceOnUse">
<stop stop-color="#516BAE"/>
<stop offset="1" stop-color="#4869A7"/>
</linearGradient>
<linearGradient id="paint39_linear_101:106" x1="1206.25" y1="49.6289" x2="1205.22" y2="49.6297" gradientUnits="userSpaceOnUse">
<stop stop-color="#516BAE"/>
<stop offset="1" stop-color="#4869A7"/>
</linearGradient>
<linearGradient id="paint40_linear_101:106" x1="1186.34" y1="70.7741" x2="1185.32" y2="70.7751" gradientUnits="userSpaceOnUse">
<stop stop-color="#516BAE"/>
<stop offset="1" stop-color="#4869A7"/>
</linearGradient>
<linearGradient id="paint41_linear_101:106" x1="1166.66" y1="50.5627" x2="1165.63" y2="50.5635" gradientUnits="userSpaceOnUse">
<stop stop-color="#516BAE"/>
<stop offset="1" stop-color="#4869A7"/>
</linearGradient>
<linearGradient id="paint42_linear_101:106" x1="1008.52" y1="76.8555" x2="1007.49" y2="76.8572" gradientUnits="userSpaceOnUse">
<stop stop-color="#516BAE"/>
<stop offset="1" stop-color="#4869A7"/>
</linearGradient>
<linearGradient id="paint43_linear_101:106" x1="1028.2" y1="68.9084" x2="1027.18" y2="68.9097" gradientUnits="userSpaceOnUse">
<stop stop-color="#516BAE"/>
<stop offset="1" stop-color="#4869A7"/>
</linearGradient>
<linearGradient id="paint44_linear_101:106" x1="1048.11" y1="60.9619" x2="1047.08" y2="60.9631" gradientUnits="userSpaceOnUse">
<stop stop-color="#516BAE"/>
<stop offset="1" stop-color="#4869A7"/>
</linearGradient>
<linearGradient id="paint45_linear_101:106" x1="1067.79" y1="68.9084" x2="1066.77" y2="68.9095" gradientUnits="userSpaceOnUse">
<stop stop-color="#516BAE"/>
<stop offset="1" stop-color="#4869A7"/>
</linearGradient>
<linearGradient id="paint46_linear_101:106" x1="1087.48" y1="44.9992" x2="1086.45" y2="45" gradientUnits="userSpaceOnUse">
<stop stop-color="#516BAE"/>
<stop offset="1" stop-color="#4869A7"/>
</linearGradient>
<linearGradient id="paint47_linear_101:106" x1="1107.38" y1="68.9084" x2="1106.36" y2="68.9096" gradientUnits="userSpaceOnUse">
<stop stop-color="#516BAE"/>
<stop offset="1" stop-color="#4869A7"/>
</linearGradient>
<linearGradient id="paint48_linear_101:106" x1="1127.07" y1="49.6289" x2="1126.04" y2="49.6295" gradientUnits="userSpaceOnUse">
<stop stop-color="#516BAE"/>
<stop offset="1" stop-color="#4869A7"/>
</linearGradient>
<linearGradient id="paint49_linear_101:106" x1="1146.97" y1="37.0522" x2="1145.95" y2="37.0529" gradientUnits="userSpaceOnUse">
<stop stop-color="#516BAE"/>
<stop offset="1" stop-color="#4869A7"/>
</linearGradient>
<linearGradient id="paint50_linear_101:106" x1="1344.49" y1="68.9084" x2="1343.46" y2="68.9102" gradientUnits="userSpaceOnUse">
<stop stop-color="#516BAE"/>
<stop offset="1" stop-color="#4869A7"/>
</linearGradient>
<linearGradient id="paint51_linear_101:106" x1="1364.17" y1="76.8555" x2="1363.15" y2="76.8571" gradientUnits="userSpaceOnUse">
<stop stop-color="#516BAE"/>
<stop offset="1" stop-color="#4869A7"/>
</linearGradient>
<linearGradient id="paint52_linear_101:106" x1="1384.08" y1="68.9084" x2="1383.05" y2="68.9093" gradientUnits="userSpaceOnUse">
<stop stop-color="#516BAE"/>
<stop offset="1" stop-color="#4869A7"/>
</linearGradient>
<linearGradient id="paint53_linear_101:106" x1="1403.76" y1="60.5537" x2="1402.74" y2="60.5545" gradientUnits="userSpaceOnUse">
<stop stop-color="#516BAE"/>
<stop offset="1" stop-color="#4869A7"/>
</linearGradient>
<linearGradient id="paint54_linear_101:106" x1="1423.67" y1="37.0522" x2="1422.64" y2="37.053" gradientUnits="userSpaceOnUse">
<stop stop-color="#516BAE"/>
<stop offset="1" stop-color="#4869A7"/>
</linearGradient>
<linearGradient id="paint55_linear_101:106" x1="1443.35" y1="49.6289" x2="1442.33" y2="49.6297" gradientUnits="userSpaceOnUse">
<stop stop-color="#516BAE"/>
<stop offset="1" stop-color="#4869A7"/>
</linearGradient>
<linearGradient id="paint56_linear_101:106" x1="1463.04" y1="70.7742" x2="1462.01" y2="70.7753" gradientUnits="userSpaceOnUse">
<stop stop-color="#516BAE"/>
<stop offset="1" stop-color="#4869A7"/>
</linearGradient>
<linearGradient id="paint57_linear_101:106" x1="1482.94" y1="50.5627" x2="1481.92" y2="50.5634" gradientUnits="userSpaceOnUse">
<stop stop-color="#516BAE"/>
<stop offset="1" stop-color="#4869A7"/>
</linearGradient>
<linearGradient id="paint58_linear_101:106" x1="1641.08" y1="76.8547" x2="1640.06" y2="76.8565" gradientUnits="userSpaceOnUse">
<stop stop-color="#516BAE"/>
<stop offset="1" stop-color="#4869A7"/>
</linearGradient>
<linearGradient id="paint59_linear_101:106" x1="1621.18" y1="68.9079" x2="1620.15" y2="68.9092" gradientUnits="userSpaceOnUse">
<stop stop-color="#516BAE"/>
<stop offset="1" stop-color="#4869A7"/>
</linearGradient>
<linearGradient id="paint60_linear_101:106" x1="1601.49" y1="60.9612" x2="1600.47" y2="60.9624" gradientUnits="userSpaceOnUse">
<stop stop-color="#516BAE"/>
<stop offset="1" stop-color="#4869A7"/>
</linearGradient>
<linearGradient id="paint61_linear_101:106" x1="1581.59" y1="68.9079" x2="1580.56" y2="68.909" gradientUnits="userSpaceOnUse">
<stop stop-color="#516BAE"/>
<stop offset="1" stop-color="#4869A7"/>
</linearGradient>
<linearGradient id="paint62_linear_101:106" x1="1561.9" y1="85.6308" x2="1560.88" y2="85.6328" gradientUnits="userSpaceOnUse">
<stop stop-color="#516BAE"/>
<stop offset="1" stop-color="#4869A7"/>
</linearGradient>
<linearGradient id="paint63_linear_101:106" x1="1542.22" y1="68.9079" x2="1541.19" y2="68.9091" gradientUnits="userSpaceOnUse">
<stop stop-color="#516BAE"/>
<stop offset="1" stop-color="#4869A7"/>
</linearGradient>
<linearGradient id="paint64_linear_101:106" x1="1522.31" y1="49.6284" x2="1521.29" y2="49.6291" gradientUnits="userSpaceOnUse">
<stop stop-color="#516BAE"/>
<stop offset="1" stop-color="#4869A7"/>
</linearGradient>
<linearGradient id="paint65_linear_101:106" x1="1502.63" y1="56.8152" x2="1501.6" y2="56.816" gradientUnits="userSpaceOnUse">
<stop stop-color="#516BAE"/>
<stop offset="1" stop-color="#4869A7"/>
</linearGradient>
<linearGradient id="paint66_linear_101:106" x1="1660.77" y1="87.2895" x2="1659.74" y2="87.2915" gradientUnits="userSpaceOnUse">
<stop stop-color="#516BAE"/>
<stop offset="1" stop-color="#4869A7"/>
</linearGradient>
<linearGradient id="paint67_linear_101:106" x1="-nan" y1="-nan" x2="-nan" y2="-nan" gradientUnits="userSpaceOnUse">
<stop stop-color="#4301FF" stop-opacity="0"/>
<stop offset="1" stop-color="#662D91"/>
</linearGradient>
<linearGradient id="paint68_linear_101:106" x1="-nan" y1="-nan" x2="-nan" y2="-nan" gradientUnits="userSpaceOnUse">
<stop stop-color="#4301FF" stop-opacity="0"/>
<stop offset="1" stop-color="#662D91"/>
</linearGradient>
<linearGradient id="paint69_linear_101:106" x1="712.136" y1="60.9614" x2="711.109" y2="60.9626" gradientUnits="userSpaceOnUse">
<stop stop-color="#516BAE"/>
<stop offset="1" stop-color="#4869A7"/>
</linearGradient>
<linearGradient id="paint70_linear_101:106" x1="731.822" y1="81.5539" x2="730.795" y2="81.5557" gradientUnits="userSpaceOnUse">
<stop stop-color="#516BAE"/>
<stop offset="1" stop-color="#4869A7"/>
</linearGradient>
<linearGradient id="paint71_linear_101:106" x1="751.507" y1="68.9082" x2="750.481" y2="68.9092" gradientUnits="userSpaceOnUse">
<stop stop-color="#516BAE"/>
<stop offset="1" stop-color="#4869A7"/>
</linearGradient>
<linearGradient id="paint72_linear_101:106" x1="771.412" y1="70.7742" x2="770.385" y2="70.7755" gradientUnits="userSpaceOnUse">
<stop stop-color="#516BAE"/>
<stop offset="1" stop-color="#4869A7"/>
</linearGradient>
<linearGradient id="paint73_linear_101:106" x1="791.098" y1="60.9614" x2="790.071" y2="60.9624" gradientUnits="userSpaceOnUse">
<stop stop-color="#516BAE"/>
<stop offset="1" stop-color="#4869A7"/>
</linearGradient>
<linearGradient id="paint74_linear_101:106" x1="810.783" y1="25.9956" x2="809.757" y2="25.9961" gradientUnits="userSpaceOnUse">
<stop stop-color="#516BAE"/>
<stop offset="1" stop-color="#4869A7"/>
</linearGradient>
<linearGradient id="paint75_linear_101:106" x1="830.687" y1="64.7881" x2="829.661" y2="64.7889" gradientUnits="userSpaceOnUse">
<stop stop-color="#516BAE"/>
<stop offset="1" stop-color="#4869A7"/>
</linearGradient>
<linearGradient id="paint76_linear_101:106" x1="850.374" y1="19.5" x2="849.347" y2="19.5005" gradientUnits="userSpaceOnUse">
<stop stop-color="#516BAE"/>
<stop offset="1" stop-color="#4869A7"/>
</linearGradient>
<linearGradient id="paint77_linear_101:106" x1="988.83" y1="68.9082" x2="987.804" y2="68.9095" gradientUnits="userSpaceOnUse">
<stop stop-color="#516BAE"/>
<stop offset="1" stop-color="#4869A7"/>
</linearGradient>
<linearGradient id="paint78_linear_101:106" x1="968.925" y1="60.9614" x2="967.899" y2="60.9626" gradientUnits="userSpaceOnUse">
<stop stop-color="#516BAE"/>
<stop offset="1" stop-color="#4869A7"/>
</linearGradient>
<linearGradient id="paint79_linear_101:106" x1="949.24" y1="68.9082" x2="948.213" y2="68.9092" gradientUnits="userSpaceOnUse">
<stop stop-color="#516BAE"/>
<stop offset="1" stop-color="#4869A7"/>
</linearGradient>
<linearGradient id="paint80_linear_101:106" x1="929.554" y1="76.855" x2="928.528" y2="76.8566" gradientUnits="userSpaceOnUse">
<stop stop-color="#516BAE"/>
<stop offset="1" stop-color="#4869A7"/>
</linearGradient>
<linearGradient id="paint81_linear_101:106" x1="909.649" y1="63.449" x2="908.623" y2="63.45" gradientUnits="userSpaceOnUse">
<stop stop-color="#516BAE"/>
<stop offset="1" stop-color="#4869A7"/>
</linearGradient>
<linearGradient id="paint82_linear_101:106" x1="889.964" y1="76.855" x2="888.938" y2="76.8562" gradientUnits="userSpaceOnUse">
<stop stop-color="#516BAE"/>
<stop offset="1" stop-color="#4869A7"/>
</linearGradient>
<linearGradient id="paint83_linear_101:106" x1="870.059" y1="63.449" x2="869.033" y2="63.45" gradientUnits="userSpaceOnUse">
<stop stop-color="#516BAE"/>
<stop offset="1" stop-color="#4869A7"/>
</linearGradient>
<linearGradient id="paint84_linear_101:106" x1="1664.3" y1="5.54293" x2="646.353" y2="896.82" gradientUnits="userSpaceOnUse">
<stop stop-color="#516BAE"/>
<stop offset="1" stop-color="#4869A7"/>
</linearGradient>
<linearGradient id="paint85_linear_101:106" x1="1467.62" y1="104.081" x2="1441.35" y2="110.493" gradientUnits="userSpaceOnUse">
<stop stop-color="#516BAE"/>
<stop offset="1" stop-color="#4869A7"/>
</linearGradient>
</defs>
</svg>
