<svg width="1754" height="252" viewBox="0 0 1754 252" fill="none" xmlns="http://www.w3.org/2000/svg">
<g clip-path="url(#clip0_101:105)">
<path d="M59.9324 195.633V150.855" stroke="url(#paint0_linear_101:105)" stroke-width="8" stroke-miterlimit="10"/>
<path d="M79.6179 203.58V142.908" stroke="url(#paint1_linear_101:105)" stroke-width="8" stroke-miterlimit="10"/>
<path d="M99.3037 200.194V134.961" stroke="url(#paint2_linear_101:105)" stroke-width="8" stroke-miterlimit="10"/>
<path d="M119.208 219.474V142.908" stroke="url(#paint3_linear_101:105)" stroke-width="8" stroke-miterlimit="10"/>
<path d="M138.894 227.49V118.999" stroke="url(#paint4_linear_101:105)" stroke-width="8" stroke-miterlimit="10"/>
<path d="M158.58 211.527V111.052" stroke="url(#paint5_linear_101:105)" stroke-width="8" stroke-miterlimit="10"/>
<path d="M178.484 243.383V123.629" stroke="url(#paint6_linear_101:105)" stroke-width="8" stroke-miterlimit="10"/>
<path d="M198.17 232.534V95.0894" stroke="url(#paint7_linear_101:105)" stroke-width="8" stroke-miterlimit="10"/>
<path d="M218.074 237.175V124.563" stroke="url(#paint8_linear_101:105)" stroke-width="8" stroke-miterlimit="10"/>
<path d="M375.998 195.634V150.855" stroke="url(#paint9_linear_101:105)" stroke-width="8" stroke-miterlimit="10"/>
<path d="M356.312 203.58V142.908" stroke="url(#paint10_linear_101:105)" stroke-width="8" stroke-miterlimit="10"/>
<path d="M336.626 200.195V134.962" stroke="url(#paint11_linear_101:105)" stroke-width="8" stroke-miterlimit="10"/>
<path d="M316.722 219.474V142.908" stroke="url(#paint12_linear_101:105)" stroke-width="8" stroke-miterlimit="10"/>
<path d="M297.036 227.49V118.999" stroke="url(#paint13_linear_101:105)" stroke-width="8" stroke-miterlimit="10"/>
<path d="M277.351 211.527V142.908" stroke="url(#paint14_linear_101:105)" stroke-width="8" stroke-miterlimit="10"/>
<path d="M257.446 243.383V123.629" stroke="url(#paint15_linear_101:105)" stroke-width="8" stroke-miterlimit="10"/>
<path d="M237.76 203.58V111.052" stroke="url(#paint16_linear_101:105)" stroke-width="8" stroke-miterlimit="10"/>
<path d="M692.282 195.633V150.855" stroke="url(#paint17_linear_101:105)" stroke-width="8" stroke-miterlimit="10"/>
<path d="M672.597 203.58V134.961" stroke="url(#paint18_linear_101:105)" stroke-width="8" stroke-miterlimit="10"/>
<path d="M652.692 200.194V155.554" stroke="url(#paint19_linear_101:105)" stroke-width="8" stroke-miterlimit="10"/>
<path d="M633.006 219.474V142.908" stroke="url(#paint20_linear_101:105)" stroke-width="8" stroke-miterlimit="10"/>
<path d="M613.321 203.58V144.774" stroke="url(#paint21_linear_101:105)" stroke-width="8" stroke-miterlimit="10"/>
<path d="M593.416 211.527V134.961" stroke="url(#paint22_linear_101:105)" stroke-width="8" stroke-miterlimit="10"/>
<path d="M573.73 234.42V132.21" stroke="url(#paint23_linear_101:105)" stroke-width="8" stroke-miterlimit="10"/>
<path d="M554.045 231.049V115.682" stroke="url(#paint24_linear_101:105)" stroke-width="8" stroke-miterlimit="10"/>
<path d="M534.14 243.383V127.071" stroke="url(#paint25_linear_101:105)" stroke-width="8" stroke-miterlimit="10"/>
<path d="M395.902 203.58V142.908" stroke="url(#paint26_linear_101:105)" stroke-width="8" stroke-miterlimit="10"/>
<path d="M415.588 200.194V134.961" stroke="url(#paint27_linear_101:105)" stroke-width="8" stroke-miterlimit="10"/>
<path d="M435.274 219.473V142.908" stroke="url(#paint28_linear_101:105)" stroke-width="8" stroke-miterlimit="10"/>
<path d="M455.178 200.194V150.855" stroke="url(#paint29_linear_101:105)" stroke-width="8" stroke-miterlimit="10"/>
<path d="M474.864 211.527V137.449" stroke="url(#paint30_linear_101:105)" stroke-width="8" stroke-miterlimit="10"/>
<path d="M494.769 216.226V123.628" stroke="url(#paint31_linear_101:105)" stroke-width="8" stroke-miterlimit="10"/>
<path d="M514.454 232.534V95.0891" stroke="url(#paint32_linear_101:105)" stroke-width="8" stroke-miterlimit="10"/>
<path d="M1324.85 195.634V150.855" stroke="url(#paint33_linear_101:105)" stroke-width="8" stroke-miterlimit="10"/>
<path d="M1304.95 203.58V142.908" stroke="url(#paint34_linear_101:105)" stroke-width="8" stroke-miterlimit="10"/>
<path d="M1285.26 200.195V134.962" stroke="url(#paint35_linear_101:105)" stroke-width="8" stroke-miterlimit="10"/>
<path d="M1265.57 219.474V142.908" stroke="url(#paint36_linear_101:105)" stroke-width="8" stroke-miterlimit="10"/>
<path d="M1245.67 232.694V143.517" stroke="url(#paint37_linear_101:105)" stroke-width="8" stroke-miterlimit="10"/>
<path d="M1225.98 211.527V111.052" stroke="url(#paint38_linear_101:105)" stroke-width="8" stroke-miterlimit="10"/>
<path d="M1206.3 219.474V123.629" stroke="url(#paint39_linear_101:105)" stroke-width="8" stroke-miterlimit="10"/>
<path d="M1186.39 232.534V144.774" stroke="url(#paint40_linear_101:105)" stroke-width="8" stroke-miterlimit="10"/>
<path d="M1166.71 228.952V124.563" stroke="url(#paint41_linear_101:105)" stroke-width="8" stroke-miterlimit="10"/>
<path d="M1008.57 195.634V150.855" stroke="url(#paint42_linear_101:105)" stroke-width="8" stroke-miterlimit="10"/>
<path d="M1028.25 203.58V142.908" stroke="url(#paint43_linear_101:105)" stroke-width="8" stroke-miterlimit="10"/>
<path d="M1048.16 200.195V134.962" stroke="url(#paint44_linear_101:105)" stroke-width="8" stroke-miterlimit="10"/>
<path d="M1067.84 219.474V142.908" stroke="url(#paint45_linear_101:105)" stroke-width="8" stroke-miterlimit="10"/>
<path d="M1087.53 227.49V118.999" stroke="url(#paint46_linear_101:105)" stroke-width="8" stroke-miterlimit="10"/>
<path d="M1107.43 211.527V142.908" stroke="url(#paint47_linear_101:105)" stroke-width="8" stroke-miterlimit="10"/>
<path d="M1127.12 243.383V123.629" stroke="url(#paint48_linear_101:105)" stroke-width="8" stroke-miterlimit="10"/>
<path d="M1147.02 224.933V111.052" stroke="url(#paint49_linear_101:105)" stroke-width="8" stroke-miterlimit="10"/>
<path d="M1344.54 188.654V142.908" stroke="url(#paint50_linear_101:105)" stroke-width="8" stroke-miterlimit="10"/>
<path d="M1364.22 200.195V150.855" stroke="url(#paint51_linear_101:105)" stroke-width="8" stroke-miterlimit="10"/>
<path d="M1384.13 232.534V142.908" stroke="url(#paint52_linear_101:105)" stroke-width="8" stroke-miterlimit="10"/>
<path d="M1403.81 228.952V134.554" stroke="url(#paint53_linear_101:105)" stroke-width="8" stroke-miterlimit="10"/>
<path d="M1423.72 211.527V111.052" stroke="url(#paint54_linear_101:105)" stroke-width="8" stroke-miterlimit="10"/>
<path d="M1443.4 219.474V123.629" stroke="url(#paint55_linear_101:105)" stroke-width="8" stroke-miterlimit="10"/>
<path d="M1463.09 215.328V144.774" stroke="url(#paint56_linear_101:105)" stroke-width="8" stroke-miterlimit="10"/>
<path d="M1482.99 237.833V124.563" stroke="url(#paint57_linear_101:105)" stroke-width="8" stroke-miterlimit="10"/>
<path d="M1641.14 195.633V150.855" stroke="url(#paint58_linear_101:105)" stroke-width="8" stroke-miterlimit="10"/>
<path d="M1621.23 203.58V142.908" stroke="url(#paint59_linear_101:105)" stroke-width="8" stroke-miterlimit="10"/>
<path d="M1601.54 200.194V134.961" stroke="url(#paint60_linear_101:105)" stroke-width="8" stroke-miterlimit="10"/>
<path d="M1581.64 219.473V142.908" stroke="url(#paint61_linear_101:105)" stroke-width="8" stroke-miterlimit="10"/>
<path d="M1561.95 200.194V159.631" stroke="url(#paint62_linear_101:105)" stroke-width="8" stroke-miterlimit="10"/>
<path d="M1542.27 211.527V142.908" stroke="url(#paint63_linear_101:105)" stroke-width="8" stroke-miterlimit="10"/>
<path d="M1522.36 243.383V123.628" stroke="url(#paint64_linear_101:105)" stroke-width="8" stroke-miterlimit="10"/>
<path d="M1502.68 224.933V130.815" stroke="url(#paint65_linear_101:105)" stroke-width="8" stroke-miterlimit="10"/>
<path d="M1660.82 201.645L1660.82 161.29" stroke="url(#paint66_linear_101:105)" stroke-width="8" stroke-miterlimit="10"/>
<path d="M1680.51 200.194V134.961" stroke="url(#paint67_linear_101:105)" stroke-width="8" stroke-miterlimit="10"/>
<path d="M1700.41 219.474V142.908" stroke="url(#paint68_linear_101:105)" stroke-width="8" stroke-miterlimit="10"/>
<path d="M712.187 203.58V134.961" stroke="url(#paint69_linear_101:105)" stroke-width="8" stroke-miterlimit="10"/>
<path d="M731.873 200.194V155.554" stroke="url(#paint70_linear_101:105)" stroke-width="8" stroke-miterlimit="10"/>
<path d="M751.558 219.474V142.908" stroke="url(#paint71_linear_101:105)" stroke-width="8" stroke-miterlimit="10"/>
<path d="M771.462 203.58V144.774" stroke="url(#paint72_linear_101:105)" stroke-width="8" stroke-miterlimit="10"/>
<path d="M791.148 211.527V134.961" stroke="url(#paint73_linear_101:105)" stroke-width="8" stroke-miterlimit="10"/>
<path d="M810.834 248.359V99.9956" stroke="url(#paint74_linear_101:105)" stroke-width="8" stroke-miterlimit="10"/>
<path d="M830.738 231.049V138.788" stroke="url(#paint75_linear_101:105)" stroke-width="8" stroke-miterlimit="10"/>
<path d="M850.424 251.745V93.5" stroke="url(#paint76_linear_101:105)" stroke-width="8" stroke-miterlimit="10"/>
<path d="M988.881 203.58V142.908" stroke="url(#paint77_linear_101:105)" stroke-width="8" stroke-miterlimit="10"/>
<path d="M968.976 200.194V134.961" stroke="url(#paint78_linear_101:105)" stroke-width="8" stroke-miterlimit="10"/>
<path d="M949.291 219.474V142.908" stroke="url(#paint79_linear_101:105)" stroke-width="8" stroke-miterlimit="10"/>
<path d="M929.605 200.194V150.855" stroke="url(#paint80_linear_101:105)" stroke-width="8" stroke-miterlimit="10"/>
<path d="M909.7 211.527V137.449" stroke="url(#paint81_linear_101:105)" stroke-width="8" stroke-miterlimit="10"/>
<path d="M890.015 216.226V150.855" stroke="url(#paint82_linear_101:105)" stroke-width="8" stroke-miterlimit="10"/>
<path d="M870.11 216.226V137.449" stroke="url(#paint83_linear_101:105)" stroke-width="8" stroke-miterlimit="10"/>
<path d="M1753.34 199.503C1696.91 216.571 1603.51 220.303 1536.8 207.173C1471.62 194.32 1438.15 168.96 1371.22 157.143C1309.76 146.294 1231.45 149.335 1168.68 159.355C1073.97 174.488 1016 203.442 929.167 221.754C883.671 231.29 826.364 237.026 774.087 231.981C719.405 226.729 681.564 211.181 651.598 195.772C607.196 172.83 571.324 148.229 520.797 126.6C470.271 104.971 401.152 86.0368 317.597 80.9232C198.826 73.6675 82.0238 95.9876 1.09346 125.149" stroke="url(#paint84_linear_101:105)" stroke-width="6" stroke-miterlimit="10"/>
<path d="M1442.37 182.366C1442.37 182.72 1442.6 183.151 1443.24 183.625C1443.87 184.09 1444.81 184.532 1446.01 184.912C1448.41 185.67 1451.75 186.15 1455.43 186.15C1459.11 186.15 1462.45 185.67 1464.85 184.912C1466.05 184.532 1466.99 184.09 1467.62 183.625C1468.26 183.151 1468.49 182.72 1468.49 182.366C1468.49 182.012 1468.26 181.58 1467.62 181.107C1466.99 180.641 1466.05 180.199 1464.85 179.819C1462.45 179.061 1459.11 178.581 1455.43 178.581C1451.75 178.581 1448.41 179.061 1446.01 179.819C1444.81 180.199 1443.87 180.641 1443.24 181.107C1442.6 181.58 1442.37 182.012 1442.37 182.366Z" fill="#662D91" stroke="url(#paint85_linear_101:105)"/>
<path d="M1186.39 155.347C1186.39 157.696 1192.52 159.631 1199.96 159.631C1207.39 159.631 1213.52 157.696 1213.52 155.347C1213.52 152.997 1207.39 151.062 1199.96 151.062C1192.52 151.062 1186.39 152.997 1186.39 155.347Z" fill="#662D91"/>
<path d="M918.449 220.718C918.449 223.067 924.574 225.002 932.011 225.002C939.447 225.002 945.572 223.067 945.572 220.718C945.572 218.368 939.447 216.433 932.011 216.433C924.574 216.433 918.449 218.368 918.449 220.718Z" fill="#662D91"/>
<path d="M724.654 226.73C724.654 229.079 730.779 231.014 738.216 231.014C745.652 231.014 751.777 229.079 751.777 226.73C751.777 224.38 745.652 222.445 738.216 222.445C730.779 222.445 724.654 224.311 724.654 226.73Z" fill="#662D91"/>
<path d="M571.762 159.078C571.762 161.428 577.886 163.363 585.323 163.363C592.76 163.363 598.884 161.428 598.884 159.078C598.884 156.729 592.76 154.794 585.323 154.794C577.886 154.794 571.762 156.729 571.762 159.078Z" fill="#662D91"/>
<path d="M279.975 83.2037C272.485 83.2037 266.414 81.2856 266.414 78.9194C266.414 76.5532 272.485 74.635 279.975 74.635C287.465 74.635 293.536 76.5532 293.536 78.9194C293.536 81.2856 287.465 83.2037 279.975 83.2037Z" fill="#662D91"/>
</g>
<defs>
<linearGradient id="paint0_linear_101:105" x1="59.8816" y1="150.855" x2="58.8553" y2="150.857" gradientUnits="userSpaceOnUse">
<stop stop-color="#516BAE"/>
<stop offset="1" stop-color="#4869A7"/>
</linearGradient>
<linearGradient id="paint1_linear_101:105" x1="79.5671" y1="142.908" x2="78.5408" y2="142.91" gradientUnits="userSpaceOnUse">
<stop stop-color="#516BAE"/>
<stop offset="1" stop-color="#4869A7"/>
</linearGradient>
<linearGradient id="paint2_linear_101:105" x1="99.2529" y1="134.961" x2="98.2266" y2="134.963" gradientUnits="userSpaceOnUse">
<stop stop-color="#516BAE"/>
<stop offset="1" stop-color="#4869A7"/>
</linearGradient>
<linearGradient id="paint3_linear_101:105" x1="119.157" y1="142.908" x2="118.131" y2="142.909" gradientUnits="userSpaceOnUse">
<stop stop-color="#516BAE"/>
<stop offset="1" stop-color="#4869A7"/>
</linearGradient>
<linearGradient id="paint4_linear_101:105" x1="138.843" y1="118.999" x2="137.817" y2="118.999" gradientUnits="userSpaceOnUse">
<stop stop-color="#516BAE"/>
<stop offset="1" stop-color="#4869A7"/>
</linearGradient>
<linearGradient id="paint5_linear_101:105" x1="158.529" y1="111.052" x2="157.503" y2="111.053" gradientUnits="userSpaceOnUse">
<stop stop-color="#516BAE"/>
<stop offset="1" stop-color="#4869A7"/>
</linearGradient>
<linearGradient id="paint6_linear_101:105" x1="178.433" y1="123.629" x2="177.407" y2="123.629" gradientUnits="userSpaceOnUse">
<stop stop-color="#516BAE"/>
<stop offset="1" stop-color="#4869A7"/>
</linearGradient>
<linearGradient id="paint7_linear_101:105" x1="198.119" y1="95.0893" x2="197.093" y2="95.0899" gradientUnits="userSpaceOnUse">
<stop stop-color="#516BAE"/>
<stop offset="1" stop-color="#4869A7"/>
</linearGradient>
<linearGradient id="paint8_linear_101:105" x1="218.024" y1="124.563" x2="216.997" y2="124.563" gradientUnits="userSpaceOnUse">
<stop stop-color="#516BAE"/>
<stop offset="1" stop-color="#4869A7"/>
</linearGradient>
<linearGradient id="paint9_linear_101:105" x1="375.947" y1="150.855" x2="374.921" y2="150.857" gradientUnits="userSpaceOnUse">
<stop stop-color="#516BAE"/>
<stop offset="1" stop-color="#4869A7"/>
</linearGradient>
<linearGradient id="paint10_linear_101:105" x1="356.261" y1="142.908" x2="355.235" y2="142.91" gradientUnits="userSpaceOnUse">
<stop stop-color="#516BAE"/>
<stop offset="1" stop-color="#4869A7"/>
</linearGradient>
<linearGradient id="paint11_linear_101:105" x1="336.576" y1="134.962" x2="335.549" y2="134.963" gradientUnits="userSpaceOnUse">
<stop stop-color="#516BAE"/>
<stop offset="1" stop-color="#4869A7"/>
</linearGradient>
<linearGradient id="paint12_linear_101:105" x1="316.671" y1="142.908" x2="315.645" y2="142.909" gradientUnits="userSpaceOnUse">
<stop stop-color="#516BAE"/>
<stop offset="1" stop-color="#4869A7"/>
</linearGradient>
<linearGradient id="paint13_linear_101:105" x1="296.986" y1="118.999" x2="295.959" y2="119" gradientUnits="userSpaceOnUse">
<stop stop-color="#516BAE"/>
<stop offset="1" stop-color="#4869A7"/>
</linearGradient>
<linearGradient id="paint14_linear_101:105" x1="277.3" y1="142.908" x2="276.273" y2="142.91" gradientUnits="userSpaceOnUse">
<stop stop-color="#516BAE"/>
<stop offset="1" stop-color="#4869A7"/>
</linearGradient>
<linearGradient id="paint15_linear_101:105" x1="257.395" y1="123.629" x2="256.369" y2="123.63" gradientUnits="userSpaceOnUse">
<stop stop-color="#516BAE"/>
<stop offset="1" stop-color="#4869A7"/>
</linearGradient>
<linearGradient id="paint16_linear_101:105" x1="237.709" y1="111.052" x2="236.683" y2="111.053" gradientUnits="userSpaceOnUse">
<stop stop-color="#516BAE"/>
<stop offset="1" stop-color="#4869A7"/>
</linearGradient>
<linearGradient id="paint17_linear_101:105" x1="692.231" y1="150.855" x2="691.205" y2="150.857" gradientUnits="userSpaceOnUse">
<stop stop-color="#516BAE"/>
<stop offset="1" stop-color="#4869A7"/>
</linearGradient>
<linearGradient id="paint18_linear_101:105" x1="672.546" y1="134.961" x2="671.52" y2="134.963" gradientUnits="userSpaceOnUse">
<stop stop-color="#516BAE"/>
<stop offset="1" stop-color="#4869A7"/>
</linearGradient>
<linearGradient id="paint19_linear_101:105" x1="652.641" y1="155.554" x2="651.615" y2="155.556" gradientUnits="userSpaceOnUse">
<stop stop-color="#516BAE"/>
<stop offset="1" stop-color="#4869A7"/>
</linearGradient>
<linearGradient id="paint20_linear_101:105" x1="632.956" y1="142.908" x2="631.929" y2="142.909" gradientUnits="userSpaceOnUse">
<stop stop-color="#516BAE"/>
<stop offset="1" stop-color="#4869A7"/>
</linearGradient>
<linearGradient id="paint21_linear_101:105" x1="613.27" y1="144.774" x2="612.243" y2="144.775" gradientUnits="userSpaceOnUse">
<stop stop-color="#516BAE"/>
<stop offset="1" stop-color="#4869A7"/>
</linearGradient>
<linearGradient id="paint22_linear_101:105" x1="593.365" y1="134.961" x2="592.339" y2="134.962" gradientUnits="userSpaceOnUse">
<stop stop-color="#516BAE"/>
<stop offset="1" stop-color="#4869A7"/>
</linearGradient>
<linearGradient id="paint23_linear_101:105" x1="573.68" y1="132.21" x2="572.653" y2="132.211" gradientUnits="userSpaceOnUse">
<stop stop-color="#516BAE"/>
<stop offset="1" stop-color="#4869A7"/>
</linearGradient>
<linearGradient id="paint24_linear_101:105" x1="553.994" y1="115.682" x2="552.968" y2="115.683" gradientUnits="userSpaceOnUse">
<stop stop-color="#516BAE"/>
<stop offset="1" stop-color="#4869A7"/>
</linearGradient>
<linearGradient id="paint25_linear_101:105" x1="534.089" y1="127.071" x2="533.063" y2="127.071" gradientUnits="userSpaceOnUse">
<stop stop-color="#516BAE"/>
<stop offset="1" stop-color="#4869A7"/>
</linearGradient>
<linearGradient id="paint26_linear_101:105" x1="395.852" y1="142.908" x2="394.825" y2="142.909" gradientUnits="userSpaceOnUse">
<stop stop-color="#516BAE"/>
<stop offset="1" stop-color="#4869A7"/>
</linearGradient>
<linearGradient id="paint27_linear_101:105" x1="415.537" y1="134.961" x2="414.511" y2="134.962" gradientUnits="userSpaceOnUse">
<stop stop-color="#516BAE"/>
<stop offset="1" stop-color="#4869A7"/>
</linearGradient>
<linearGradient id="paint28_linear_101:105" x1="435.223" y1="142.908" x2="434.197" y2="142.909" gradientUnits="userSpaceOnUse">
<stop stop-color="#516BAE"/>
<stop offset="1" stop-color="#4869A7"/>
</linearGradient>
<linearGradient id="paint29_linear_101:105" x1="455.128" y1="150.855" x2="454.101" y2="150.856" gradientUnits="userSpaceOnUse">
<stop stop-color="#516BAE"/>
<stop offset="1" stop-color="#4869A7"/>
</linearGradient>
<linearGradient id="paint30_linear_101:105" x1="474.813" y1="137.449" x2="473.787" y2="137.45" gradientUnits="userSpaceOnUse">
<stop stop-color="#516BAE"/>
<stop offset="1" stop-color="#4869A7"/>
</linearGradient>
<linearGradient id="paint31_linear_101:105" x1="494.718" y1="123.628" x2="493.691" y2="123.629" gradientUnits="userSpaceOnUse">
<stop stop-color="#516BAE"/>
<stop offset="1" stop-color="#4869A7"/>
</linearGradient>
<linearGradient id="paint32_linear_101:105" x1="514.404" y1="95.0891" x2="513.377" y2="95.0897" gradientUnits="userSpaceOnUse">
<stop stop-color="#516BAE"/>
<stop offset="1" stop-color="#4869A7"/>
</linearGradient>
<linearGradient id="paint33_linear_101:105" x1="1324.8" y1="150.855" x2="1323.77" y2="150.857" gradientUnits="userSpaceOnUse">
<stop stop-color="#516BAE"/>
<stop offset="1" stop-color="#4869A7"/>
</linearGradient>
<linearGradient id="paint34_linear_101:105" x1="1304.9" y1="142.908" x2="1303.87" y2="142.91" gradientUnits="userSpaceOnUse">
<stop stop-color="#516BAE"/>
<stop offset="1" stop-color="#4869A7"/>
</linearGradient>
<linearGradient id="paint35_linear_101:105" x1="1285.21" y1="134.962" x2="1284.18" y2="134.963" gradientUnits="userSpaceOnUse">
<stop stop-color="#516BAE"/>
<stop offset="1" stop-color="#4869A7"/>
</linearGradient>
<linearGradient id="paint36_linear_101:105" x1="1265.52" y1="142.908" x2="1264.5" y2="142.909" gradientUnits="userSpaceOnUse">
<stop stop-color="#516BAE"/>
<stop offset="1" stop-color="#4869A7"/>
</linearGradient>
<linearGradient id="paint37_linear_101:105" x1="1245.62" y1="143.517" x2="1244.59" y2="143.517" gradientUnits="userSpaceOnUse">
<stop stop-color="#516BAE"/>
<stop offset="1" stop-color="#4869A7"/>
</linearGradient>
<linearGradient id="paint38_linear_101:105" x1="1225.93" y1="111.052" x2="1224.91" y2="111.053" gradientUnits="userSpaceOnUse">
<stop stop-color="#516BAE"/>
<stop offset="1" stop-color="#4869A7"/>
</linearGradient>
<linearGradient id="paint39_linear_101:105" x1="1206.25" y1="123.629" x2="1205.22" y2="123.63" gradientUnits="userSpaceOnUse">
<stop stop-color="#516BAE"/>
<stop offset="1" stop-color="#4869A7"/>
</linearGradient>
<linearGradient id="paint40_linear_101:105" x1="1186.34" y1="144.774" x2="1185.32" y2="144.775" gradientUnits="userSpaceOnUse">
<stop stop-color="#516BAE"/>
<stop offset="1" stop-color="#4869A7"/>
</linearGradient>
<linearGradient id="paint41_linear_101:105" x1="1166.66" y1="124.563" x2="1165.63" y2="124.563" gradientUnits="userSpaceOnUse">
<stop stop-color="#516BAE"/>
<stop offset="1" stop-color="#4869A7"/>
</linearGradient>
<linearGradient id="paint42_linear_101:105" x1="1008.52" y1="150.855" x2="1007.49" y2="150.857" gradientUnits="userSpaceOnUse">
<stop stop-color="#516BAE"/>
<stop offset="1" stop-color="#4869A7"/>
</linearGradient>
<linearGradient id="paint43_linear_101:105" x1="1028.2" y1="142.908" x2="1027.18" y2="142.91" gradientUnits="userSpaceOnUse">
<stop stop-color="#516BAE"/>
<stop offset="1" stop-color="#4869A7"/>
</linearGradient>
<linearGradient id="paint44_linear_101:105" x1="1048.11" y1="134.962" x2="1047.08" y2="134.963" gradientUnits="userSpaceOnUse">
<stop stop-color="#516BAE"/>
<stop offset="1" stop-color="#4869A7"/>
</linearGradient>
<linearGradient id="paint45_linear_101:105" x1="1067.79" y1="142.908" x2="1066.77" y2="142.909" gradientUnits="userSpaceOnUse">
<stop stop-color="#516BAE"/>
<stop offset="1" stop-color="#4869A7"/>
</linearGradient>
<linearGradient id="paint46_linear_101:105" x1="1087.48" y1="118.999" x2="1086.45" y2="119" gradientUnits="userSpaceOnUse">
<stop stop-color="#516BAE"/>
<stop offset="1" stop-color="#4869A7"/>
</linearGradient>
<linearGradient id="paint47_linear_101:105" x1="1107.38" y1="142.908" x2="1106.36" y2="142.91" gradientUnits="userSpaceOnUse">
<stop stop-color="#516BAE"/>
<stop offset="1" stop-color="#4869A7"/>
</linearGradient>
<linearGradient id="paint48_linear_101:105" x1="1127.07" y1="123.629" x2="1126.04" y2="123.63" gradientUnits="userSpaceOnUse">
<stop stop-color="#516BAE"/>
<stop offset="1" stop-color="#4869A7"/>
</linearGradient>
<linearGradient id="paint49_linear_101:105" x1="1146.97" y1="111.052" x2="1145.95" y2="111.053" gradientUnits="userSpaceOnUse">
<stop stop-color="#516BAE"/>
<stop offset="1" stop-color="#4869A7"/>
</linearGradient>
<linearGradient id="paint50_linear_101:105" x1="1344.49" y1="142.908" x2="1343.46" y2="142.91" gradientUnits="userSpaceOnUse">
<stop stop-color="#516BAE"/>
<stop offset="1" stop-color="#4869A7"/>
</linearGradient>
<linearGradient id="paint51_linear_101:105" x1="1364.17" y1="150.855" x2="1363.15" y2="150.857" gradientUnits="userSpaceOnUse">
<stop stop-color="#516BAE"/>
<stop offset="1" stop-color="#4869A7"/>
</linearGradient>
<linearGradient id="paint52_linear_101:105" x1="1384.08" y1="142.908" x2="1383.05" y2="142.909" gradientUnits="userSpaceOnUse">
<stop stop-color="#516BAE"/>
<stop offset="1" stop-color="#4869A7"/>
</linearGradient>
<linearGradient id="paint53_linear_101:105" x1="1403.76" y1="134.554" x2="1402.74" y2="134.555" gradientUnits="userSpaceOnUse">
<stop stop-color="#516BAE"/>
<stop offset="1" stop-color="#4869A7"/>
</linearGradient>
<linearGradient id="paint54_linear_101:105" x1="1423.67" y1="111.052" x2="1422.64" y2="111.053" gradientUnits="userSpaceOnUse">
<stop stop-color="#516BAE"/>
<stop offset="1" stop-color="#4869A7"/>
</linearGradient>
<linearGradient id="paint55_linear_101:105" x1="1443.35" y1="123.629" x2="1442.33" y2="123.63" gradientUnits="userSpaceOnUse">
<stop stop-color="#516BAE"/>
<stop offset="1" stop-color="#4869A7"/>
</linearGradient>
<linearGradient id="paint56_linear_101:105" x1="1463.04" y1="144.774" x2="1462.01" y2="144.775" gradientUnits="userSpaceOnUse">
<stop stop-color="#516BAE"/>
<stop offset="1" stop-color="#4869A7"/>
</linearGradient>
<linearGradient id="paint57_linear_101:105" x1="1482.94" y1="124.563" x2="1481.92" y2="124.563" gradientUnits="userSpaceOnUse">
<stop stop-color="#516BAE"/>
<stop offset="1" stop-color="#4869A7"/>
</linearGradient>
<linearGradient id="paint58_linear_101:105" x1="1641.08" y1="150.855" x2="1640.06" y2="150.856" gradientUnits="userSpaceOnUse">
<stop stop-color="#516BAE"/>
<stop offset="1" stop-color="#4869A7"/>
</linearGradient>
<linearGradient id="paint59_linear_101:105" x1="1621.18" y1="142.908" x2="1620.15" y2="142.909" gradientUnits="userSpaceOnUse">
<stop stop-color="#516BAE"/>
<stop offset="1" stop-color="#4869A7"/>
</linearGradient>
<linearGradient id="paint60_linear_101:105" x1="1601.49" y1="134.961" x2="1600.47" y2="134.962" gradientUnits="userSpaceOnUse">
<stop stop-color="#516BAE"/>
<stop offset="1" stop-color="#4869A7"/>
</linearGradient>
<linearGradient id="paint61_linear_101:105" x1="1581.59" y1="142.908" x2="1580.56" y2="142.909" gradientUnits="userSpaceOnUse">
<stop stop-color="#516BAE"/>
<stop offset="1" stop-color="#4869A7"/>
</linearGradient>
<linearGradient id="paint62_linear_101:105" x1="1561.9" y1="159.631" x2="1560.88" y2="159.633" gradientUnits="userSpaceOnUse">
<stop stop-color="#516BAE"/>
<stop offset="1" stop-color="#4869A7"/>
</linearGradient>
<linearGradient id="paint63_linear_101:105" x1="1542.22" y1="142.908" x2="1541.19" y2="142.909" gradientUnits="userSpaceOnUse">
<stop stop-color="#516BAE"/>
<stop offset="1" stop-color="#4869A7"/>
</linearGradient>
<linearGradient id="paint64_linear_101:105" x1="1522.31" y1="123.628" x2="1521.29" y2="123.629" gradientUnits="userSpaceOnUse">
<stop stop-color="#516BAE"/>
<stop offset="1" stop-color="#4869A7"/>
</linearGradient>
<linearGradient id="paint65_linear_101:105" x1="1502.63" y1="130.815" x2="1501.6" y2="130.816" gradientUnits="userSpaceOnUse">
<stop stop-color="#516BAE"/>
<stop offset="1" stop-color="#4869A7"/>
</linearGradient>
<linearGradient id="paint66_linear_101:105" x1="1660.77" y1="161.29" x2="1659.74" y2="161.292" gradientUnits="userSpaceOnUse">
<stop stop-color="#516BAE"/>
<stop offset="1" stop-color="#4869A7"/>
</linearGradient>
<linearGradient id="paint67_linear_101:105" x1="-nan" y1="-nan" x2="-nan" y2="-nan" gradientUnits="userSpaceOnUse">
<stop stop-color="#4301FF" stop-opacity="0"/>
<stop offset="1" stop-color="#662D91"/>
</linearGradient>
<linearGradient id="paint68_linear_101:105" x1="-nan" y1="-nan" x2="-nan" y2="-nan" gradientUnits="userSpaceOnUse">
<stop stop-color="#4301FF" stop-opacity="0"/>
<stop offset="1" stop-color="#662D91"/>
</linearGradient>
<linearGradient id="paint69_linear_101:105" x1="712.136" y1="134.961" x2="711.109" y2="134.963" gradientUnits="userSpaceOnUse">
<stop stop-color="#516BAE"/>
<stop offset="1" stop-color="#4869A7"/>
</linearGradient>
<linearGradient id="paint70_linear_101:105" x1="731.822" y1="155.554" x2="730.795" y2="155.556" gradientUnits="userSpaceOnUse">
<stop stop-color="#516BAE"/>
<stop offset="1" stop-color="#4869A7"/>
</linearGradient>
<linearGradient id="paint71_linear_101:105" x1="751.507" y1="142.908" x2="750.481" y2="142.909" gradientUnits="userSpaceOnUse">
<stop stop-color="#516BAE"/>
<stop offset="1" stop-color="#4869A7"/>
</linearGradient>
<linearGradient id="paint72_linear_101:105" x1="771.412" y1="144.774" x2="770.385" y2="144.776" gradientUnits="userSpaceOnUse">
<stop stop-color="#516BAE"/>
<stop offset="1" stop-color="#4869A7"/>
</linearGradient>
<linearGradient id="paint73_linear_101:105" x1="791.098" y1="134.961" x2="790.071" y2="134.962" gradientUnits="userSpaceOnUse">
<stop stop-color="#516BAE"/>
<stop offset="1" stop-color="#4869A7"/>
</linearGradient>
<linearGradient id="paint74_linear_101:105" x1="810.783" y1="99.9956" x2="809.757" y2="99.9961" gradientUnits="userSpaceOnUse">
<stop stop-color="#516BAE"/>
<stop offset="1" stop-color="#4869A7"/>
</linearGradient>
<linearGradient id="paint75_linear_101:105" x1="830.687" y1="138.788" x2="829.661" y2="138.789" gradientUnits="userSpaceOnUse">
<stop stop-color="#516BAE"/>
<stop offset="1" stop-color="#4869A7"/>
</linearGradient>
<linearGradient id="paint76_linear_101:105" x1="850.374" y1="93.5" x2="849.347" y2="93.5005" gradientUnits="userSpaceOnUse">
<stop stop-color="#516BAE"/>
<stop offset="1" stop-color="#4869A7"/>
</linearGradient>
<linearGradient id="paint77_linear_101:105" x1="988.83" y1="142.908" x2="987.804" y2="142.909" gradientUnits="userSpaceOnUse">
<stop stop-color="#516BAE"/>
<stop offset="1" stop-color="#4869A7"/>
</linearGradient>
<linearGradient id="paint78_linear_101:105" x1="968.925" y1="134.961" x2="967.899" y2="134.963" gradientUnits="userSpaceOnUse">
<stop stop-color="#516BAE"/>
<stop offset="1" stop-color="#4869A7"/>
</linearGradient>
<linearGradient id="paint79_linear_101:105" x1="949.24" y1="142.908" x2="948.213" y2="142.909" gradientUnits="userSpaceOnUse">
<stop stop-color="#516BAE"/>
<stop offset="1" stop-color="#4869A7"/>
</linearGradient>
<linearGradient id="paint80_linear_101:105" x1="929.554" y1="150.855" x2="928.528" y2="150.857" gradientUnits="userSpaceOnUse">
<stop stop-color="#516BAE"/>
<stop offset="1" stop-color="#4869A7"/>
</linearGradient>
<linearGradient id="paint81_linear_101:105" x1="909.649" y1="137.449" x2="908.623" y2="137.45" gradientUnits="userSpaceOnUse">
<stop stop-color="#516BAE"/>
<stop offset="1" stop-color="#4869A7"/>
</linearGradient>
<linearGradient id="paint82_linear_101:105" x1="889.964" y1="150.855" x2="888.938" y2="150.856" gradientUnits="userSpaceOnUse">
<stop stop-color="#516BAE"/>
<stop offset="1" stop-color="#4869A7"/>
</linearGradient>
<linearGradient id="paint83_linear_101:105" x1="870.059" y1="137.449" x2="869.033" y2="137.45" gradientUnits="userSpaceOnUse">
<stop stop-color="#516BAE"/>
<stop offset="1" stop-color="#4869A7"/>
</linearGradient>
<linearGradient id="paint84_linear_101:105" x1="1664.3" y1="79.5429" x2="646.353" y2="970.82" gradientUnits="userSpaceOnUse">
<stop stop-color="#516BAE"/>
<stop offset="1" stop-color="#4869A7"/>
</linearGradient>
<linearGradient id="paint85_linear_101:105" x1="1467.62" y1="178.081" x2="1441.35" y2="184.493" gradientUnits="userSpaceOnUse">
<stop stop-color="#516BAE"/>
<stop offset="1" stop-color="#4869A7"/>
</linearGradient>
<clipPath id="clip0_101:105">
<rect width="1754" height="251" fill="white" transform="matrix(-1 0 0 1 1754 0.833496)"/>
</clipPath>
</defs>
</svg>
